<svg width="36" height="36" viewBox="0 0 36 36" fill="none" xmlns="http://www.w3.org/2000/svg">
  <path opacity="0.4" d="M25.5 4.125C22.4872 4.125 19.6947 4.71681 17.5239 5.73069C15.6972 6.58391 13.2385 7.125 10.5 7.125C8.982 7.125 7.54484 6.95861 6.25117 6.6623C4.2615 6.20658 1.875 7.57017 1.875 9.92095V26.079C1.875 27.3324 2.07363 28.5123 2.72466 29.4732C3.39786 30.4667 4.43534 31.0546 5.74883 31.3555C7.21423 31.6911 8.82024 31.875 10.5 31.875C13.5127 31.875 16.3053 31.2833 18.4761 30.2693C20.3028 29.416 22.7616 28.875 25.5 28.875C27.018 28.875 28.4551 29.0414 29.7489 29.3377C31.7385 29.7935 34.125 28.4298 34.125 26.079V9.92095C34.125 8.72568 33.9642 7.5518 33.3327 6.58118C32.6737 5.56826 31.6268 4.95955 30.2511 4.64449C28.7858 4.30885 27.1797 4.125 25.5 4.125Z" fill="#192741" />
  <path fill-rule="evenodd" clip-rule="evenodd" d="M18 22.5C20.4853 22.5 22.5 20.4854 22.5 18C22.5 15.5146 20.4853 13.5 18 13.5C15.5147 13.5 13.5 15.5146 13.5 18C13.5 20.4854 15.5147 22.5 18 22.5ZM8.25 18C9.07842 18 9.75 18.6715 9.75 19.5V19.5135C9.75 20.3419 9.07842 21.0135 8.25 21.0135C7.42158 21.0135 6.75 20.3419 6.75 19.5135V19.5C6.75 18.6715 7.42158 18 8.25 18ZM29.25 16.4883C29.25 15.6598 28.5784 14.9883 27.75 14.9883C26.9216 14.9883 26.25 15.6598 26.25 16.4883V16.5018C26.25 17.3302 26.9216 18.0018 27.75 18.0018C28.5784 18.0018 29.25 17.3302 29.25 16.5018V16.4883Z" fill="#192741" />
</svg>