<svg width="161" height="50" viewBox="0 0 161 50" fill="none" xmlns="http://www.w3.org/2000/svg">
<g clip-path="url(#clip0_3033_5932)">
<mask id="mask0_3033_5932" style="mask-type:luminance" maskUnits="userSpaceOnUse" x="0" y="0" width="161" height="50">
<path d="M161 0H0V49.4298H161V0Z" fill="white"/>
</mask>
<g mask="url(#mask0_3033_5932)">
<path d="M39.4712 42.0433L34.8179 34.248L30.2608 42.0433H24.8049L31.8142 30.3021L24.6709 19.4014H30.3702L34.9464 26.6791L39.3109 19.4014H44.7664L37.7385 30.6577L44.959 42.0433H39.4712Z" fill="#100F0D"/>
<path d="M62.6923 34.3453C62.6923 39.3264 58.9697 42.4314 54.0915 42.4314C49.7911 42.4314 46.1703 40.038 45.8174 34.8303H50.4707C50.7916 37.0946 52.5888 38.0649 54.5467 38.0649C56.9856 38.0649 58.039 36.4153 58.039 34.2805C58.039 32.0485 56.4024 30.6578 54.1236 30.6578C52.2303 30.6578 50.9787 31.5634 50.4011 32.5337H45.953L47.4907 19.4014H62.1206L61.6334 23.8005H51.1682L50.7527 28.1464C50.7527 28.1464 51.8523 26.841 55.1828 26.841C59.1945 26.841 62.6923 29.5581 62.6923 34.3453Z" fill="#100F0D"/>
<path d="M46.369 16.5813C43.8905 6.84231 36.0249 0 19.7046 0H0L2.67487 18.2295C4.68706 34.6786 10.929 39.9707 21.975 41.9189C22.0271 41.927 22.3755 41.9771 22.3807 41.5643C22.3826 41.4159 22.2888 41.2878 22.1611 41.2334C14.6947 38.0645 13.8426 27.6746 12.2481 17.2474L11.0136 8.93847H22.2624C32.6335 8.93847 40.6394 8.77339 45.7098 16.8412C45.7858 16.9553 45.9026 17.0389 46.0415 17.0389C46.2378 17.0389 46.3829 16.8785 46.3829 16.6806C46.3829 16.6461 46.3779 16.613 46.369 16.5813Z" fill="#55B435"/>
<path d="M66.5957 30.7049C66.5957 23.6711 71.6624 18.5967 78.7047 18.5967C83.4209 18.5967 87.6909 21.3588 88.9337 25.1485L86.2888 26.048C85.3329 23.2215 82.1782 21.166 78.7047 21.166C73.3193 21.166 69.4955 25.1165 69.4955 30.7049C69.4955 36.2291 73.3512 40.2758 78.7047 40.2758C83.5484 40.2758 87.3722 36.775 87.4997 32.2143L76.3467 32.1823V29.5808H90.4313C90.9094 37.2889 86.002 42.8453 78.7047 42.8453C71.6624 42.8453 66.5957 37.7386 66.5957 30.7049Z" fill="#100F0D"/>
<path d="M93.918 25.8231H96.4992V28.0071H96.786C97.519 26.5297 99.3033 25.502 101.088 25.502C101.821 25.502 102.586 25.6625 103.064 25.9194V28.3923C102.235 28.0391 101.279 27.9106 100.674 27.9106C98.2518 27.9106 96.563 30.0945 96.563 33.3064V42.0422H93.918V25.8231Z" fill="#100F0D"/>
<path d="M119.178 33.9166C119.178 30.2551 116.661 27.5895 113.187 27.5895C109.682 27.5895 107.197 30.2551 107.197 33.9166C107.197 37.61 109.682 40.2757 113.187 40.2757C116.661 40.2757 119.178 37.61 119.178 33.9166ZM104.552 33.9166C104.552 28.8099 108.121 25.1807 113.187 25.1807C118.222 25.1807 121.823 28.8099 121.823 33.9166C121.823 39.0553 118.222 42.6845 113.187 42.6845C108.121 42.6845 104.552 39.0553 104.552 33.9166Z" fill="#100F0D"/>
<path d="M139.611 42.0423H136.966V39.8263H136.647C135.532 41.5926 133.716 42.6205 131.613 42.6205C127.502 42.6205 124.921 39.6337 124.921 35.4903V25.8232H127.566V35.4903C127.566 38.2524 129.159 40.2117 131.931 40.2117C134.64 40.2117 136.966 38.1239 136.966 35.2656V25.8232H139.611V42.0423Z" fill="#100F0D"/>
<path d="M146.406 33.9166C146.406 37.4815 148.922 40.2757 152.397 40.2757C155.838 40.2757 158.355 37.4815 158.355 33.9166C158.355 30.2873 155.838 27.5895 152.397 27.5895C148.922 27.5895 146.406 30.3514 146.406 33.9166ZM161 33.9166C161 38.9911 157.399 42.6845 152.714 42.6845C150.134 42.6845 147.966 41.5604 146.788 39.6335H146.502V49.4291H143.856V25.8231H146.502V28.2962H146.788C147.966 26.3369 150.038 25.1807 152.683 25.1807C157.368 25.1807 161 28.842 161 33.9166Z" fill="#100F0D"/>
</g>
</g>
<defs>
<clipPath id="clip0_3033_5932">
<rect width="161" height="49.4298" fill="white"/>
</clipPath>
</defs>
</svg>
