<svg width="161" height="36" viewBox="0 0 161 36" fill="none" xmlns="http://www.w3.org/2000/svg">
<g clip-path="url(#clip0_3033_5893)">
<mask id="mask0_3033_5893" style="mask-type:luminance" maskUnits="userSpaceOnUse" x="0" y="0" width="161" height="36">
<path d="M161 0H0V35.307H161V0Z" fill="white"/>
</mask>
<g mask="url(#mask0_3033_5893)">
<path d="M20.6039 27.6943C19.5303 28.0594 18.4054 28.268 17.2294 28.268C11.452 28.268 6.79893 23.522 6.79893 17.6283C6.79893 11.7351 11.4517 6.98867 17.2294 6.98867C20.1949 6.98867 22.8535 8.24031 24.7453 10.2222L24.8475 10.3265C25.6144 11.161 26.3814 12.0997 26.8926 13.1949L27.3528 12.882C26.8415 11.839 26.1258 10.8481 25.3076 10.0136C23.3136 7.92742 20.2972 6.41504 17.1783 6.41504C11.0941 6.41504 6.18555 11.4217 6.18555 17.6283C6.18555 23.8348 11.0938 28.8415 17.1783 28.8415C21.5754 28.8415 25.3588 26.2337 27.1487 22.4266C25.6148 24.8257 23.3136 26.6513 20.6039 27.6943Z" fill="#161F30"/>
<path d="M31.341 23.99C29.2959 30.4048 23.2628 35.1511 16.3094 35.1511C15.9515 35.1511 15.6446 35.1511 15.3379 35.0989C16.2071 35.2032 17.1274 35.3077 18.0478 35.2554C20.3996 35.2032 22.7004 34.6296 24.6944 33.6909C28.9891 31.6047 32.3125 27.7975 33.7954 23.1033C34.7157 20.1305 36.3518 17.3664 38.5503 15.2803C35.2269 17.21 32.6704 20.235 31.341 23.99Z" fill="#E43141"/>
<path d="M27.6093 22.8431C25.7175 26.8068 21.7806 29.5188 17.2299 29.5188C10.8388 29.5188 5.67474 24.1991 5.67474 17.6799C5.67474 11.1608 10.8387 5.84114 17.2299 5.84114C19.2748 5.84114 21.1667 6.36266 22.8027 7.30146C24.9502 8.50096 26.7396 10.3264 27.8133 12.569C29.245 11.7867 30.8811 11.3173 32.6195 11.4216C32.9262 11.4216 33.284 11.4738 33.5908 11.5259C32.7217 9.17906 31.3412 6.98857 29.654 5.2675C26.5352 1.98181 22.1381 0 17.2806 0C7.7194 0 -0.000976562 7.87517 -0.000976562 17.6281C-0.000976562 21.3831 1.0727 24.8773 3.01554 27.7454C5.82758 31.8133 10.4292 34.4731 15.6441 34.5252C22.6486 34.6295 28.6818 30.0401 30.7777 23.5732C32.1071 19.7139 34.6636 16.6368 38.1402 14.7072C33.4365 15.646 29.7041 18.7751 27.6077 22.8431H27.6093Z" fill="#161F30"/>
<path d="M30.6256 17.6275C32.5174 15.9063 34.8181 14.6548 37.3746 14.1332C35.943 12.8815 34.0512 12.1514 32.0061 12.1514C29.0919 12.2035 26.8932 13.7681 25.1549 16.0628C23.5187 18.2533 21.2181 20.1309 18.3037 20.4437C18.0481 20.4958 17.7925 20.4958 17.588 20.4958H17.4346C13.2421 20.4958 11.7593 19.0357 12.1173 18.5141C12.4752 17.9926 13.0376 17.8882 13.0376 17.8882L13.4977 17.8361L13.3443 17.784L13.4977 17.6796H13.191L13.3443 17.5231L12.8842 17.6796H12.424L12.6796 17.4189L12.9865 17.2624H12.833L12.9353 17.1059L12.7308 17.1582L12.833 17.0016L12.5263 17.2103L11.2992 17.5754C11.2992 17.5754 11.0947 17.5231 10.839 17.6275C10.5834 17.7317 10.1232 17.8882 9.71424 18.149C9.30526 18.4097 8.74281 18.7748 8.6917 18.7748C8.64057 18.8269 8.58943 18.9313 8.58943 18.9836C8.58943 19.0357 8.6917 19.3485 8.89619 19.505C9.10069 19.6615 9.25407 19.7657 9.40752 19.8179C9.61201 19.87 10.021 19.9744 10.2767 20.1309C10.5323 20.2872 10.7368 20.3916 10.6346 20.7044C10.4812 21.0175 10.021 20.8089 9.76538 20.7567C9.50976 20.7046 8.23152 20.2872 8.23152 20.2872L7.51572 19.8179C7.51572 19.8179 7.36233 19.7136 7.26008 19.87C7.15782 20.0265 7.36233 20.0786 7.36233 20.0786C7.36233 20.0786 7.26008 20.183 7.41347 20.2872C7.56684 20.3916 7.77135 20.4437 7.77135 20.4437C7.77135 20.4437 7.61797 20.4958 7.61797 20.6002C7.61797 20.6523 7.66911 20.7046 7.77135 20.7567C7.87362 20.7567 8.02701 20.7567 8.18039 20.9132C8.33377 21.0696 8.64054 21.2261 8.89617 21.3825C9.20291 21.5389 9.71423 21.7998 9.71423 21.7998L8.69168 21.8519C8.69168 21.8519 8.23153 21.7477 8.07814 21.6954C7.92477 21.6432 7.87363 21.5911 7.77138 21.7477C7.66912 21.904 7.87363 21.904 7.87363 21.904C7.87363 21.904 7.82251 22.0605 8.02702 22.1126C8.18041 22.1649 8.28266 22.1126 8.28266 22.1126C8.23153 22.1649 8.18041 22.217 8.28266 22.2691C8.38492 22.3735 8.48717 22.217 8.74282 22.2691C8.99844 22.3212 8.94732 22.3212 9.1518 22.4256C9.35639 22.5298 9.76537 22.8428 10.5323 22.9471C11.2992 22.9992 11.5549 22.9992 11.9638 22.9471C12.3729 22.8428 13.1398 22.6864 13.1398 22.6864H15.1339C15.1339 22.6864 17.5369 23.7294 19.0708 23.8859C20.6045 24.0423 21.3715 23.938 21.8316 23.938C22.2917 23.938 22.9054 24.0423 23.3654 24.2509C23.8256 24.4595 24.0301 24.6681 24.1835 24.8767C24.3369 25.0853 24.388 25.1897 24.4902 25.1376C24.5414 25.0853 24.7459 24.929 24.388 24.4595C24.0301 23.9902 23.7234 23.8338 23.212 23.6773C22.752 23.5208 21.7805 23.1036 21.7805 23.1036C21.7805 23.1036 22.4451 23.0513 22.8543 23.1036C23.2631 23.1557 23.6211 23.2599 23.8768 23.4685C24.1324 23.6773 24.1835 23.8338 24.2346 23.8338C24.2857 23.8859 24.388 24.1466 24.4902 24.0945C24.5925 24.0423 24.797 23.938 24.4393 23.4166C24.0812 22.895 23.1099 22.582 22.7009 22.4777C22.2917 22.3735 21.2693 22.0605 21.2693 22.0605L20.3489 21.6954H20.4511C24.4902 21.4868 27.9159 19.9744 30.6256 17.6275Z" fill="#E43141"/>
<path d="M56.3427 15.2803L53.9397 28.6316H36.6582L39.0612 15.2803H43.4071L41.7198 24.824H43.8161L45.5033 15.2803H49.8492L48.1619 24.824H50.2582L51.9454 15.2803H56.3427Z" fill="#E43141"/>
<path d="M70.8631 15.2803L68.4602 28.6316H63.9608L65.2902 21.1215H65.2391L60.8931 28.6316H55.627L58.0299 15.2803H62.5292L61.1487 22.9468H61.2L65.5458 15.2803H70.8631Z" fill="#E43141"/>
<path d="M84.6173 15.2803L82.2143 28.6316H77.715L78.5842 23.7291H75.5677L74.6985 28.6316H70.1992L72.6022 15.2803H77.1015L76.2835 19.922H79.3L80.1181 15.2803H84.6173Z" fill="#E43141"/>
<path d="M108.089 15.2803L107.526 18.4095H101.749L101.391 20.3392H106.913L106.351 23.4163H100.828L100.47 25.5024H106.351L105.788 28.6316H95.46L97.8631 15.2803H108.089Z" fill="#E43141"/>
<path d="M149.243 15.2803L146.839 28.6316H142.341L143.67 21.1215H143.619L139.273 28.6316H134.007L136.41 15.2803H140.909L139.528 22.9468H139.579L143.925 15.2803H149.243Z" fill="#E43141"/>
<path d="M85.4343 28.6846C85.2298 28.6846 85.0765 28.5803 84.9741 28.476C84.3606 27.6936 84.1049 26.6507 84.2583 25.6597L85.4343 19.1927C85.4855 18.8276 85.6388 18.4626 85.8433 18.1497C86.4568 17.211 87.2238 16.3765 88.0931 15.6463C88.4001 15.3856 88.7574 15.2812 89.1666 15.2812H96.1716L95.6084 18.4626H90.0869L88.8084 25.5033H94.3309L93.7685 28.6846H85.4343Z" fill="#E43141"/>
<path d="M121.121 16.219C121.07 15.6975 120.61 15.2803 120.099 15.2803H109.822L107.419 28.6316H111.918L112.583 24.8243H118.36C118.872 24.8243 119.383 24.5114 119.638 24.0942C120.968 21.7995 121.479 19.0354 121.121 16.219ZM116.009 21.4865C115.906 21.643 115.753 21.7472 115.548 21.7472H113.145L113.708 18.4616H116.111C116.315 18.4616 116.417 18.6181 116.469 18.7745C116.622 19.7133 116.469 20.652 116.009 21.4865Z" fill="#E43141"/>
<path d="M150.263 28.6846C150.059 28.6846 149.906 28.5803 149.803 28.476C149.19 27.6936 148.884 26.6507 149.087 25.6597L150.263 19.1927C150.314 18.8276 150.468 18.4626 150.672 18.1497C151.286 17.211 152.053 16.3765 152.923 15.6463C153.229 15.3856 153.586 15.2812 153.996 15.2812H161.001L160.439 18.4626H154.915L153.637 25.5033H159.159L158.597 28.6846H150.263Z" fill="#E43141"/>
<path d="M132.938 21.9045V21.8522C133.807 20.3398 134.216 18.5145 133.909 16.637C133.909 16.5326 133.858 16.3763 133.858 16.2718C133.756 15.7503 133.295 15.333 132.733 15.333H123.275L120.923 28.6843H129.359C129.972 28.6843 130.535 28.4234 130.944 28.0062C132.427 26.546 133.244 24.4076 132.938 22.1651C132.989 22.0608 132.989 21.9566 132.938 21.9045ZM128.387 25.6595C128.336 25.7638 128.183 25.8681 128.029 25.8681H125.627L126.086 23.1561H128.489C128.643 23.1561 128.745 23.2604 128.796 23.4168C128.898 24.2513 128.745 25.0335 128.387 25.6595ZM129.256 20.3398C129.205 20.4441 129.052 20.5484 128.898 20.5484H126.598L127.058 18.045H129.359C129.512 18.045 129.615 18.1494 129.615 18.3059C129.717 18.9838 129.564 19.7139 129.256 20.3398Z" fill="#E43141"/>
<path d="M37.9876 30.5098L35.6357 34.5778H36.556L37.0674 33.6912H38.55L38.7034 34.5778H39.5725L38.908 30.5098H37.9876ZM37.4252 33.0132L38.2944 31.4485L38.4989 33.0132H37.4252Z" fill="#161F30"/>
<path d="M46.0158 31.4485C46.0158 30.562 45.1976 30.5098 44.533 30.5098H42.9991L42.1299 34.5778H43.9705C44.4308 34.5778 44.6353 34.5778 44.8398 34.4735C45.4021 34.317 45.76 33.7954 45.76 33.2218C45.76 32.8046 45.5555 32.5437 45.1976 32.3873C45.7089 32.3351 46.0158 31.9701 46.0158 31.4485ZM44.0216 33.8998H43.2036L43.4593 32.8046H44.1751C44.533 32.8046 44.9931 32.8046 44.9931 33.2739C44.9931 33.8477 44.4308 33.8998 44.0216 33.8998ZM44.3285 32.1787H43.5104L43.7149 31.2399H44.4308C44.7375 31.2399 45.0954 31.2399 45.0954 31.6571C45.1465 32.1265 44.7375 32.1787 44.3285 32.1787Z" fill="#161F30"/>
<path d="M48.7764 31.2399H50.0034L49.2876 34.5778H50.1567L50.8726 31.2399H52.0998L52.2531 30.5098H48.9297L48.7764 31.2399Z" fill="#161F30"/>
<path d="M56.5478 30.457C55.3206 30.457 54.4004 31.5001 54.4004 32.9083C54.4004 34.0557 55.065 34.7337 56.1386 34.7337C57.5703 34.7337 58.3373 33.5864 58.3373 32.2303C58.3373 31.083 57.6725 30.457 56.5478 30.457ZM56.1898 33.9513C55.6275 33.9513 55.2695 33.5341 55.2695 32.8561C55.2695 32.0738 55.6786 31.1351 56.5478 31.1351C57.1613 31.1351 57.468 31.5001 57.468 32.1782C57.468 32.9604 57.059 33.9513 56.1898 33.9513Z" fill="#161F30"/>
<path d="M63.2454 30.4053C61.8649 30.4053 61.0469 31.5526 61.0469 32.8566C61.0469 34.0039 61.6604 34.6297 62.734 34.6297C63.7055 34.6297 64.4724 34.056 64.6259 33.0652H63.7568C63.6032 33.5867 63.2965 33.8995 62.7853 33.8995C62.2229 33.8995 61.916 33.4824 61.916 32.8043C61.916 32.0742 62.3251 31.0833 63.1431 31.0833C63.6544 31.0833 63.9101 31.344 63.9613 31.8656H64.8304V31.7613C64.8304 30.9789 64.2167 30.4053 63.2454 30.4053Z" fill="#161F30"/>
<path d="M67.2842 34.5773H70.3519L70.5053 33.8473H68.3068L68.5113 32.8563H70.5053L70.6587 32.1783H68.6647L68.8692 31.2918H71.0167L71.1701 30.5615H68.1534L67.2842 34.5773Z" fill="#161F30"/>
<path d="M76.3347 30.6141C76.1302 30.562 75.9257 30.5098 75.619 30.5098H74.0851L73.2158 34.5778H74.0851L74.3918 33.1175H75.2609C75.619 33.1175 76.0791 33.1175 76.3858 32.9089C76.7437 32.6481 76.9993 32.1787 76.9993 31.7094C77.0504 31.1357 76.7437 30.7184 76.3347 30.6141ZM75.4656 32.4395H74.5963L74.8519 31.2922H75.5167C75.9257 31.2922 76.2836 31.3443 76.2836 31.8136C76.1813 32.2309 75.8746 32.4395 75.4656 32.4395Z" fill="#161F30"/>
<path d="M83.1348 31.4485C83.1348 30.562 82.3168 30.5098 81.6522 30.5098H80.1183L79.249 34.5778H81.0896C81.5498 34.5778 81.7544 34.5778 81.9589 34.4735C82.5213 34.317 82.8792 33.7954 82.8792 33.2218C82.8792 32.8046 82.6747 32.5437 82.3168 32.3873C82.8791 32.3351 83.1348 31.9701 83.1348 31.4485ZM81.1408 33.8998H80.3228L80.5784 32.8046H81.2941C81.6522 32.8046 82.1123 32.8046 82.1123 33.2739C82.1123 33.8477 81.601 33.8998 81.1408 33.8998ZM81.4988 32.1787H80.6807L80.8851 31.2399H81.601C81.9078 31.2399 82.2657 31.2399 82.2657 31.6571C82.2657 32.1265 81.9078 32.1787 81.4988 32.1787Z" fill="#161F30"/>
<path d="M86.8155 33.3261L87.378 30.5098H86.5088L85.6396 34.5778H86.6621L88.7073 31.7615L88.0939 34.5778H88.9633L89.8317 30.5098H88.8092L86.8155 33.3261Z" fill="#161F30"/>
<path d="M94.5906 30.4053C93.21 30.4053 92.3926 31.5526 92.3926 32.8566C92.3926 34.0039 93.0059 34.6297 94.0794 34.6297C95.0508 34.6297 95.8181 34.056 95.9712 33.0652H95.1019C94.9488 33.5867 94.6416 33.8995 94.1304 33.8995C93.5682 33.8995 93.262 33.4824 93.262 32.8043C93.262 32.0742 93.6703 31.0833 94.4885 31.0833C94.9998 31.0833 95.2558 31.344 95.3068 31.8656H96.1762V31.7613C96.1762 30.9789 95.562 30.4053 94.5906 30.4053Z" fill="#161F30"/>
<path d="M101.596 32.0744H99.959L100.266 30.5098H99.3966L98.5273 34.5778H99.3966L99.7547 32.8046H101.391L101.033 34.5778H101.902L102.72 30.5098H101.851L101.596 32.0744Z" fill="#161F30"/>
<path d="M108.44 34.5778H109.31L110.179 30.5098H109.31L108.44 34.5778Z" fill="#161F30"/>
<path d="M107.623 32.0744C107.419 32.0223 107.214 31.9701 106.908 31.9701H106.447L106.753 30.5098H105.885L105.016 34.5778H106.549C106.908 34.5778 107.368 34.5778 107.725 34.3691C108.083 34.1084 108.339 33.639 108.339 33.1697C108.339 32.5958 108.083 32.1787 107.623 32.0744ZM106.753 33.8477H106.038L106.294 32.7002H106.753C107.163 32.7002 107.521 32.7525 107.521 33.2218C107.521 33.6912 107.163 33.8477 106.753 33.8477Z" fill="#161F30"/>
<path d="M112.427 34.5773H115.495L115.648 33.8473H113.449L113.654 32.8563H115.648L115.801 32.1783H113.807L114.012 31.2918H116.159L116.313 30.5615H113.296L112.427 34.5773Z" fill="#161F30"/>
<path d="M126.286 33.8477H125.825L126.541 30.5098H125.672L124.956 33.8477H123.32L124.036 30.5098H123.166L122.298 34.5778H125.263L125.109 35.3078H125.979L126.286 33.8477Z" fill="#161F30"/>
<path d="M128.891 34.5773H131.959L132.112 33.8473H129.913L130.118 32.8563H132.112L132.265 32.1783H130.271L130.476 31.2918H132.623L132.776 30.5615H129.709L128.891 34.5773Z" fill="#161F30"/>
<path d="M137.892 32.0744H136.256L136.562 30.5098H135.693L134.824 34.5778H135.693L136.051 32.8046H137.687L137.329 34.5778H138.199L139.016 30.5098H138.147L137.892 32.0744Z" fill="#161F30"/>
<path d="M141.676 31.2399H142.902L142.187 34.5778H143.056L143.772 31.2399H144.999L145.151 30.5098H141.828L141.676 31.2399Z" fill="#161F30"/>
<path d="M150.114 30.6141C149.91 30.562 149.705 30.5098 149.398 30.5098H147.865L146.996 34.5778H147.865L148.171 33.1175H149.041C149.398 33.1175 149.859 33.1175 150.216 32.9089C150.575 32.6481 150.83 32.1787 150.83 31.7094C150.83 31.1357 150.523 30.7184 150.114 30.6141ZM149.244 32.4395H148.376L148.632 31.2922H149.295C149.705 31.2922 150.064 31.3443 150.064 31.8136C149.96 32.2309 149.654 32.4395 149.244 32.4395Z" fill="#161F30"/>
<path d="M155.684 32.0744C155.477 32.0223 155.274 31.9701 154.966 31.9701H154.507L154.814 30.5098H153.944L153.075 34.5778H154.609C154.966 34.5778 155.427 34.5778 155.785 34.3691C156.143 34.1084 156.398 33.639 156.398 33.1697C156.398 32.5958 156.143 32.1787 155.684 32.0744ZM154.814 33.8477H154.098L154.353 32.7002H154.814C155.223 32.7002 155.581 32.7525 155.581 33.2218C155.581 33.6912 155.223 33.8477 154.814 33.8477Z" fill="#161F30"/>
<path d="M157.373 30.5098L156.503 34.5778H157.373L158.241 30.5098H157.373Z" fill="#161F30"/>
</g>
</g>
<defs>
<clipPath id="clip0_3033_5893">
<rect width="161" height="35.307" fill="white"/>
</clipPath>
</defs>
</svg>
