<svg width="139" height="31" viewBox="0 0 139 31" fill="none" xmlns="http://www.w3.org/2000/svg">
<g clip-path="url(#clip0_3033_5863)">
<mask id="mask0_3033_5863" style="mask-type:luminance" maskUnits="userSpaceOnUse" x="0" y="0" width="139" height="31">
<path d="M139 0H0V30.4825H139V0Z" fill="white"/>
</mask>
<g mask="url(#mask0_3033_5863)">
<path d="M21.3292 3.83105H8.47543L5.27111 9.4146H24.5378L21.3292 3.83105ZM24.5482 9.43778L14.9123 26.2304H21.3292L27.763 15.0338L24.5482 9.43778ZM2.0459 15.0338L8.47543 26.2304H14.8956L5.25753 9.43778L2.0459 15.0338Z" fill="#FFFEFE"/>
<path d="M27.2389 0.0839844H2.51466C1.14556 0.0839844 0.0429688 1.19817 0.0429688 2.57201V27.4394C0.0429688 28.8143 1.14556 29.9316 2.51466 29.9316H27.2389C28.6049 29.9316 29.7127 28.8143 29.7127 27.4394V2.57201C29.7127 1.19817 28.6049 0.0839844 27.2389 0.0839844ZM8.47598 3.83022H21.3298L24.5373 9.41372H5.27167L8.47598 3.83022ZM8.47598 26.2306L2.04645 15.0341L5.25809 9.43789L14.8961 26.2306H8.47598ZM21.3298 26.2306H14.9118L24.5487 9.43789L27.7635 15.0341L21.3298 26.2306Z" fill="#00469B"/>
<path d="M124.948 14.4842L123.622 20.7826H128.796C127.75 21.7706 126.284 22.3814 124.67 22.3814C122.143 22.3814 120.096 20.0868 120.096 17.2592C120.096 13.9188 122.556 11.2164 125.581 11.2164C127.215 11.2164 128.685 12.0047 129.688 13.2576L137.738 9.9876C136.592 6.04065 131.647 3.07129 125.714 3.07129C117.206 3.07129 110.3 9.6576 110.301 17.7827C110.3 24.7485 116.379 30.3983 123.881 30.3983C129.552 30.3983 132.856 28.5514 135.612 25.6683C137.675 23.5061 139.701 19.0052 138.688 14.4842H124.948Z" fill="#00469B"/>
<path d="M102.792 3.8125L95.8606 16.6455L94.4089 3.81566V3.8125H85.5255L76.6201 29.8225H85.5025L89.1071 19.2945L90.3038 29.8225H96.0634L101.866 19.08L101.209 29.8225H109.826L111.412 3.8125H102.792Z" fill="#00469B"/>
<path d="M39.1004 3.81152H36.4897L43.1608 15.9236L29.8115 29.8226H32.8894L45.9438 16.2295L39.1004 3.81152ZM57.8655 3.81152H54.7876L50.7974 7.96975L48.5043 3.81152H40.4089L46.7695 15.3644L57.8655 3.81152ZM34.4768 29.8226H43.6581L48.2118 25.0799L50.8214 29.8226H53.431L46.5186 17.2785L34.4768 29.8226ZM55.5777 18.8331C55.5777 12.1763 59.9117 6.44042 66.171 3.81152H59.454L47.3505 16.4145L54.7406 29.8226H62.2486C58.293 27.775 55.5777 23.6272 55.5777 18.8331Z" fill="#00469B"/>
<path d="M77.1381 21.2462C75.8463 21.5542 74.4333 21.7265 72.943 21.7265C70.6333 21.7265 68.7667 19.844 68.7667 17.521C68.7667 14.3278 71.5656 11.7409 75.029 11.7409C76.8674 11.7409 78.5844 12.0657 80.0341 12.6249L82.9133 4.20865C80.8043 3.47597 78.4946 3.07129 76.0751 3.07129C65.9793 3.07129 57.793 10.1296 57.793 18.8329C57.793 21.6593 58.8642 24.4837 61.0025 26.6364C64.2601 29.9106 69.0959 30.9228 74.1846 29.8896L77.1381 21.2462Z" fill="#00469B"/>
</g>
</g>
<defs>
<clipPath id="clip0_3033_5863">
<rect width="139" height="30.4825" fill="white"/>
</clipPath>
</defs>
</svg>
