<svg width="138" height="95" viewBox="0 0 138 95" fill="none" xmlns="http://www.w3.org/2000/svg">
<path fill-rule="evenodd" clip-rule="evenodd" d="M53.9183 76.5349C55.0701 76.5349 56.0047 77.5836 56.0047 78.8757C56.0047 80.1677 55.0701 81.2166 53.9183 81.2166C52.7665 81.2166 51.8319 80.1677 51.8319 78.8757C51.8319 77.5836 52.7665 76.5349 53.9183 76.5349ZM53.9183 74.7515C56.2131 74.7515 58.0742 76.5984 58.0742 78.8757C58.0742 81.153 56.2131 83 53.9183 83C51.6235 83 49.7624 81.153 49.7624 78.8757C49.7624 76.5984 51.6235 74.7515 53.9183 74.7515ZM63.6375 76.5349C64.3497 76.5349 65.0196 76.8537 65.3962 77.4652L66.7613 76.1563C65.9995 75.2953 64.8825 74.7515 63.6375 74.7515C61.3427 74.7515 59.4816 76.5984 59.4816 78.8757C59.4816 81.153 61.3427 83 63.6375 83C64.9113 83 66.0512 82.4306 66.8136 81.5347L65.3951 80.3204C65.0163 80.9125 64.3362 81.2166 63.6375 81.2166C62.4857 81.2166 61.5511 80.1677 61.5511 78.8757C61.5511 77.5836 62.4857 76.5349 63.6375 76.5349ZM77.3748 79.417H83.3442C83.3668 79.2398 83.3785 79.0592 83.3785 78.8757C83.3785 76.5984 81.5834 74.7515 79.37 74.7515C77.1566 74.7515 75.3615 76.5984 75.3615 78.8757C75.3615 81.153 77.1566 83 79.37 83C80.6323 83 82.0837 82.7858 82.8185 81.8471L81.9058 80.5266C81.448 81.1846 80.2368 81.3679 79.4639 81.3679C78.4423 81.3679 77.5873 80.5326 77.3748 79.417ZM77.4203 78.1349C77.6914 77.1206 78.5041 76.3835 79.4639 76.3835C80.4237 76.3835 81.2365 77.1206 81.5075 78.1349H77.4203ZM68.019 74.9399H74.4432V76.7095H72.2229V82.8115H70.2392V76.7095H68.019V74.9399ZM86.662 78.7535L83.9578 74.9399H86.3467L87.9652 77.3766L89.5837 74.9399H91.9726L89.2684 78.7535L92.095 82.8115H89.7865L87.9652 80.1767L86.1438 82.8115H83.8353L86.662 78.7535ZM87.9652 77.7453L87.9559 77.7609L87.9652 77.761L87.9745 77.7609L87.9652 77.7453ZM44.9367 73.906C45.7983 73.906 46.497 74.6045 46.497 75.4658C46.497 76.3271 45.7983 77.0256 44.9367 77.0256H42.3069V73.906H44.9367ZM40.1279 72.0537H45.3853C47.27 72.0537 48.7984 73.5817 48.7984 75.4658C48.7984 77.35 47.2699 78.8779 45.3853 78.8779H42.3069V82.8115H40.1279V72.0537Z" fill="black"/>
<path fill-rule="evenodd" clip-rule="evenodd" d="M46.6529 18.651H64.048L57.3951 12H40V29.3902L46.6529 36.0412V18.651ZM67.6398 18.651H85.0349V36.0412L91.6878 29.3902V12H74.2927L67.6398 18.651ZM85.0349 39.6318V57.022H67.6398L74.2927 63.673H91.6878V46.2828L85.0349 39.6318ZM64.048 57.022H46.6529V39.6318L40 46.2828V63.673H57.3951L64.048 57.022Z" fill="black"/>
</svg>
