<svg width="36" height="36" viewBox="0 0 36 36" fill="none" xmlns="http://www.w3.org/2000/svg">
<path opacity="0.4" d="M9.44771 9.375C9.99897 5.1431 13.6178 1.875 18 1.875C22.3821 1.875 26.001 5.1431 26.5523 9.375H31.5C32.1213 9.375 32.625 9.87868 32.625 10.5V27.078C32.625 28.4258 32.6252 29.5496 32.5052 30.4417C32.3786 31.3834 32.1 32.2337 31.4168 32.9167C30.7337 33.6 29.8835 33.8785 28.9418 34.0051C28.0496 34.1251 26.9258 34.125 25.578 34.125H10.422C9.0743 34.125 7.95047 34.1251 7.05828 34.0051C6.1166 33.8785 5.2664 33.6 4.58319 32.9167C3.89999 32.2337 3.62148 31.3834 3.49487 30.4417C3.37493 29.5496 3.37496 28.4258 3.375 27.078V10.5C3.375 9.87868 3.87869 9.375 4.5 9.375H9.44771Z" fill="#192741"/>
<path d="M18 26.625C17.1716 26.625 16.5 27.2966 16.5 28.125V34.1251H13.5V28.125C13.5 25.6396 15.5146 23.625 18 23.625C20.4854 23.625 22.5 25.6396 22.5 28.125V34.1251H19.5V28.125C19.5 27.2966 18.8285 26.625 18 26.625Z" fill="#192741"/>
<path fill-rule="evenodd" clip-rule="evenodd" d="M7.875 16.5C7.875 15.8787 8.37868 15.375 9 15.375H9.75C10.3713 15.375 10.875 15.8787 10.875 16.5C10.875 17.1213 10.3713 17.625 9.75 17.625H9C8.37868 17.625 7.875 17.1213 7.875 16.5ZM7.875 21.75C7.875 21.1287 8.37868 20.625 9 20.625H9.75C10.3713 20.625 10.875 21.1287 10.875 21.75C10.875 22.3713 10.3713 22.875 9.75 22.875H9C8.37868 22.875 7.875 22.3713 7.875 21.75Z" fill="#192741"/>
<path fill-rule="evenodd" clip-rule="evenodd" d="M25.125 16.5C25.125 15.8787 25.6287 15.375 26.25 15.375H27C27.6213 15.375 28.125 15.8787 28.125 16.5C28.125 17.1213 27.6213 17.625 27 17.625H26.25C25.6287 17.625 25.125 17.1213 25.125 16.5ZM25.125 21.75C25.125 21.1287 25.6287 20.625 26.25 20.625H27C27.6213 20.625 28.125 21.1287 28.125 21.75C28.125 22.3713 27.6213 22.875 27 22.875H26.25C25.6287 22.875 25.125 22.3713 25.125 21.75Z" fill="#192741"/>
<path fill-rule="evenodd" clip-rule="evenodd" d="M15.75 10.875C16.3713 10.875 16.875 11.3787 16.875 12V13.125H19.125V12C19.125 11.3787 19.6287 10.875 20.25 10.875C20.8713 10.875 21.375 11.3787 21.375 12V16.5C21.375 17.1213 20.8713 17.625 20.25 17.625C19.6287 17.625 19.125 17.1213 19.125 16.5V15.375H16.875V16.5C16.875 17.1213 16.3713 17.625 15.75 17.625C15.1287 17.625 14.625 17.1213 14.625 16.5V12C14.625 11.3787 15.1287 10.875 15.75 10.875Z" fill="#192741"/>
<path fill-rule="evenodd" clip-rule="evenodd" d="M3.34092 11.625H10.5007C11.122 11.625 11.6257 11.1213 11.6257 10.5C11.6257 8.42486 12.6172 6.5813 14.1523 5.41719C15.2932 4.60518 16.5882 4.125 18.0007 4.125C19.4133 4.125 20.7081 4.60518 21.8491 5.41719C23.3842 6.5813 24.3757 8.42486 24.3757 10.5C24.3757 11.1213 24.8794 11.625 25.5007 11.625H32.659C33.1105 11.625 33.5367 11.4299 33.8145 11.0962C34.0923 10.7625 34.1907 10.3273 34.0812 9.91652C33.4638 7.60004 32.7656 5.54269 31.3481 4.22551C30.6282 3.55662 29.7472 3.375 29.0352 3.375H22.8627C21.4785 2.42854 19.8042 1.875 18.0007 1.875C16.1973 1.875 14.523 2.42854 13.1387 3.375H6.96484C6.25279 3.375 5.3718 3.5566 4.65193 4.22551C3.23439 5.54269 2.53618 7.60004 1.91878 9.91652C1.8093 10.3273 1.90768 10.7625 2.18548 11.0962C2.46328 11.4299 2.88951 11.625 3.34092 11.625ZM9.52858 8.875C9.71668 7.88842 10.0728 6.96146 10.5661 6.125H6.96484C6.78315 6.125 6.74994 6.14696 6.71526 6.17919C6.16197 6.6933 5.71573 7.52944 5.26689 8.875H9.52858ZM26.4729 8.875H30.7331C30.2843 7.52944 29.838 6.6933 29.2848 6.17919C29.25 6.14696 29.2169 6.125 29.0352 6.125H25.4353C25.9287 6.96146 26.2848 7.88842 26.4729 8.875Z" fill="#192741"/>
</svg>
