<svg width="36" height="36" viewBox="0 0 36 36" fill="none" xmlns="http://www.w3.org/2000/svg">
<path opacity="0.4" d="M1.86035 17.9883C1.86035 9.08269 9.07976 1.86328 17.9853 1.86328C26.891 1.86328 34.1103 9.08269 34.1103 17.9883C34.1103 26.8938 26.891 34.1133 17.9853 34.1133C9.07976 34.1133 1.86035 26.8938 1.86035 17.9883Z" fill="#192741"/>
<path fill-rule="evenodd" clip-rule="evenodd" d="M20.9099 2.12782V2.91883C21.2576 6.60099 20.2923 10.128 18.4328 13.0728C20.1375 14.3293 21.6455 15.8373 22.9019 17.542C25.847 15.682 29.3744 14.7164 33.057 15.0642H33.8459C34.0196 16.0125 34.1103 16.9897 34.1103 17.9883C34.1103 18.0136 34.1103 18.039 34.1102 18.0642H32.9103L32.8365 18.0568C29.8245 17.7579 26.9279 18.5491 24.5052 20.0781C26.0882 23.0301 26.9859 26.4043 26.9859 29.9883V31.3695C26.051 31.9996 25.0463 32.5344 23.9859 32.9598V29.9883C23.9859 27.111 23.3109 24.3915 22.1105 21.9793C19.3032 24.7473 17.6376 28.675 18.0513 32.8419L18.0587 32.9158V34.1131C18.0342 34.1133 18.0098 34.1133 17.9853 34.1133C16.986 34.1133 16.0079 34.0224 15.0587 33.8484V33.0625C14.5542 27.7228 16.8005 22.7359 20.5146 19.3599C19.4222 17.8692 18.1059 16.5528 16.6152 15.4602C13.2391 19.1751 8.25181 21.4218 2.91148 20.9172H2.12572C1.95142 19.9674 1.86035 18.9885 1.86035 17.9883C1.86035 17.9646 1.86041 17.9409 1.86052 17.9172H3.05821L3.13213 17.9245C7.29956 18.3382 11.2279 16.6723 13.9959 13.8643C11.5835 12.6635 8.86357 11.9883 5.98592 11.9883H3.0136C3.43891 10.928 3.9736 9.92331 4.6037 8.98828H5.98592C9.57016 8.98828 12.9447 9.88623 15.8967 11.4694C17.4252 9.04707 18.2162 6.15078 17.9172 3.13948L17.9099 3.06556V1.86345C17.9351 1.86334 17.9601 1.86328 17.9853 1.86328C18.984 1.86328 19.9614 1.95406 20.9099 2.12782Z" fill="#192741"/>
</svg>
