<svg width="36" height="36" viewBox="0 0 36 36" fill="none" xmlns="http://www.w3.org/2000/svg">
<path d="M24.4871 6.13296C26.4295 5.24655 28.2229 5.69707 29.793 6.1539C30.4513 6.3442 31.188 6.55729 31.6414 6.89839C32.3499 7.43137 32.8137 8.25331 32.9095 9.15942C32.9819 9.8448 32.7731 10.5333 32.6117 11.1895C32.2108 12.818 31.6909 14.6492 29.967 15.9396C29.3191 16.4244 28.3208 16.9579 27.5224 17.3575C26.7021 17.7682 26.0047 18.0805 25.9121 18.1218L15.5343 22.765C14.3115 23.311 14.0407 23.4616 13.8604 23.6812C13.0211 24.7035 13.0353 26.4097 12.7293 27.6531C12.5754 28.2781 12.147 28.9642 11.6554 29.4627C11.197 29.9275 10.3616 30.5475 9.36291 30.3315C8.33462 30.109 8.00151 29.1226 7.88736 28.167L7.18402 23.5711C7.1405 23.2876 7.11875 23.146 7.05095 23.0248C6.98316 22.9038 6.87543 22.8144 6.65996 22.6353L3.13114 19.7037C2.3882 19.128 1.7182 18.3363 2.05064 17.2918C2.37334 16.2778 3.32348 15.8455 3.93554 15.6723C4.59939 15.4845 5.38539 15.4474 5.98056 15.6205C7.18954 15.9723 8.61468 16.8388 9.90741 16.6006C10.1868 16.5492 10.4502 16.3819 11.5199 15.5677L20.6209 8.65134C20.7023 8.58934 21.3142 8.12464 22.0705 7.59961C22.8066 7.08868 23.7551 6.46692 24.4871 6.13296Z" fill="#192741"/>
<g opacity="0.4">
<path d="M19.1825 23.1744C18.6163 23.4277 18.3331 23.5545 18.2175 23.8158C18.1017 24.0772 18.193 24.3837 18.3754 24.9969L20.1734 31.0377C20.3278 31.5562 20.6388 32.2249 21.3323 32.5071C22.0244 32.7886 22.6797 32.5146 23.1039 32.2612C23.8404 31.8214 24.4525 31.2904 24.8698 30.5577C25.2866 29.8257 25.4464 29.0019 25.4663 28.0915L25.6156 21.2205C25.6247 20.8002 25.6293 20.59 25.499 20.4984C25.3686 20.4067 25.1832 20.4897 24.8124 20.6556L19.1825 23.1744Z" fill="#192741"/>
<path d="M12.2697 4.10637C11.4662 3.647 10.6698 3.36749 9.82227 3.37515C8.97304 3.38285 8.19479 3.6777 7.42652 4.1406C6.98538 4.40642 6.41708 4.87259 6.30475 5.65404C6.19262 6.43407 6.60169 7.06356 6.97082 7.47831L11.0404 11.9863C11.455 12.4457 11.6624 12.6753 11.9335 12.7016C12.2047 12.728 12.4491 12.5421 12.9381 12.1706L17.9749 8.34281C18.3042 8.09256 18.4688 7.96745 18.4587 7.80297C18.4485 7.63851 18.27 7.53638 17.9125 7.33209L12.2697 4.10637Z" fill="#192741"/>
</g>
</svg>
