<svg width="36" height="36" viewBox="0 0 36 36" fill="none" xmlns="http://www.w3.org/2000/svg">
<path opacity="0.4" d="M15.2715 4.87695C16.221 4.87689 17.0489 4.87683 17.7137 4.97023C19.9163 5.27968 20.5268 7.03399 20.6106 9.0022H21.732C22.6572 9.00216 23.4576 9.00213 24.1277 9.06847C24.8487 9.13987 25.5263 9.29559 26.1852 9.66867C26.8391 10.0389 27.3296 10.5411 27.779 11.1231C28.2026 11.6715 28.6502 12.3731 29.1764 13.1982C29.8085 14.1891 30.5684 15.0511 31.5417 15.7188C32.9001 16.6504 33.941 18.0339 34.0844 19.7109L34.125 21.537C34.125 22.4116 34.1252 23.1678 34.0514 23.7756C33.8906 25.102 33.153 25.9941 32.0163 26.3851C31.6637 26.5065 31.4873 26.5672 31.313 26.472C31.1387 26.3767 31.0808 26.1393 30.9647 25.6642C30.3641 23.2041 28.1453 21.378 25.5 21.378C22.8113 21.378 20.5632 23.2642 20.007 25.7857C19.9139 26.2083 19.8672 26.4195 19.7438 26.5186C19.6203 26.6179 19.4291 26.6179 19.0467 26.6179H16.9533C16.571 26.6179 16.3797 26.6179 16.2563 26.5186C16.1328 26.4195 16.0862 26.2083 15.993 25.7857C15.4368 23.2642 13.1887 21.378 10.5 21.378C7.76391 21.378 5.48409 23.3314 4.97919 25.9198C4.91841 26.2314 4.88802 26.3872 4.77954 26.4564C4.67108 26.5257 4.54043 26.4933 4.27914 26.4286C3.7406 26.2955 3.24368 26.0572 2.81757 25.612C2.26749 25.0372 2.05673 24.3346 1.96301 23.6062C1.87493 22.9216 1.87496 22.0656 1.875 21.0667V10.4282C1.87496 9.42933 1.87493 8.57319 1.96301 7.88859C2.05673 7.16017 2.26749 6.45766 2.81757 5.88285C3.37431 5.30106 4.06622 5.07139 4.78632 4.97023C5.61755 4.85344 6.46722 4.87692 7.30436 4.87695H15.2715Z" fill="#192741"/>
<path fill-rule="evenodd" clip-rule="evenodd" d="M21.5069 12.135C21.5955 12.0033 21.797 12.0024 22.2 12.0005C22.7456 11.9979 23.2914 12.0038 23.8328 12.0574C24.5474 12.1281 24.9683 12.3943 25.4055 12.9605C25.7367 13.3892 26.1123 13.9754 26.6823 14.869C26.889 15.1931 27.1002 15.4988 27.32 15.7889C27.7002 16.2909 27.8904 16.542 27.8076 16.7084C27.7248 16.8749 27.4238 16.8749 26.8215 16.8749H26.5629C25.5545 16.8749 24.8888 16.8734 24.3771 16.8171C23.6522 16.7376 23.2452 16.4624 22.9019 15.819C22.6598 15.3651 22.4111 14.7479 22.0365 13.812L21.6431 12.8286C21.4931 12.454 21.4181 12.2666 21.5069 12.135Z" fill="#192741"/>
<path d="M25.5 30.75C27.5711 30.75 29.25 29.0711 29.25 27C29.25 24.9289 27.5711 23.25 25.5 23.25C23.4289 23.25 21.75 24.9289 21.75 27C21.75 29.0711 23.4289 30.75 25.5 30.75Z" fill="#192741"/>
<path d="M10.5 30.75C12.5711 30.75 14.25 29.0711 14.25 27C14.25 24.9289 12.5711 23.25 10.5 23.25C8.42893 23.25 6.75 24.9289 6.75 27C6.75 29.0711 8.42893 30.75 10.5 30.75Z" fill="#192741"/>
</svg>
