<svg width="36" height="36" viewBox="0 0 36 36" fill="none" xmlns="http://www.w3.org/2000/svg">
<path opacity="0.4" d="M13.6165 3.64257C16.0981 1.28581 19.9019 1.28581 22.3834 3.64257C24.3034 5.46596 26.6561 7.97934 28.5356 10.8623C30.4067 13.7324 31.875 17.0696 31.875 20.517C31.875 27.2189 26.6139 34.125 18 34.125C9.38616 34.125 4.125 27.2189 4.125 20.517C4.125 17.0696 5.59338 13.7324 7.46442 10.8623C9.34391 7.97934 11.6965 5.46596 13.6165 3.64257Z" fill="#192741"/>
<path fill-rule="evenodd" clip-rule="evenodd" d="M18 25.5C20.4854 25.5 22.5 23.4854 22.5 21C22.5 20.1716 23.1715 19.5 24 19.5C24.8285 19.5 25.5 20.1716 25.5 21C25.5 25.1421 22.1421 28.5 18 28.5C17.1716 28.5 16.5 27.8285 16.5 27C16.5 26.1715 17.1716 25.5 18 25.5Z" fill="#192741"/>
</svg>
