<svg width="36" height="36" viewBox="0 0 36 36" fill="none" xmlns="http://www.w3.org/2000/svg">
<path d="M9.75008 12C9.1007 12.0064 8.47094 12.2234 7.9554 12.6183C7.43986 13.0132 7.06639 13.5647 6.89108 14.19L3.15008 27.75C3.03668 28.1889 3.02421 28.6477 3.1136 29.0921C3.20299 29.5365 3.39193 29.9549 3.6662 30.3157C3.94048 30.6766 4.29297 30.9707 4.69719 31.1758C5.10142 31.3809 5.54687 31.4917 6.00008 31.5H30.0001C30.4631 31.4998 30.9198 31.3925 31.3344 31.1864C31.749 30.9803 32.1103 30.681 32.3899 30.312C32.6696 29.943 32.86 29.5143 32.9464 29.0594C33.0327 28.6045 33.0126 28.1358 32.8876 27.69L29.1001 14.25C28.9349 13.6101 28.563 13.0427 28.0422 12.6358C27.5215 12.229 26.8809 12.0055 26.2201 12H9.75008Z" stroke="#192741" stroke-width="2" stroke-linecap="round" stroke-linejoin="round"/>
<path opacity="0.3" d="M12 22.5C12.3493 22.0343 12.8022 21.6563 13.3229 21.3959C13.8437 21.1355 14.4178 21 15 21C15.5822 21 16.1563 21.1355 16.6771 21.3959C17.1978 21.6563 17.6507 22.0343 18 22.5C18.3493 22.9657 18.8022 23.3437 19.3229 23.6041C19.8437 23.8645 20.4178 24 21 24C21.5822 24 22.1563 23.8645 22.6771 23.6041C23.1978 23.3437 23.6507 22.9657 24 22.5" stroke="#192741" stroke-width="2" stroke-linecap="round" stroke-linejoin="round"/>
<path d="M18 12C20.4853 12 22.5 9.98528 22.5 7.5C22.5 5.01472 20.4853 3 18 3C15.5147 3 13.5 5.01472 13.5 7.5C13.5 9.98528 15.5147 12 18 12Z" stroke="#192741" stroke-width="2" stroke-linecap="round" stroke-linejoin="round"/>
</svg>
