<svg width="36" height="36" viewBox="0 0 36 36" fill="none" xmlns="http://www.w3.org/2000/svg">
<path d="M4.50108 18.5996C4.15108 18.8496 3.77608 18.9496 3.37608 18.8996C2.97608 18.8496 2.65108 18.6496 2.40108 18.2996C2.15108 17.9496 2.05758 17.5746 2.12058 17.1746C2.18358 16.7746 2.37708 16.4496 2.70108 16.1996L16.1636 5.88711C16.4386 5.68711 16.7326 5.53711 17.0456 5.43711C17.3586 5.33711 17.6771 5.28711 18.0011 5.28711C18.3251 5.28711 18.6441 5.33711 18.9581 5.43711C19.2721 5.53711 19.5656 5.68711 19.8386 5.88711L24.0011 9.07461V8.24961C24.0011 7.62461 24.2201 7.09361 24.6581 6.65661C25.0961 6.21961 25.6271 6.00061 26.2511 5.99961C26.8751 5.99861 27.4066 6.21761 27.8456 6.65661C28.2846 7.09561 28.5031 7.62661 28.5011 8.24961V12.5246L33.3386 16.1996C33.6636 16.4496 33.8511 16.7746 33.9011 17.1746C33.9511 17.5746 33.8511 17.9496 33.6011 18.2996C33.3511 18.6496 33.0261 18.8496 32.6261 18.8996C32.2261 18.9496 31.8511 18.8496 31.5011 18.5996L18.0011 8.28711L4.50108 18.5996Z" fill="#192741"/>
<path opacity="0.3" fill-rule="evenodd" clip-rule="evenodd" d="M14.382 29.1195C14.969 29.7065 15.675 30 16.5 30H19.5C20.326 30.001 21.0325 29.7075 21.6195 29.1195C22.2065 28.5315 22.5 27.825 22.5 27V24C22.501 23.176 22.2075 22.47 21.6195 21.882C21.0315 21.294 20.325 21 19.5 21H16.5C15.676 21.001 14.97 21.295 14.382 21.882C13.794 22.469 13.5 23.175 13.5 24V27C13.501 27.826 13.795 28.5325 14.382 29.1195ZM16.5 27H19.5V24H16.5V27Z" fill="#192741"/>
</svg>
