<svg width="36" height="36" viewBox="0 0 36 36" fill="none" xmlns="http://www.w3.org/2000/svg">
<path opacity="0.3" d="M10.028 27.5625L14.8171 22.7734L13.2264 21.1826L8.43726 25.9717L7.54513 25.0796C7.33417 24.8687 7.04807 24.7502 6.74976 24.7502C6.45145 24.7502 6.16535 24.8687 5.95438 25.0796L1.45438 29.5796C1.24348 29.7906 1.125 30.0767 1.125 30.375C1.125 30.6733 1.24348 30.9594 1.45438 31.1704L4.82938 34.5454C5.04035 34.7563 5.32645 34.8748 5.62476 34.8748C5.92307 34.8748 6.20917 34.7563 6.42013 34.5454L10.9201 30.0454C11.131 29.8344 11.2495 29.5483 11.2495 29.25C11.2495 28.9517 11.131 28.6656 10.9201 28.4546L10.028 27.5625ZM5.62476 32.1592L3.84051 30.375L6.74976 27.4657L8.53401 29.25L5.62476 32.1592Z" fill="#192741"/>
<path d="M26.9999 33.7505C25.2103 33.7484 23.4946 33.0365 22.2292 31.7711C20.9638 30.5057 20.252 28.79 20.2499 27.0005C20.2498 26.4123 20.3293 25.8269 20.4861 25.2601L10.7414 15.5142C10.1736 15.6685 9.58819 15.7479 8.99987 15.7505C7.9001 15.7549 6.81605 15.4894 5.84275 14.9773C4.86946 14.4653 4.03664 13.7223 3.41733 12.8134C2.79801 11.9046 2.4111 10.8577 2.29053 9.7646C2.16995 8.67145 2.31939 7.56541 2.72575 6.54346L3.3535 4.94484L7.0795 8.67084C7.29366 8.87562 7.57856 8.98991 7.87487 8.98991C8.17119 8.98991 8.45608 8.87562 8.67025 8.67084C8.88115 8.45987 8.99963 8.17377 8.99963 7.87546C8.99963 7.57715 8.88115 7.29106 8.67025 7.08009L4.942 3.35184L6.54287 2.72521C7.56492 2.31911 8.67098 2.1699 9.7641 2.29066C10.8572 2.41141 11.904 2.79845 12.8128 3.41784C13.7216 4.03723 14.4646 4.87007 14.9766 5.84337C15.4887 6.81666 15.7542 7.9007 15.7499 9.00046C15.7499 9.58858 15.6704 10.174 15.5136 10.7408L25.2595 20.4867C25.8269 20.3325 26.4119 20.2531 26.9999 20.2505C28.0996 20.2461 29.1837 20.5115 30.157 21.0236C31.1303 21.5357 31.9631 22.2787 32.5824 23.1875C33.2017 24.0963 33.5886 25.1432 33.7092 26.2363C33.8298 27.3295 33.6803 28.4355 33.274 29.4575L32.6474 31.0561L28.9202 27.3301C28.7061 27.1256 28.4215 27.0115 28.1254 27.0115C27.8294 27.0115 27.5447 27.1256 27.3306 27.3301C27.1196 27.5409 27.0009 27.8269 27.0007 28.1252C27.0005 28.4235 27.1187 28.7097 27.3295 28.9208L31.0566 32.648L29.4569 33.2757C28.6746 33.5857 27.8413 33.7467 26.9999 33.7505ZM11.3207 12.911L23.0882 24.6807L22.8194 25.3658C22.5559 26.0245 22.4529 26.7364 22.5189 27.4428C22.5849 28.1491 22.818 28.8296 23.1989 29.4281C23.5799 30.0265 24.0977 30.5258 24.7097 30.8846C25.3218 31.2433 26.0103 31.4514 26.7186 31.4915L25.7387 30.5127C25.4253 30.1993 25.1766 29.8272 25.007 29.4177C24.8373 29.0082 24.75 28.5693 24.75 28.126C24.75 27.6828 24.8373 27.2438 25.007 26.8343C25.1766 26.4248 25.4253 26.0527 25.7387 25.7393C26.3814 25.1249 27.2363 24.782 28.1254 24.782C29.0146 24.782 29.8694 25.1249 30.5121 25.7393L31.4909 26.7192C31.4506 26.0109 31.2424 25.3223 30.8835 24.7103C30.5246 24.0983 30.0252 23.5805 29.4267 23.1996C28.8282 22.8186 28.1476 22.5855 27.4412 22.5195C26.7348 22.4535 26.0229 22.5565 25.3641 22.82L24.679 23.0888L12.9115 11.3213L13.1815 10.6351C13.4447 9.97632 13.5475 9.26438 13.4813 8.55805C13.4152 7.85172 13.1819 7.17127 12.8009 6.57286C12.4199 5.97444 11.902 5.47524 11.29 5.11647C10.678 4.75769 9.9894 4.54963 9.28112 4.50946L10.2599 5.48821C10.5733 5.80162 10.822 6.1737 10.9916 6.58321C11.1613 6.99272 11.2486 7.43164 11.2486 7.8749C11.2486 8.31816 11.1613 8.75708 10.9916 9.16659C10.822 9.5761 10.5733 9.94818 10.2599 10.2616C9.61719 10.876 8.76231 11.2189 7.87318 11.2189C6.98405 11.2189 6.12917 10.876 5.4865 10.2616L4.50775 9.28171C4.54784 9.99 4.75587 10.6786 5.11466 11.2906C5.47344 11.9026 5.97268 12.4205 6.57114 12.8014C7.1696 13.1823 7.8501 13.4154 8.55645 13.4814C9.26279 13.5474 9.9747 13.4444 10.6334 13.181L11.3207 12.911Z" fill="#192741"/>
<path opacity="0.3" d="M32.7626 3.20635C32.1199 2.59193 31.265 2.24902 30.3759 2.24902C29.4868 2.24902 28.6319 2.59193 27.9892 3.20635L19.5742 11.6214L21.165 13.2121L29.58 4.7971C29.7943 4.59258 30.0791 4.47846 30.3753 4.47846C30.6716 4.47846 30.9564 4.59258 31.1707 4.7971C31.3816 5.00807 31.5001 5.29417 31.5001 5.59248C31.5001 5.89079 31.3816 6.17689 31.1707 6.38785L22.7557 14.8029L24.3465 16.3947L32.7615 7.97973C33.3937 7.34634 33.7488 6.48797 33.7488 5.59304C33.7488 4.69811 33.3948 3.83974 32.7626 3.20635Z" fill="#192741"/>
</svg>
