<svg width="36" height="36" viewBox="0 0 36 36" fill="none" xmlns="http://www.w3.org/2000/svg">
<circle opacity="0.3" cx="4.5" cy="4.5" r="4.5" transform="matrix(-1 0 0 1 22.5 13.5)" stroke="#192741" stroke-width="2.25"/>
<path d="M17.998 3L17.9981 1.875H17.998V3ZM24.7451 7.40625L24.1826 8.38052L24.1826 8.38053L24.7451 7.40625ZM24.7451 28.5938L24.1826 27.6195L24.1826 27.6195L24.7451 28.5938ZM17.998 33V34.125H17.9981L17.998 33ZM11.2451 28.5938L11.8076 27.6195L11.8076 27.6195L11.2451 28.5938ZM11.2451 7.40625L11.8076 8.38054L11.8076 8.38053L11.2451 7.40625ZM13.3776 4.52377L12.2815 4.27027L13.3776 4.52377ZM4.35799 14.5264L5.07343 13.6582L4.35799 14.5264ZM7.96514 28.1101L7.70747 27.015L7.96514 28.1101ZM6.6025 27.754L5.74812 28.4859L6.6025 27.754ZM14.301 32.5398L14.0243 33.6303L14.301 32.5398ZM13.3775 31.4754L12.2814 31.7291L13.3775 31.4754ZM22.6117 31.4766L21.5157 31.223L22.6117 31.4766ZM21.6874 32.5416L21.4112 31.451L21.6874 32.5416ZM29.39 27.7559L28.5359 27.0238L29.39 27.7559ZM28.027 28.1115L27.7685 29.2064L28.027 28.1115ZM32.1622 13.0559L31.1 13.4266L32.1622 13.0559ZM31.6373 14.5265L30.9217 13.6584L31.6373 14.5265ZM3.83286 22.943L4.89509 22.5725L3.83286 22.943ZM4.35786 21.4727L3.64251 20.6044L4.35786 21.4727ZM29.39 8.24309L30.2442 7.51094L29.39 8.24309ZM6.60351 8.24386L5.74922 7.51186L6.60351 8.24386ZM31.6374 21.4726L30.9219 22.3408L31.6374 21.4726ZM32.1623 22.9429L31.1 22.5724L32.1623 22.9429ZM21.6872 3.45748L21.9632 2.36684L21.6872 3.45748ZM22.6116 4.52263L23.7077 4.26921L22.6116 4.52263ZM17.998 3L17.998 4.125C19.1771 4.12502 20.3204 4.27211 21.4113 4.54811L21.6872 3.45748L21.9632 2.36684C20.6936 2.04563 19.365 1.87502 17.9981 1.875L17.998 3ZM22.6116 4.52263L21.5155 4.77606C21.8539 6.23967 22.7766 7.56871 24.1826 8.38052L24.7451 7.40625L25.3076 6.43198C24.4644 5.94511 23.9116 5.15104 23.7077 4.26921L22.6116 4.52263ZM24.7451 7.40625L24.1826 8.38053C25.4748 9.12657 26.9417 9.30018 28.2857 8.98255L28.027 7.88771L27.7683 6.79286C26.9592 6.98406 26.0828 6.87951 25.3076 6.43197L24.7451 7.40625ZM29.39 8.24309L28.5359 8.97524C29.6491 10.2739 30.5254 11.7798 31.1 13.4266L32.1622 13.0559L33.2244 12.6853C32.5558 10.7693 31.5368 9.01898 30.2442 7.51094L29.39 8.24309ZM31.6373 14.5265L30.9217 13.6584C29.6725 14.6882 28.873 16.2511 28.873 18H29.998H31.123C31.123 16.9514 31.5999 16.0153 32.3529 15.3946L31.6373 14.5265ZM29.998 18H28.873C28.873 19.749 29.6728 21.3113 30.9219 22.3408L31.6374 21.4726L32.3529 20.6045C31.5999 19.9838 31.123 19.0483 31.123 18H29.998ZM32.1623 22.9429L31.1 22.5724C30.5255 24.2191 29.6491 25.725 28.5359 27.0238L29.39 27.7559L30.2442 28.4881C31.5368 26.98 32.556 25.2297 33.2245 23.3135L32.1623 22.9429ZM28.027 28.1115L28.2854 27.0165C26.9412 26.6993 25.4744 26.8737 24.1826 27.6195L24.7451 28.5938L25.3076 29.568C26.083 29.1203 26.9597 29.0154 27.7685 29.2064L28.027 28.1115ZM24.7451 28.5938L24.1826 27.6195C22.7769 28.4311 21.8542 29.7596 21.5157 31.223L22.6117 31.4766L23.7077 31.7302C23.9117 30.8487 24.4645 30.0549 25.3077 29.568L24.7451 28.5938ZM21.6874 32.5416L21.4112 31.451C20.3201 31.7274 19.1769 31.875 17.998 31.875L17.998 33L17.9981 34.125C19.3655 34.125 20.6941 33.9536 21.9636 33.6322L21.6874 32.5416ZM17.998 33V31.875C16.8166 31.875 15.671 31.7268 14.5777 31.4494L14.301 32.5398L14.0243 33.6303C15.2962 33.953 16.6277 34.125 17.998 34.125V33ZM13.3775 31.4754L14.4735 31.2218C14.135 29.7591 13.2132 28.431 11.8076 27.6195L11.2451 28.5938L10.6826 29.568C11.5253 30.0545 12.0775 30.8477 12.2814 31.7291L13.3775 31.4754ZM11.2451 28.5938L11.8076 27.6195C10.517 26.8744 9.05134 26.6988 7.70747 27.015L7.96514 28.1101L8.22281 29.2052C9.03104 29.015 9.90734 29.1204 10.6826 29.568L11.2451 28.5938ZM6.6025 27.754L7.45688 27.0221C6.34473 25.7238 5.46922 24.2184 4.89509 22.5725L3.83286 22.943L2.77063 23.3136C3.43861 25.2286 4.45662 26.9783 5.74812 28.4859L6.6025 27.754ZM4.35786 21.4727L5.07321 22.341C6.32253 21.3117 7.12305 19.7494 7.12305 18H5.99805H4.87305C4.87305 19.0482 4.39595 19.9837 3.64251 20.6044L4.35786 21.4727ZM5.99805 18H7.12305C7.12305 16.2507 6.32287 14.6878 5.07343 13.6582L4.35799 14.5264L3.64255 15.3946C4.39591 16.0154 4.87305 16.9515 4.87305 18H5.99805ZM3.83296 13.0558L4.89517 13.4264C5.46953 11.7801 6.3453 10.2742 7.4578 8.97585L6.60351 8.24386L5.74922 7.51186C4.45721 9.01974 3.43894 10.7699 2.77074 12.6853L3.83296 13.0558ZM7.9659 7.8881L7.70772 8.98307C9.05087 9.29978 10.5164 9.12599 11.8076 8.38054L11.2451 7.40625L10.6826 6.43196C9.9081 6.87912 9.03259 6.98377 8.22409 6.79313L7.9659 7.8881ZM11.2451 7.40625L11.8076 8.38053C13.2135 7.56884 14.1353 6.24018 14.4736 4.77727L13.3776 4.52377L12.2815 4.27027C12.0776 5.15193 11.5253 5.94542 10.6826 6.43197L11.2451 7.40625ZM14.3012 3.45927L14.5776 4.54977C15.6707 4.27267 16.8164 4.125 17.998 4.125V3V1.875C16.6282 1.875 15.2968 2.04628 14.0247 2.36877L14.3012 3.45927ZM13.3776 4.52377L14.4736 4.77727C14.497 4.6763 14.5366 4.60508 14.5673 4.56774C14.5936 4.53566 14.5983 4.54452 14.5776 4.54977L14.3012 3.45927L14.0247 2.36877C12.9888 2.63139 12.4536 3.52599 12.2815 4.27027L13.3776 4.52377ZM4.35799 14.5264L5.07343 13.6582C4.9822 13.583 4.92916 13.5017 4.90789 13.4473C4.88999 13.4015 4.90315 13.4035 4.89517 13.4264L3.83296 13.0558L2.77074 12.6853C2.37213 13.8279 2.98984 14.8568 3.64255 15.3946L4.35799 14.5264ZM7.96514 28.1101L7.70747 27.015C7.60663 27.0387 7.52527 27.0348 7.47811 27.0238C7.43755 27.0143 7.44316 27.0061 7.45688 27.0221L6.6025 27.754L5.74812 28.4859C6.44234 29.2963 7.47975 29.38 8.22281 29.2052L7.96514 28.1101ZM14.301 32.5398L14.5777 31.4494C14.5983 31.4546 14.5936 31.4634 14.5672 31.4313C14.5364 31.3939 14.4969 31.3227 14.4735 31.2218L13.3775 31.4754L12.2814 31.7291C12.4537 32.4733 12.9888 33.3675 14.0243 33.6303L14.301 32.5398ZM22.6117 31.4766L21.5157 31.223C21.4923 31.3241 21.4526 31.3955 21.4218 31.4329C21.3953 31.4651 21.3906 31.4563 21.4112 31.451L21.6874 32.5416L21.9636 33.6322C23 33.3697 23.5355 32.4747 23.7077 31.7302L22.6117 31.4766ZM29.39 27.7559L28.5359 27.0238C28.5496 27.0078 28.5551 27.016 28.5146 27.0255C28.4675 27.0364 28.3862 27.0403 28.2854 27.0165L28.027 28.1115L27.7685 29.2064C28.5119 29.3818 29.5496 29.2984 30.2442 28.4881L29.39 27.7559ZM32.1622 13.0559L31.1 13.4266C31.092 13.4037 31.1051 13.4017 31.0872 13.4474C31.066 13.5018 31.0129 13.5832 30.9217 13.6584L31.6373 14.5265L32.3529 15.3946C33.0054 14.8567 33.623 13.8278 33.2244 12.6853L32.1622 13.0559ZM3.83286 22.943L4.89509 22.5725C4.90307 22.5954 4.88992 22.5974 4.90779 22.5517C4.92905 22.4974 4.98204 22.4161 5.07321 22.341L4.35786 21.4727L3.64251 20.6044C2.9897 21.1423 2.37211 22.1711 2.77063 23.3136L3.83286 22.943ZM28.027 7.88771L28.2857 8.98255C28.3864 8.95876 28.4676 8.96265 28.5147 8.9736C28.5552 8.98302 28.5496 8.99123 28.5359 8.97524L29.39 8.24309L30.2442 7.51094C29.5496 6.70057 28.5118 6.61716 27.7683 6.79286L28.027 7.88771ZM6.60351 8.24386L7.4578 8.97585C7.44409 8.99185 7.43847 8.98365 7.4789 8.97423C7.52592 8.96327 7.60711 8.95935 7.70772 8.98307L7.9659 7.8881L8.22409 6.79313C7.48076 6.61786 6.44343 6.70167 5.74922 7.51186L6.60351 8.24386ZM31.6374 21.4726L30.9219 22.3408C31.0131 22.4159 31.0661 22.4972 31.0873 22.5516C31.1052 22.5973 31.0921 22.5953 31.1 22.5724L32.1623 22.9429L33.2245 23.3135C33.623 22.1711 33.0055 21.1423 32.3529 20.6045L31.6374 21.4726ZM21.6872 3.45748L21.4113 4.54811C21.3905 4.54286 21.3953 4.53399 21.4217 4.56614C21.4525 4.60356 21.4921 4.67492 21.5155 4.77606L22.6116 4.52263L23.7077 4.26921C23.5355 3.52459 23 2.62917 21.9632 2.36684L21.6872 3.45748Z" fill="#192741"/>
</svg>
