<svg width="36" height="36" viewBox="0 0 36 36" fill="none" xmlns="http://www.w3.org/2000/svg">
<path d="M19.2 32.4C19.5803 32.6852 20.0229 32.876 20.4914 32.9566C20.9598 33.0372 21.4408 33.0053 21.8945 32.8635C22.3482 32.7218 22.7618 32.4743 23.1011 32.1414C23.4404 31.8084 23.6957 31.3996 23.8461 30.9487C23.9964 30.4977 24.0374 30.0175 23.9657 29.5476C23.894 29.0777 23.7117 28.6315 23.4337 28.2459C23.1558 27.8602 22.7902 27.5462 22.367 27.3296C21.9439 27.113 21.4754 27 21 27H3M26.25 15C26.6335 14.4886 27.1414 14.0838 27.7254 13.8239C28.3094 13.564 28.9501 13.4577 29.5868 13.5152C30.2234 13.5726 30.8348 13.7917 31.3629 14.1519C31.891 14.5121 32.3182 15.0012 32.6041 15.573C32.89 16.1447 33.0249 16.78 32.9962 17.4186C32.9675 18.0571 32.776 18.6777 32.4399 19.2215C32.1039 19.7652 31.6344 20.2141 31.0761 20.5253C30.5178 20.8366 29.8892 21 29.25 21H3" stroke="#192741" stroke-width="2" stroke-linecap="round" stroke-linejoin="round"/>
<path d="M15 3V15M15 15L9 9M15 15L21 9" stroke="#192741" stroke-opacity="0.3" stroke-width="2" stroke-linecap="round" stroke-linejoin="round"/>
</svg>
