<svg width="36" height="36" viewBox="0 0 36 36" fill="none" xmlns="http://www.w3.org/2000/svg">
<path fill-rule="evenodd" clip-rule="evenodd" d="M20.5568 1.9514C21.0266 2.05884 21.5124 2.2745 21.978 2.51217L28.5528 5.8692C29.3062 6.25391 29.9713 6.59339 30.4971 6.935C31.0676 7.30571 31.5788 7.74257 31.9602 8.3729C32.3406 9.00132 32.4925 9.65799 32.5614 10.3372C32.6251 10.9665 32.625 11.7223 32.625 12.5847V31.8751C32.625 32.7036 31.9534 33.3751 31.125 33.3751C30.2966 33.3751 29.625 32.7036 29.625 31.8751V12.6536C29.625 11.7022 29.6232 11.0996 29.5767 10.6394C29.5333 10.2122 29.4614 10.0381 29.3937 9.92622C29.3271 9.81623 29.2108 9.67695 28.8625 9.4506C28.4838 9.20454 27.9606 8.93532 27.1262 8.50923L20.625 5.18982V5.21816V10.8751H17.625V5.21816C17.625 4.70162 17.6511 4.17806 17.7586 3.71712C17.863 3.27042 18.1038 2.62439 18.7427 2.21096C19.3943 1.78925 20.0921 1.84509 20.5568 1.9514ZM9.375 19.5001V16.5001H6.375C6.03228 16.5001 5.65434 16.516 5.29522 16.5949C4.91913 16.6776 4.47476 16.8483 4.09896 17.224C3.72317 17.5999 3.55242 18.0442 3.4698 18.4204C3.3909 18.7795 3.375 19.1574 3.375 19.5001V31.5001C3.375 32.3286 4.04658 33.0001 4.875 33.0001C5.70342 33.0001 6.375 32.3286 6.375 31.5001V19.5001H9.375Z" fill="#ffffff"/>
<path opacity="0.4" d="M26.625 30.225V16.5C26.625 15.545 26.5767 14.7015 26.4192 13.9848C26.259 13.2555 25.9708 12.5876 25.4417 12.0584C24.9124 11.5292 24.2445 11.241 23.5152 11.0808C22.7985 10.9233 21.955 10.875 21 10.875H15C14.0449 10.875 13.2015 10.9233 12.4848 11.0808C11.7555 11.241 11.0876 11.5292 10.5584 12.0584C10.0292 12.5876 9.74101 13.2555 9.58078 13.9848C9.42334 14.7015 9.375 15.545 9.375 16.5V30.225V32.25H26.625V30.225Z" fill="#ffffff"/>
<path d="M3 31.125C2.17158 31.125 1.5 31.7966 1.5 32.625C1.5 33.4534 2.17158 34.125 3 34.125H33C33.8284 34.125 34.5 33.4534 34.5 32.625C34.5 31.7966 33.8284 31.125 33 31.125H3Z" fill="#ffffff"/>
<path fill-rule="evenodd" clip-rule="evenodd" d="M15.375 16.5C15.375 15.8787 15.8787 15.375 16.5 15.375H19.5C20.1213 15.375 20.625 15.8787 20.625 16.5C20.625 17.1213 20.1213 17.625 19.5 17.625H16.5C15.8787 17.625 15.375 17.1213 15.375 16.5ZM15.375 21C15.375 20.3787 15.8787 19.875 16.5 19.875H19.5C20.1213 19.875 20.625 20.3787 20.625 21C20.625 21.6213 20.1213 22.125 19.5 22.125H16.5C15.8787 22.125 15.375 21.6213 15.375 21ZM15.375 25.5C15.375 24.8787 15.8787 24.375 16.5 24.375H19.5C20.1213 24.375 20.625 24.8787 20.625 25.5C20.625 26.1213 20.1213 26.625 19.5 26.625H16.5C15.8787 26.625 15.375 26.1213 15.375 25.5Z" fill="#ffffff"/>
</svg>
