<svg width="24" height="24" viewBox="0 0 24 24" fill="none" xmlns="http://www.w3.org/2000/svg">
    <path d="M15.384 11.7238H5.63465V7.74895H15.384C15.9535 7.74895 16.3494 7.85122 16.5482 8.02981C16.7469 8.20841 16.87 8.53964 16.87 9.02352V10.4508C16.87 10.9606 16.7469 11.2918 16.5482 11.4704C16.3494 11.649 15.9535 11.7253 15.384 11.7253V11.7238ZM16.0529 4.00153H1.5V21H5.63465V15.4697H13.2544L16.87 21H21.5L17.5137 15.4438C18.9833 15.2194 19.6432 14.7553 20.1875 13.9906C20.7318 13.2258 21.0047 12.0031 21.0047 10.3714V9.09678C21.0047 8.12903 20.9053 7.36428 20.7318 6.77813C20.5582 6.19197 20.2616 5.68213 19.8404 5.22421C19.3956 4.79069 18.9003 4.48541 18.3056 4.28086C17.7109 4.10226 16.9678 4 16.0529 4V4.00153Z" fill="#8D8D8D"/>
</svg>
