<svg width="24" height="24" viewBox="0 0 24 24" fill="none" xmlns="http://www.w3.org/2000/svg">
    <path fill-rule="evenodd" clip-rule="evenodd" d="M12.1934 20.9098C10.4269 20.9098 9.606 20.652 8.17907 19.6204C7.27649 20.7809 4.41833 21.6878 4.29369 20.1362C4.29369 18.9714 4.03581 17.9872 3.74355 16.9127C3.39541 15.5889 3 14.1147 3 11.9786C3 6.87692 7.18623 3.03882 12.1461 3.03882C17.1103 3.03882 20.9999 7.06603 20.9999 12.0259C21.008 14.3711 20.0852 16.6237 18.4341 18.2893C16.783 19.9549 14.5386 20.8973 12.1934 20.9098ZM12.2664 7.44855C9.85098 7.32391 7.96847 8.99582 7.55156 11.6176C7.20772 13.7881 7.81804 16.4313 8.33809 16.5689C8.58738 16.629 9.21488 16.1219 9.606 15.7308C10.2527 16.1775 11.0058 16.4459 11.7894 16.5087C12.9925 16.5666 14.1703 16.1501 15.0696 15.3488C15.969 14.5475 16.518 13.4254 16.5988 12.2236C16.6458 11.0193 16.2182 9.8447 15.408 8.95248C14.5978 8.06026 13.4697 7.52176 12.2664 7.45285V7.44855Z" fill="#8D8D8D"/>
</svg>
