<svg width="24" height="24" viewBox="0 0 24 24" fill="none" xmlns="http://www.w3.org/2000/svg">
  <path opacity="0.4" fill-rule="evenodd" clip-rule="evenodd" d="M3.02351 14.0013C3.55301 13.9732 4.00412 14.3976 4.03108 14.9492C4.10354 16.4315 4.17507 17.4635 4.34098 18.2399C4.49954 18.9819 4.72544 19.394 5.05308 19.698C5.41548 20.0343 5.9219 20.2557 6.85727 20.3756C7.81408 20.4983 9.07481 20.5 10.8735 20.5H12.5513C14.3498 20.5 15.6106 20.4983 16.5674 20.3756C17.5027 20.2557 18.0091 20.0343 18.3715 19.698C18.6992 19.394 18.9251 18.9819 19.0837 18.2399C19.2496 17.4635 19.3211 16.4315 19.3936 14.9492C19.4205 14.3976 19.8716 13.9732 20.4012 14.0013C20.9306 14.0294 21.338 14.4993 21.3111 15.0509C21.2402 16.501 21.165 17.7049 20.9578 18.6744C20.7433 19.6783 20.3698 20.5223 19.6487 21.1914C18.8739 21.9104 17.9248 22.2167 16.8018 22.3606C15.7141 22.5001 14.3348 22.5001 12.6158 22.5H10.809C9.08979 22.5001 7.71058 22.5001 6.62277 22.3606C5.49994 22.2167 4.55079 21.9104 3.77594 21.1914C3.05489 20.5223 2.68136 19.6783 2.46684 18.6744C2.25967 17.7049 2.18446 16.501 2.11357 15.0509C2.0866 14.4993 2.494 14.0294 3.02351 14.0013Z" fill="#192741" />
  <path d="M2.0945 7.40879C2.43732 6.32293 3.26302 5.25 4.65407 5.25H18.7699C20.1609 5.25 20.9866 6.32292 21.3294 7.40879C21.6696 8.486 21.6308 9.81185 21.1359 10.7921C19.5975 13.8395 16.4697 15.2869 13.3573 15.6539C13.1928 15.6733 13.0475 15.7763 12.9734 15.9306L12.6211 16.6646C12.4489 17.0234 12.0968 17.25 11.7118 17.25C11.3267 17.25 10.9747 17.0234 10.8025 16.6646L10.4502 15.9305C10.376 15.7762 10.2308 15.6732 10.0662 15.6538C6.95398 15.2868 3.82638 13.8393 2.28803 10.7921C1.79314 9.81185 1.75442 8.486 2.0945 7.40879Z" fill="#192741" />
  <path fill-rule="evenodd" clip-rule="evenodd" d="M11.5441 1.5C11.6566 1.50001 11.7696 1.50001 11.8815 1.5C12.5009 1.49995 13.0567 1.49989 13.5174 1.56382C14.027 1.63451 14.5135 1.79327 14.9494 2.17507C15.3727 2.54582 15.6254 3.02008 15.8217 3.53295C16.0083 4.02046 16.1779 4.63914 16.3779 5.36828L16.4758 5.72529L14.6297 6.27473L14.545 5.96567C14.3282 5.17561 14.1844 4.6557 14.0382 4.27373C13.8976 3.90647 13.7933 3.7755 13.7137 3.70581C13.6468 3.64718 13.548 3.58572 13.264 3.54631C12.9449 3.50205 12.5186 3.50001 11.825 3.50001H11.6005C10.9069 3.50001 10.4806 3.50205 10.1616 3.54631C9.87755 3.58572 9.77877 3.64718 9.71186 3.70581C9.63227 3.7755 9.52792 3.90647 9.38733 4.27373C9.24111 4.6557 9.0973 5.17561 8.8806 5.96567L8.79583 6.27473L6.94971 5.72529C6.98235 5.60629 7.01499 5.48729 7.04763 5.3683C7.24759 4.63915 7.41727 4.02046 7.60389 3.53295C7.80022 3.02008 8.05288 2.54582 8.47614 2.17507C8.91202 1.79327 9.39861 1.63451 9.90808 1.56382C10.3689 1.49989 10.9246 1.49995 11.5441 1.5Z" fill="#192741" />
</svg>