<svg width="24" height="24" viewBox="0 0 24 24" fill="none" xmlns="http://www.w3.org/2000/svg">
  <path opacity="0.4" d="M7.75881 2.81806C8.95094 2.22515 10.3178 1.67993 11.999 1.67993C13.6803 1.67993 15.0477 2.22516 16.2405 2.81805C16.6008 2.99717 16.9356 3.17435 17.2555 3.34369C18.0386 3.75812 18.7327 4.12547 19.4946 4.35875C19.9419 4.49568 20.3381 4.61697 20.619 4.72261C20.8835 4.82205 21.1977 4.95832 21.4207 5.1962C21.621 5.40989 21.7239 5.64981 21.7922 5.8793C21.8541 6.08761 21.9071 6.36968 21.9579 6.64025C23.1962 13.231 20.4919 19.4754 13.8816 21.9051C13.2319 22.144 12.7534 22.3199 12.0023 22.3199C11.2513 22.3199 10.7727 22.144 10.123 21.9051C3.51252 19.4755 0.805525 13.2313 2.04347 6.6403C2.09425 6.36975 2.14719 6.08775 2.20912 5.87945C2.27734 5.64998 2.38023 5.41009 2.58051 5.1964C2.80348 4.95852 3.11772 4.82221 3.38214 4.72275C3.66307 4.61706 4.05929 4.49571 4.50658 4.35871C5.26815 4.12544 5.96162 3.7582 6.74407 3.34382C7.06387 3.17447 7.39856 2.99722 7.75881 2.81806Z" fill="#192741" />
  <path d="M17.9426 8.79968C18.127 9.29945 17.8544 9.84807 17.3338 10.0251C16.8002 10.2065 16.1837 10.5972 15.5307 11.1469C14.888 11.688 14.2628 12.3379 13.7091 12.9752C13.1572 13.6102 12.6885 14.2186 12.3574 14.6688C12.1922 14.8934 11.8441 15.3949 11.8441 15.3949C11.6508 15.6869 11.3087 15.8566 10.9489 15.8389C10.5889 15.8212 10.2668 15.6189 10.1056 15.3095C9.66489 14.4634 9.11042 13.9342 8.90638 13.916C8.39799 13.8707 8 13.4601 8 12.9602C8 12.43 8.44772 12.0002 9 12.0002C9.55228 12.0002 9.9053 12.2258 10.1797 12.4014C10.454 12.577 10.7416 12.8196 11.0304 13.1516C11.3456 12.7381 11.734 12.2508 12.1733 11.7452C12.7666 11.0625 13.465 10.3323 14.212 9.7034C14.9486 9.08323 15.788 8.51381 16.6662 8.21525C17.1868 8.03825 17.7582 8.29991 17.9426 8.79968Z" fill="#192741" />
</svg>