<svg width="24" height="24" viewBox="0 0 24 24" fill="none" xmlns="http://www.w3.org/2000/svg">
  <path opacity="0.4" fill-rule="evenodd" clip-rule="evenodd" d="M3.44914 2.79289C3.07424 3.18342 3.07424 3.81658 3.44914 4.20711L9.68915 10.7071C10.064 11.0976 10.6719 11.0976 11.0468 10.7071C11.4217 10.3166 11.4217 9.68342 11.0468 9.29289L4.80679 2.79289C4.43189 2.40237 3.82405 2.40237 3.44914 2.79289Z" fill="#192741" />
  <path opacity="0.4" fill-rule="evenodd" clip-rule="evenodd" d="M3.44914 21.2071C3.07424 20.8166 3.07424 20.1834 3.44914 19.7929L9.68915 13.2929C10.064 12.9024 10.6719 12.9024 11.0468 13.2929C11.4217 13.6834 11.4217 14.3166 11.0468 14.7071L4.80679 21.2071C4.43189 21.5976 3.82405 21.5976 3.44914 21.2071Z" fill="#192741" />
  <path opacity="0.4" fill-rule="evenodd" clip-rule="evenodd" d="M21.1268 2.79289C21.5017 3.18342 21.5017 3.81658 21.1268 4.20711L14.8868 10.7071C14.512 11.0976 13.9041 11.0976 13.5292 10.7071C13.1543 10.3166 13.1543 9.68342 13.5292 9.29289L19.7692 2.79289C20.1441 2.40237 20.752 2.40237 21.1268 2.79289Z" fill="#192741" />
  <path opacity="0.4" fill-rule="evenodd" clip-rule="evenodd" d="M21.1268 21.2071C21.5017 20.8166 21.5017 20.1834 21.1268 19.7929L14.8868 13.2929C14.512 12.9024 13.9041 12.9024 13.5292 13.2929C13.1543 13.6834 13.1543 14.3166 13.5292 14.7071L19.7692 21.2071C20.1441 21.5976 20.752 21.5976 21.1268 21.2071Z" fill="#192741" />
  <path d="M4.57021 2.00002L8.44802 2.00003C8.83631 2.00003 9.18635 2.24368 9.33494 2.61735C9.48353 2.99102 9.4014 3.42114 9.12684 3.70714L4.32684 8.70714C4.05228 8.99314 3.63937 9.07869 3.28064 8.92391C2.92192 8.76913 2.68802 8.4045 2.68802 8.00003L2.68801 3.96065C2.68788 3.76078 2.68774 3.52281 2.71416 3.31815C2.74604 3.0711 2.83139 2.72937 3.10978 2.43937C3.38818 2.14938 3.71624 2.06047 3.95341 2.02726C4.14988 1.99974 4.37834 1.99989 4.57021 2.00002Z" fill="#192741" />
  <path d="M20.0057 2.00002L16.128 2.00003C15.7397 2.00003 15.3897 2.24368 15.2411 2.61735C15.0925 2.99102 15.1746 3.42114 15.4492 3.70714L20.2492 8.70714C20.5238 8.99314 20.9367 9.07869 21.2953 8.92391C21.6541 8.76913 21.888 8.4045 21.888 8.00003V3.96065C21.8881 3.76078 21.8883 3.52281 21.8618 3.31815C21.8299 3.0711 21.7446 2.72937 21.4662 2.43937C21.1878 2.14938 20.8598 2.06047 20.6225 2.02726C20.4261 1.99974 20.1976 1.99989 20.0057 2.00002Z" fill="#192741" />
  <path d="M3.28064 15.0761C3.63937 14.9214 4.05228 15.0069 4.32684 15.2929L9.12684 20.2929C9.4014 20.5789 9.48353 21.009 9.33494 21.3827C9.18635 21.7564 8.83631 22 8.44802 22H4.57021C4.37834 22.0002 4.14988 22.0003 3.95341 21.9728C3.71624 21.9396 3.38818 21.8507 3.10978 21.5607C2.83139 21.2707 2.74604 20.929 2.71416 20.6819C2.68774 20.4773 2.68788 20.2393 2.68801 20.0394L2.68802 16C2.68802 15.5956 2.92192 15.2309 3.28064 15.0761Z" fill="#192741" />
  <path d="M21.2954 15.0761C21.6541 15.2309 21.888 15.5956 21.888 16V20.0394C21.8882 20.2393 21.8883 20.4773 21.8619 20.6819C21.83 20.929 21.7446 21.2707 21.4662 21.5607C21.1878 21.8507 20.8598 21.9396 20.6226 21.9728C20.4262 22.0003 20.1977 22.0002 20.0058 22H16.128C15.7398 22 15.3896 21.7564 15.241 21.3827C15.0925 21.009 15.1746 20.5789 15.4492 20.2929L20.2492 15.2929C20.5237 15.0069 20.9366 14.9214 21.2954 15.0761Z" fill="#192741" />
</svg>