<svg width="36" height="36" viewBox="0 0 36 36" fill="none" xmlns="http://www.w3.org/2000/svg">
  <path d="M30.1694 23.4278C31.6638 24.1801 31.7118 26.3096 30.2528 27.1294L21.3787 32.1151C19.2787 33.295 16.7213 33.295 14.6213 32.1151L5.8767 27.2021C4.39259 26.3683 4.47437 24.1916 6.01679 23.4731M21.3787 17.7168L30.4336 12.6294C31.8555 11.8306 31.8555 9.77108 30.4336 8.97224L21.3787 3.88489C19.2787 2.70504 16.7213 2.70503 14.6213 3.88489L5.56639 8.97223C4.14454 9.77107 4.14454 11.8306 5.56639 12.6294L14.6213 17.7168C16.7213 18.8966 19.2787 18.8966 21.3787 17.7168Z" stroke="#192741" stroke-width="2.25" stroke-linecap="round" />
  <path opacity="0.3" d="M30.4336 16.3901C31.8555 17.189 31.8555 19.2485 30.4336 20.0473L21.3787 25.1347C19.2787 26.3145 16.7213 26.3145 14.6213 25.1347L5.56639 20.0473C4.14454 19.2485 4.14454 17.189 5.56639 16.3901" stroke="#192741" stroke-width="2.25" stroke-linecap="round" />
</svg>