<svg width="849" height="768" viewBox="0 0 849 768" fill="none" xmlns="http://www.w3.org/2000/svg">
  <path d="M538.664 0H383.842L383.152 19.4326C381.544 62.0187 371.666 102.331 353.979 139.129C334.455 180.061 306.66 216.238 271.514 246.834C236.369 277.43 194.562 301.618 147.472 318.776C108.652 332.835 65.9261 341.104 21.1331 343.585L0 344.824V484.574H310.336V768H465.158L465.846 748.568C467.456 705.983 477.331 665.669 495.018 628.871C514.545 587.94 542.34 551.763 577.483 520.96C612.629 490.364 654.436 466.176 701.526 449.018C740.347 434.959 783.074 426.691 827.866 424.209L849 422.97V283.221H538.664V0Z" fill="#1B2B48" />
</svg>