<svg width="512" height="512" viewBox="0 0 512 512" fill="none" xmlns="http://www.w3.org/2000/svg">
<path d="M324.848 0H231.481L231.064 12.9551C230.095 41.3458 224.138 68.2208 213.471 92.7527C201.697 120.041 184.935 144.159 163.74 164.556C142.545 184.954 117.333 201.079 88.9349 212.518C65.5237 221.89 39.7575 227.403 12.7446 229.057L0 229.883V323.049H187.152V512H280.519L280.934 499.045C281.905 470.655 287.86 443.779 298.527 419.248C310.303 391.96 327.065 367.842 348.258 347.307C369.454 326.909 394.666 310.784 423.064 299.345C446.476 289.973 472.242 284.46 499.255 282.806L512 281.98V188.814H324.848V0Z" fill="#1B2B48"/>
</svg>
