<svg width="127" height="28" viewBox="0 0 127 28" fill="none" xmlns="http://www.w3.org/2000/svg">
  <path d="M15.3126 1.52017H10.9114L10.8918 2.13184C10.8461 3.4723 10.5653 4.7412 10.0625 5.89946C9.50752 7.18787 8.7174 8.32659 7.71831 9.28964C6.71924 10.2527 5.5308 11.014 4.19218 11.5541C3.08863 11.9966 1.87407 12.2569 0.600749 12.335L0 12.374V16.7728H8.82188V25.6941H13.223L13.2426 25.0824C13.2883 23.742 13.569 22.4731 14.0718 21.3148C14.6269 20.0264 15.4171 18.8877 16.4161 17.9181C17.4152 16.9551 18.6036 16.1937 19.9422 15.6537C21.0458 15.2111 22.2604 14.9509 23.5337 14.8728L24.1345 14.8338V10.435H15.3126V1.52017Z" fill="white" />
  <path d="M38.9125 13.2575C38.9125 14.0667 39.0181 14.8409 39.2292 15.5798C39.4579 16.3011 39.7834 16.9432 40.2056 17.5062C40.6454 18.0692 41.1996 18.5266 41.8682 18.8785C42.5366 19.2127 43.3196 19.3887 44.2168 19.4063C45.0789 19.4238 45.8442 19.2743 46.5127 18.9576C47.1812 18.6234 47.7354 18.1748 48.1753 17.6118C48.6151 17.0312 48.9493 16.3715 49.1781 15.6326C49.4068 14.8761 49.5211 14.0931 49.5211 13.2839C49.5211 12.4922 49.4068 11.7269 49.1781 10.988C48.967 10.2491 48.6415 9.59816 48.2017 9.03515C47.7794 8.45458 47.234 7.99716 46.5655 7.66289C45.8969 7.32863 45.1141 7.16149 44.2168 7.16149C43.3372 7.16149 42.563 7.32863 41.8945 7.66289C41.226 7.99716 40.6718 8.44576 40.232 9.00876C39.7921 9.57177 39.4579 10.2227 39.2292 10.9616C39.0181 11.6829 38.9125 12.4482 38.9125 13.2575ZM44.2432 3.75723C45.6683 3.75723 46.9525 3.98594 48.0961 4.44336C49.2396 4.90078 50.2073 5.55173 50.999 6.39619C51.7906 7.22307 52.3976 8.21708 52.8198 9.37822C53.2421 10.5394 53.4532 11.8236 53.4532 13.2311C53.4532 14.6034 53.2421 15.8789 52.8198 17.0576C52.3976 18.2363 51.7906 19.2568 50.999 20.1188C50.2073 20.9808 49.2309 21.6582 48.0697 22.1508C46.9261 22.6258 45.6242 22.8545 44.1641 22.8369C42.7038 22.8369 41.4019 22.5994 40.2584 22.1244C39.1324 21.6318 38.1736 20.9633 37.3819 20.1188C36.6078 19.2743 36.0097 18.2715 35.5874 17.1104C35.1828 15.9492 34.9805 14.6825 34.9805 13.3103C34.9805 11.9028 35.1916 10.6185 35.6138 9.45739C36.0536 8.27868 36.6694 7.26705 37.4611 6.42258C38.2703 5.57812 39.2468 4.92717 40.3903 4.46975C41.5338 3.99474 42.8182 3.75723 44.2432 3.75723ZM58.8224 17.3743V22.6786H55.1015V8.77126H58.8224V14.1547H60.6697L63.6781 8.77126H67.9268L63.81 15.3687L68.2435 22.6786H63.9156L60.8016 17.3743H58.8224ZM75.0242 19.591C75.7279 19.591 76.2821 19.4238 76.6868 19.0896C77.109 18.7554 77.3641 18.3771 77.4521 17.9548H81.3577C81.2345 18.8521 80.9795 19.6086 80.5924 20.2243C80.2053 20.8401 79.7216 21.3503 79.141 21.7549C78.578 22.1596 77.9358 22.4499 77.2146 22.6258C76.4932 22.8017 75.7455 22.8897 74.9714 22.8897C73.8103 22.8897 72.7987 22.7314 71.9366 22.4147C71.0922 22.0804 70.3884 21.6054 69.8255 20.9896C69.2625 20.3563 68.8314 19.5998 68.5324 18.7201C68.2508 17.8229 68.1101 16.8201 68.1101 15.7117C68.1101 14.6386 68.2685 13.6533 68.5852 12.7561C68.9018 11.8588 69.3505 11.0935 69.931 10.4602C70.5292 9.82684 71.2593 9.34301 72.1214 9.00876C72.9834 8.65688 73.9686 8.48097 75.077 8.48097C75.8863 8.48097 76.6427 8.57771 77.3465 8.77126C78.0678 8.96481 78.7011 9.26384 79.2466 9.6685C79.8095 10.0732 80.2669 10.5921 80.6188 11.2255C80.9883 11.8413 81.2345 12.5802 81.3577 13.4422H77.4521C77.3641 13.02 77.1002 12.6417 76.6604 12.3075C76.2381 11.9732 75.684 11.8061 74.9978 11.8061C74.4173 11.8061 73.9159 11.9116 73.4936 12.1227C73.089 12.3339 72.7547 12.6241 72.4908 12.9936C72.2445 13.363 72.0686 13.7853 71.963 14.2603C71.8575 14.7353 71.8047 15.2367 71.8047 15.7645C71.8047 16.8904 72.0422 17.8141 72.5172 18.5354C73.0098 19.2391 73.8454 19.591 75.0242 19.591ZM89.3378 8.77126C89.7072 8.77126 90.094 8.78008 90.4989 8.79765C90.903 8.79765 91.2989 8.82404 91.6865 8.87682C92.0732 8.9296 92.4427 9.02633 92.7948 9.1671C93.1461 9.29023 93.4719 9.47495 93.7712 9.72128C94.1225 10.0027 94.4046 10.381 94.6157 10.856C94.8268 11.3135 94.9324 11.85 94.9324 12.4658C94.9324 12.9936 94.7914 13.5214 94.5101 14.0492C94.2462 14.577 93.824 15.008 93.2434 15.3423C93.9997 15.6062 94.5539 16.0372 94.906 16.6354C95.2754 17.2335 95.442 17.9109 95.4074 18.6674C95.3719 19.3887 95.2045 20.0044 94.906 20.5146C94.6066 21.0072 94.2545 21.4119 93.8504 21.7286C93.2698 22.1332 92.601 22.3971 91.8448 22.5202C91.0877 22.6434 90.3051 22.6961 89.4961 22.6786H82.8459V8.77126H89.3378ZM89.4961 19.5382C89.7246 19.5382 89.9621 19.5294 90.2086 19.5118C90.4725 19.4766 90.71 19.4151 90.9212 19.3271C91.1496 19.2391 91.3343 19.0984 91.4753 18.9049C91.6155 18.7113 91.6865 18.4651 91.6865 18.166C91.6865 17.9021 91.6337 17.6821 91.5281 17.5062C91.4399 17.3303 91.317 17.1984 91.1587 17.1104C91.0003 17.0224 90.8065 16.9609 90.5781 16.9256C90.367 16.8904 90.1559 16.8729 89.9447 16.8729H86.5669V19.5382H89.4961ZM89.76 14.2603C90.1823 14.2603 90.5517 14.1723 90.8684 13.9964C91.1851 13.8028 91.3434 13.4686 91.3434 12.9936C91.3434 12.7121 91.2815 12.501 91.1587 12.3602C91.035 12.2019 90.8766 12.0875 90.6836 12.0172C90.4898 11.9292 90.2787 11.8764 90.0503 11.8588C89.8392 11.8236 89.6281 11.8061 89.417 11.8061H86.5669V14.2603H89.76ZM103.464 19.8549C103.991 19.8549 104.44 19.7757 104.81 19.6174C105.196 19.4415 105.513 19.1599 105.76 18.7729H109.665C109.471 19.4943 109.173 20.1188 108.768 20.6466C108.381 21.1744 107.906 21.6054 107.343 21.9397C106.798 22.2739 106.191 22.5202 105.522 22.6786C104.853 22.8194 104.15 22.8897 103.411 22.8897C101.159 22.8897 99.4524 22.2563 98.2913 20.9896C97.1475 19.7229 96.576 17.946 96.576 15.6589C96.576 14.6209 96.7252 13.6622 97.0246 12.7825C97.3413 11.9028 97.7808 11.1463 98.3441 10.513C98.9073 9.86206 99.6017 9.36065 100.429 9.00876C101.273 8.65688 102.232 8.48097 103.305 8.48097C104.555 8.48097 105.637 8.70091 106.551 9.14071C107.466 9.58051 108.187 10.1875 108.715 10.9616C109.26 11.7181 109.621 12.6066 109.797 13.6269C109.991 14.6473 109.991 15.7381 109.797 16.8993H100.297C100.367 17.7262 100.657 18.4299 101.168 19.0104C101.678 19.5734 102.444 19.8549 103.464 19.8549ZM106.34 14.3395C106.34 13.8997 106.261 13.5126 106.103 13.1783C105.944 12.8264 105.733 12.545 105.469 12.3339C105.205 12.1052 104.889 11.938 104.519 11.8325C104.167 11.7269 103.798 11.6741 103.411 11.6741C102.478 11.6917 101.748 11.9468 101.221 12.4394C100.71 12.9144 100.412 13.5478 100.323 14.3395H106.34ZM124.186 8.77126V22.6786H120.465V12.0172H116.533C116.498 12.8089 116.463 13.6006 116.428 14.3922C116.41 15.1839 116.375 15.9844 116.322 16.7937C116.287 17.1632 116.252 17.5502 116.216 17.9548C116.182 18.3595 116.12 18.7729 116.032 19.1952C115.962 19.6174 115.847 20.0132 115.689 20.3827C115.548 20.7521 115.355 21.0864 115.108 21.3855C114.651 21.8957 114.105 22.2388 113.472 22.4147C112.839 22.5906 112.188 22.6786 111.519 22.6786H110.279V19.4063H110.648C111.106 19.4063 111.466 19.3095 111.73 19.116C112.012 18.9049 112.214 18.6321 112.337 18.2979C112.478 17.946 112.584 17.5678 112.654 17.1632C112.725 16.7409 112.778 16.3099 112.812 15.8701C112.9 14.7617 112.953 13.6269 112.971 12.4658C113.006 11.3047 113.041 10.0732 113.076 8.77126H124.186Z" fill="white" />
</svg>