<svg width="36" height="36" viewBox="0 0 36 36" fill="none" xmlns="http://www.w3.org/2000/svg">
<path opacity="0.4" fill-rule="evenodd" clip-rule="evenodd" d="M4.42375 21.002C5.25111 20.9598 5.95596 21.5964 5.99809 22.4238C6.11131 24.6473 6.22308 26.1953 6.48231 27.3599C6.73006 28.4729 7.08303 29.091 7.59496 29.547C8.16121 30.0515 8.95249 30.3836 10.414 30.5634C11.909 30.7475 13.8789 30.75 16.6893 30.75H19.3108C22.1211 30.75 24.091 30.7475 25.5861 30.5634C27.0475 30.3836 27.8388 30.0515 28.405 29.547C28.917 29.091 29.2699 28.4729 29.5177 27.3599C29.7769 26.1953 29.8887 24.6473 30.0019 22.4238C30.0441 21.5964 30.7489 20.9598 31.5763 21.002C32.4036 21.0441 33.0402 21.749 32.998 22.5764C32.8873 24.7515 32.7697 26.5574 32.446 28.0116C32.1109 29.5175 31.5273 30.7835 30.4006 31.7871C29.19 32.8656 27.7069 33.3251 25.9524 33.5409C24.2527 33.7502 22.0977 33.7502 19.4116 33.75H16.5885C13.9023 33.7502 11.7473 33.7502 10.0476 33.5409C8.29318 33.3251 6.81013 32.8656 5.59944 31.7871C4.47279 30.7835 3.88915 29.5175 3.55396 28.0116C3.23026 26.5574 3.11274 24.7515 3.00198 22.5764C2.95984 21.749 3.5964 21.0441 4.42375 21.002Z" fill="#ffffff"/>
<path d="M2.97255 11.1132C3.5082 9.4844 4.79835 7.875 6.97188 7.875H29.0279C31.2013 7.875 32.4915 9.48438 33.0272 11.1132C33.5586 12.729 33.498 14.7178 32.7248 16.1882C30.321 20.7592 25.4339 22.9304 20.5707 23.4809C20.3136 23.51 20.0867 23.6645 19.9709 23.8959L19.4204 24.9969C19.1513 25.5351 18.6012 25.875 17.9996 25.875C17.3979 25.875 16.8479 25.5351 16.5788 24.9969L16.0283 23.8958C15.9125 23.6643 15.6855 23.5098 15.4284 23.4807C10.5655 22.9302 5.67861 20.759 3.27494 16.1882C2.50167 14.7178 2.44118 12.729 2.97255 11.1132Z" fill="#ffffff"/>
<path fill-rule="evenodd" clip-rule="evenodd" d="M17.7374 2.25C17.9132 2.25002 18.0897 2.25002 18.2645 2.25C19.2324 2.24993 20.1008 2.24984 20.8206 2.34573C21.6168 2.45177 22.377 2.68991 23.0582 3.26261C23.7195 3.81873 24.1143 4.53012 24.4211 5.29943C24.7127 6.03069 24.9777 6.95871 25.2902 8.05242L25.4432 8.58794L22.5587 9.4121L22.4262 8.94851C22.0875 7.76342 21.8628 6.98355 21.6344 6.4106C21.4148 5.85971 21.2517 5.66325 21.1274 5.55872C21.0228 5.47077 20.8685 5.37858 20.4246 5.31947C19.9262 5.25308 19.26 5.25002 18.1763 5.25002H17.8254C16.7417 5.25002 16.0757 5.25308 15.5772 5.31947C15.1334 5.37858 14.979 5.47077 14.8744 5.55872C14.7501 5.66325 14.5871 5.85971 14.3674 6.4106C14.1389 6.98355 13.9142 7.76342 13.5756 8.94851L13.4432 9.4121L10.5586 8.58794C10.6096 8.40944 10.6606 8.23094 10.7116 8.05245C11.024 6.95873 11.2892 6.03069 11.5808 5.29943C11.8875 4.53012 12.2823 3.81873 12.9436 3.26261C13.6247 2.68991 14.385 2.45177 15.1811 2.34573C15.9011 2.24984 16.7694 2.24993 17.7374 2.25Z" fill="#ffffff"/>
</svg>
