<svg width="36" height="36" viewBox="0 0 36 36" fill="none" xmlns="http://www.w3.org/2000/svg">
<path opacity="0.4" d="M19.0631 2.8068C19.0059 2.47884 18.8064 2.19305 18.5183 2.02631C18.2301 1.85955 17.883 1.82898 17.5701 1.9428L9.32498 4.94282C9.00216 5.06027 8.7507 5.31878 8.64221 5.64473C7.14942 10.1297 8.00025 14.7758 9.7769 19.3974C11.2002 23.1 13.2742 26.9193 15.3489 30.7401C15.8541 31.6704 16.3595 32.601 16.8554 33.5298C17.051 33.8963 17.4324 34.125 17.8478 34.125H27.0002C27.6215 34.125 28.1252 33.6213 28.1252 33C28.1252 31.1822 27.4779 28.5233 26.604 25.8783C25.7184 23.1984 24.5517 20.3909 23.4209 18.2286C22.3859 16.2497 21.4467 13.2927 20.684 10.3318C19.9266 7.39269 19.3644 4.53546 19.0631 2.8068Z" fill="#ffffff"/>
<path d="M8.91797 16.9028C9.14468 17.6528 9.40246 18.4031 9.68524 19.1528H13.5017C14.123 19.1528 14.6267 18.6491 14.6267 18.0278C14.6267 17.4065 14.123 16.9028 13.5017 16.9028H8.91797Z" fill="#ffffff"/>
<path d="M7.97461 12.375C8.05172 13.1234 8.17238 13.8737 8.3305 14.625H12.0013C12.6226 14.625 13.1263 14.1213 13.1263 13.5C13.1263 12.8787 12.6226 12.375 12.0013 12.375H7.97461Z" fill="#ffffff"/>
<path d="M9.3962 25.8777C8.52219 28.5226 7.875 31.1815 7.875 32.9994C7.875 33.6207 8.37868 34.1244 9 34.1244H13.875C14.2087 34.1244 14.3755 34.1244 14.4411 34.0155C14.5067 33.9067 14.4288 33.7591 14.2729 33.4641L10.2171 25.7905C10.0106 25.3996 9.90725 25.2042 9.75908 25.2165C9.61091 25.2289 9.54189 25.4374 9.40386 25.8546C9.40129 25.8622 9.39875 25.87 9.3962 25.8777Z" fill="#ffffff"/>
<path d="M27.3576 5.64417C27.2491 5.31822 26.9977 5.05971 26.6749 4.94224L22.1235 3.28621C21.7957 3.16696 21.6318 3.10734 21.5322 3.19224C21.4324 3.27714 21.465 3.44766 21.5301 3.78867C21.8443 5.43262 22.2985 7.58067 22.8625 9.76993C23.6181 12.7027 24.5061 15.4483 25.4145 17.1853C25.5699 17.4823 25.7254 17.7901 25.8807 18.1069C26.0844 18.5226 26.1861 18.7303 26.3361 18.721C26.4861 18.7116 26.56 18.4963 26.7076 18.0658C28.1413 13.885 28.7071 9.69876 27.3576 5.64417Z" fill="#ffffff"/>
<path fill-rule="evenodd" clip-rule="evenodd" d="M4.5 32.625C4.5 31.7966 5.17158 31.125 6 31.125H30C30.8284 31.125 31.5 31.7966 31.5 32.625C31.5 33.4534 30.8284 34.125 30 34.125H6C5.17158 34.125 4.5 33.4534 4.5 32.625Z" fill="#ffffff"/>
</svg>
