<svg width="36" height="36" viewBox="0 0 36 36" fill="none" xmlns="http://www.w3.org/2000/svg">
<path fill-rule="evenodd" clip-rule="evenodd" d="M7.6875 1.6875C8.51592 1.6875 9.1875 2.35908 9.1875 3.1875V6.1875H12.1875C13.0159 6.1875 13.6875 6.85907 13.6875 7.6875C13.6875 8.51592 13.0159 9.1875 12.1875 9.1875H9.1875V12.1875C9.1875 13.0159 8.51592 13.6875 7.6875 13.6875C6.85907 13.6875 6.1875 13.0159 6.1875 12.1875V9.1875H3.1875C2.35908 9.1875 1.6875 8.51592 1.6875 7.6875C1.6875 6.85907 2.35908 6.1875 3.1875 6.1875H6.1875V3.1875C6.1875 2.35908 6.85907 1.6875 7.6875 1.6875Z" fill="#ffffff"/>
<path d="M30.1204 3.56251L30.1875 3.56252L30.2547 3.56251C30.9039 3.56243 31.4991 3.56237 31.9833 3.62747C32.5166 3.69915 33.0801 3.86783 33.5436 4.33136C34.0073 4.79489 34.1758 5.35848 34.2475 5.89171C34.3126 6.37592 34.3126 6.97116 34.3125 7.62038V7.68752V7.75463C34.3126 8.40386 34.3126 8.9991 34.2475 9.48332C34.1758 10.0165 34.0073 10.5801 33.5436 11.0437C33.0801 11.5072 32.5166 11.6759 31.9833 11.7476C31.4991 11.8127 30.9039 11.8126 30.2547 11.8125H30.1875H30.1204C29.4711 11.8126 28.8759 11.8127 28.3917 11.7476C27.8584 11.6759 27.2949 11.5072 26.8314 11.0437C26.3677 10.5801 26.1992 10.0165 26.1275 9.48332C26.0624 8.9991 26.0625 8.40386 26.0625 7.75465V7.68752V7.62039C26.0625 6.97116 26.0624 6.37592 26.1275 5.89171C26.1992 5.35848 26.3677 4.79489 26.8314 4.33136C27.2949 3.86783 27.8584 3.69915 28.3917 3.62747C28.8759 3.56237 29.4711 3.56243 30.1204 3.56251Z" fill="#ffffff"/>
<path d="M30.1204 26.0625H30.1875H30.2547C30.9039 26.0625 31.4991 26.0624 31.9833 26.1275C32.5166 26.1992 33.0801 26.3677 33.5436 26.8314C34.0073 27.2949 34.1758 27.8584 34.2475 28.3917C34.3126 28.8759 34.3126 29.4711 34.3125 30.1204V30.1875V30.2547C34.3126 30.9039 34.3126 31.4991 34.2475 31.9833C34.1758 32.5166 34.0073 33.0801 33.5436 33.5436C33.0801 34.0073 32.5166 34.1758 31.9833 34.2475C31.4991 34.3126 30.9039 34.3126 30.2547 34.3125H30.1875H30.1204C29.4711 34.3126 28.8759 34.3126 28.3917 34.2475C27.8584 34.1758 27.2949 34.0073 26.8314 33.5436C26.3677 33.0801 26.1992 32.5166 26.1275 31.9833C26.0624 31.4991 26.0625 30.9039 26.0625 30.2547V30.1875V30.1204C26.0625 29.4711 26.0624 28.8759 26.1275 28.3917C26.1992 27.8584 26.3677 27.2949 26.8314 26.8314C27.2949 26.3677 27.8584 26.1992 28.3917 26.1275C28.8759 26.0624 29.4711 26.0625 30.1204 26.0625Z" fill="#ffffff"/>
<path d="M7.62039 26.0625H7.68752H7.75465C8.40386 26.0625 8.9991 26.0624 9.48332 26.1275C10.0165 26.1992 10.5801 26.3677 11.0437 26.8314C11.5072 27.2949 11.6759 27.8584 11.7476 28.3917C11.8127 28.8759 11.8126 29.4711 11.8125 30.1204V30.1875V30.2547C11.8126 30.9039 11.8127 31.4991 11.7476 31.9833C11.6759 32.5166 11.5072 33.0801 11.0437 33.5436C10.5801 34.0073 10.0165 34.1758 9.48332 34.2475C8.9991 34.3126 8.40388 34.3126 7.75465 34.3125H7.68752H7.62039C6.97118 34.3126 6.37592 34.3126 5.89171 34.2475C5.35848 34.1758 4.79489 34.0073 4.33136 33.5436C3.86783 33.0801 3.69915 32.5166 3.62747 31.9833C3.56237 31.4991 3.56243 30.9039 3.56251 30.2547L3.56252 30.1875L3.56251 30.1204C3.56243 29.4711 3.56237 28.8759 3.62747 28.3917C3.69915 27.8584 3.86783 27.2949 4.33136 26.8314C4.79489 26.3677 5.35848 26.1992 5.89171 26.1275C6.37592 26.0624 6.97116 26.0625 7.62039 26.0625Z" fill="#ffffff"/>
<path opacity="0.4" d="M28.6875 11.7787C29.1103 11.8127 29.5978 11.8126 30.1204 11.8125H30.2547C30.7771 11.8126 31.2647 11.8127 31.6875 11.7787V26.0963C31.2647 26.0624 30.7771 26.0625 30.2547 26.0625H30.1204C29.5978 26.0625 29.1103 26.0624 28.6875 26.0963V11.7787Z" fill="#ffffff"/>
<path opacity="0.4" d="M26.0962 6.1875C26.0623 6.61033 26.0625 7.09788 26.0625 7.62039V7.75464C26.0625 8.27714 26.0623 8.76466 26.0962 9.1875H18.1875C17.3591 9.1875 16.6875 8.51592 16.6875 7.6875C16.6875 6.85908 17.3591 6.1875 18.1875 6.1875H26.0962Z" fill="#ffffff"/>
<path opacity="0.4" d="M26.0959 28.6875H11.7783C11.8123 29.1103 11.8122 29.5978 11.8121 30.1204V30.2547C11.8122 30.7771 11.8123 31.2647 11.7783 31.6875H26.0959C26.062 31.2647 26.0621 30.7771 26.0621 30.2547V30.1204C26.0621 29.5978 26.062 29.1103 26.0959 28.6875Z" fill="#ffffff"/>
<path opacity="0.4" d="M9.1875 26.0962C8.76466 26.0623 8.27714 26.0625 7.75464 26.0625H7.62039C7.09788 26.0625 6.61033 26.0623 6.1875 26.0962V18.1875C6.1875 17.3591 6.85908 16.6875 7.6875 16.6875C8.51592 16.6875 9.1875 17.3591 9.1875 18.1875V26.0962Z" fill="#ffffff"/>
</svg>
