<svg width="36" height="36" viewBox="0 0 36 36" fill="none" xmlns="http://www.w3.org/2000/svg">
  <path d="M18 3C18.563 3 19.118 3.0305 19.665 3.0915C19.8608 3.11317 20.0504 3.17319 20.223 3.26814C20.3956 3.36309 20.5478 3.4911 20.671 3.64488C20.7941 3.79865 20.8857 3.97517 20.9406 4.16436C20.9956 4.35355 21.0127 4.5517 20.991 4.7475C20.9693 4.9433 20.9093 5.13292 20.8144 5.30552C20.7194 5.47813 20.5914 5.63034 20.4376 5.75347C20.2838 5.8766 20.1073 5.96824 19.9181 6.02315C19.729 6.07806 19.5308 6.09517 19.335 6.0735C16.8631 5.79697 14.3663 6.29541 12.19 7.49988C10.0137 8.70436 8.26553 10.5553 7.1872 12.7968C6.10887 15.0382 5.7537 17.5594 6.17084 20.0115C6.58797 22.4637 7.75679 24.7256 9.51561 26.4844C11.2744 28.2432 13.5363 29.412 15.9885 29.8292C18.4406 30.2463 20.9618 29.8911 23.2032 28.8128C25.4447 27.7345 27.2956 25.9863 28.5001 23.81C29.7046 21.6337 30.203 19.1369 29.9265 16.665C29.9048 16.4692 29.9219 16.271 29.9769 16.0819C30.0318 15.8927 30.1234 15.7162 30.2465 15.5624C30.4952 15.2518 30.8571 15.0528 31.2525 15.009C31.6479 14.9652 32.0446 15.0804 32.3551 15.329C32.5089 15.4522 32.6369 15.6044 32.7319 15.777C32.8268 15.9496 32.8868 16.1392 32.9085 16.335C32.9685 16.882 32.999 17.437 33 18C33 26.2845 26.2845 33 18 33C9.7155 33 3 26.2845 3 18C3 9.7155 9.7155 3 18 3ZM27.756 3.1905C28.0298 3.30402 28.2638 3.49611 28.4285 3.74251C28.5933 3.98892 28.6813 4.27861 28.6815 4.575V7.32H31.425C31.7216 7.32006 32.0116 7.40807 32.2582 7.5729C32.5048 7.73772 32.697 7.97197 32.8105 8.24602C32.924 8.52007 32.9537 8.82162 32.8959 9.11255C32.838 9.40348 32.6952 9.67072 32.4855 9.8805L27.18 15.18C26.8988 15.4613 26.5173 15.6194 26.1195 15.6195H22.5L19.758 18.363C19.4765 18.6445 19.0948 18.8026 18.6968 18.8026C18.2987 18.8026 17.917 18.6445 17.6355 18.363C17.354 18.0815 17.1959 17.6998 17.1959 17.3018C17.1959 16.9037 17.354 16.522 17.6355 16.2405L20.379 13.5V9.879C20.3791 9.48121 20.5372 9.09974 20.8185 8.8185L26.121 3.5145C26.3308 3.3046 26.5981 3.16164 26.8891 3.1037C27.1802 3.04576 27.4818 3.07544 27.756 3.189M25.6815 8.1945L23.379 10.5V12.621H25.5L27.804 10.3185H27.1815C26.7837 10.3185 26.4021 10.1605 26.1208 9.87916C25.8395 9.59786 25.6815 9.21633 25.6815 8.8185V8.1945Z" fill="white" />
  <path opacity="0.3" d="M17.7906 12.9514C17.9928 12.6091 18.0509 12.2005 17.952 11.8154C17.9029 11.6246 17.8166 11.4454 17.6982 11.2879C17.5798 11.1305 17.4316 10.9979 17.2619 10.8977C17.0922 10.7976 16.9045 10.7318 16.7094 10.7042C16.5144 10.6766 16.3158 10.6878 16.125 10.7369C14.5149 11.1527 13.0886 12.0917 12.0704 13.4064C11.0522 14.7212 10.4997 16.337 10.5 17.9999C10.5046 19.8228 11.1727 21.5817 12.3795 22.948C13.5863 24.3143 15.2492 25.1945 17.0576 25.4242C18.866 25.6539 20.6962 25.2173 22.2062 24.1961C23.7163 23.1749 24.8028 21.6388 25.263 19.8749C25.3528 19.4932 25.2894 19.0915 25.0866 18.7558C24.8838 18.4202 24.5576 18.1773 24.1779 18.0793C23.7982 17.9812 23.3952 18.0357 23.0552 18.2312C22.7152 18.4266 22.4653 18.7475 22.359 19.1249C22.1095 20.0912 21.5459 20.9471 20.7568 21.5581C19.9677 22.169 18.998 22.5003 18 22.4999C16.9066 22.4964 15.8519 22.0951 15.0326 21.3711C14.2133 20.647 13.6855 19.6496 13.5476 18.565C13.4096 17.4803 13.6711 16.3825 14.2831 15.4765C14.8951 14.5704 15.8158 13.918 16.8735 13.6409C17.2585 13.5417 17.5883 13.2937 17.7906 12.9514Z" fill="white" />
</svg>