<svg width="24" height="24" viewBox="0 0 24 24" fill="none" xmlns="http://www.w3.org/2000/svg">
  <path d="M21.2094 14.9164C21.3865 15.437 21.1248 16.0085 20.625 16.1929C20.1127 16.3819 19.5209 16.7888 18.894 17.3615C18.277 17.9251 17.6768 18.602 17.1453 19.2659C16.6155 19.9274 16.1655 20.5611 15.8477 21.0301C15.6891 21.2641 15.5643 21.4558 15.4799 21.5879L15.3549 21.7865C15.1693 22.0906 14.8409 22.2674 14.4955 22.249C14.1499 22.2305 13.8407 22.0198 13.6859 21.6975C13.2629 20.8161 12.8834 20.4652 12.692 20.3323C12.6111 20.2761 12.5564 20.2536 12.5347 20.2459C12.0466 20.1987 11.6646 19.771 11.6646 19.2503C11.6646 18.698 12.0943 18.2503 12.6246 18.2503C12.7037 18.2511 12.9002 18.2661 13.0533 18.32C13.2529 18.3794 13.4936 18.4853 13.7571 18.6682C14.0204 18.8511 14.2965 19.1038 14.5737 19.4497C14.8763 19.0189 15.2492 18.5113 15.6709 17.9847C16.2405 17.2735 16.911 16.5129 17.6281 15.8578C18.3352 15.2118 19.141 14.6186 19.9841 14.3076C20.4839 14.1233 21.0324 14.3958 21.2094 14.9164Z" fill="#192741" />
  <path opacity="0.4" d="M12.8919 2H10.9166C9.04624 1.99997 7.53757 1.99994 6.35094 2.17961C5.11255 2.3671 4.08675 2.76781 3.28152 3.6746C2.48613 4.57031 2.1437 5.69272 1.98181 7.04866C1.82419 8.36894 1.8242 10.0541 1.82422 12.1739V12.8261C1.8242 14.9459 1.82419 16.6311 1.98181 17.9513C2.1437 19.3073 2.48613 20.4297 3.28152 21.3254C4.08675 22.2322 5.11255 22.6329 6.35094 22.8204C7.53758 23.0001 9.04623 23 10.9166 23H10.9922C11.5224 23 11.9522 22.5523 11.9522 22C11.9522 21.4477 11.5224 21 10.9922 21C9.0283 21 7.65966 20.9975 6.6271 20.8412C5.63033 20.6903 5.0878 20.4142 4.69099 19.9673C4.28434 19.5094 4.02576 18.8656 3.88713 17.7045C3.74597 16.5221 3.74422 14.9616 3.74422 12.7568V12.2432C3.74422 11.1847 3.74462 10.2746 3.76066 9.48363C3.76614 9.2139 3.97858 9 4.23757 9H19.5708C19.8298 9 20.0422 9.21402 20.0477 9.48374C20.0599 10.0821 20.0633 10.7502 20.0639 11.501V13C20.0639 13.5523 20.4938 14 21.0239 14C21.5541 14 21.9839 13.5523 21.9839 13V11.499C21.982 9.58334 21.9663 8.04001 21.7962 6.81198C21.6229 5.56147 21.2755 4.51759 20.5269 3.6746C19.7217 2.76781 18.6959 2.3671 17.4575 2.17961C16.2709 1.99994 14.7622 1.99997 12.8919 2Z" fill="#192741" />
  <path d="M7.10457 2C7.10457 1.44772 6.67476 1 6.14457 1C5.61438 1 5.18457 1.44772 5.18457 2V2.44885C5.54968 2.32821 5.93869 2.24208 6.35129 2.17961C6.58932 2.14357 6.8403 2.11476 7.10457 2.09173V2Z" fill="#192741" />
  <path d="M18.6246 2.44885C18.2595 2.32821 17.8705 2.24208 17.4579 2.17961C17.2198 2.14357 16.9689 2.11476 16.7046 2.09173V2C16.7046 1.44772 17.1344 1 17.6646 1C18.1948 1 18.6246 1.44772 18.6246 2V2.44885Z" fill="#192741" />
</svg>