<svg width="36" height="36" viewBox="0 0 36 36" fill="none" xmlns="http://www.w3.org/2000/svg">
<path d="M5.625 5.625C5.625 4.72989 5.98058 3.87145 6.61351 3.23851C7.24645 2.60558 8.10489 2.25 9 2.25H20.4435C21.3381 2.25049 22.196 2.60617 22.8285 3.23887L29.3872 9.79537C30.0198 10.4283 30.3751 11.2866 30.375 12.1815V30.375C30.375 31.2701 30.0194 32.1286 29.3865 32.7615C28.7536 33.3944 27.8951 33.75 27 33.75H9C8.10489 33.75 7.24645 33.3944 6.61351 32.7615C5.98058 32.1286 5.625 31.2701 5.625 30.375V5.625ZM9 4.5C8.70163 4.5 8.41548 4.61853 8.2045 4.8295C7.99353 5.04048 7.875 5.32663 7.875 5.625V30.375C7.875 30.6734 7.99353 30.9595 8.2045 31.1705C8.41548 31.3815 8.70163 31.5 9 31.5H27C27.2984 31.5 27.5845 31.3815 27.7955 31.1705C28.0065 30.9595 28.125 30.6734 28.125 30.375V13.5H22.5C21.6049 13.5 20.7464 13.1444 20.1135 12.5115C19.4806 11.8786 19.125 11.0201 19.125 10.125V4.5H9ZM22.5 11.25H27.6593L21.375 4.96575V10.125C21.375 10.4234 21.4935 10.7095 21.7045 10.9205C21.9155 11.1315 22.2016 11.25 22.5 11.25Z" fill="#192741"/>
<g opacity="0.3">
<path d="M11.5795 27.3295C11.7905 27.1185 12.0766 27 12.375 27H23.625C23.9234 27 24.2095 27.1185 24.4205 27.3295C24.6315 27.5405 24.75 27.8266 24.75 28.125C24.75 28.4234 24.6315 28.7095 24.4205 28.9205C24.2095 29.1315 23.9234 29.25 23.625 29.25H12.375C12.0766 29.25 11.7905 29.1315 11.5795 28.9205C11.3685 28.7095 11.25 28.4234 11.25 28.125C11.25 27.8266 11.3685 27.5405 11.5795 27.3295Z" fill="#192741"/>
<path d="M11.5795 22.8295C11.3685 23.0405 11.25 23.3266 11.25 23.625C11.25 23.9234 11.3685 24.2095 11.5795 24.4205C11.7905 24.6315 12.0766 24.75 12.375 24.75H23.625C23.9234 24.75 24.2095 24.6315 24.4205 24.4205C24.6315 24.2095 24.75 23.9234 24.75 23.625C24.75 23.3266 24.6315 23.0405 24.4205 22.8295C24.2095 22.6185 23.9234 22.5 23.625 22.5H12.375C12.0766 22.5 11.7905 22.6185 11.5795 22.8295Z" fill="#192741"/>
<path d="M11.5795 18.3295C11.7905 18.1185 12.0766 18 12.375 18H23.625C23.9234 18 24.2095 18.1185 24.4205 18.3295C24.6315 18.5405 24.75 18.8266 24.75 19.125C24.75 19.4234 24.6315 19.7095 24.4205 19.9205C24.2095 20.1315 23.9234 20.25 23.625 20.25H12.375C12.0766 20.25 11.7905 20.1315 11.5795 19.9205C11.3685 19.7095 11.25 19.4234 11.25 19.125C11.25 18.8266 11.3685 18.5405 11.5795 18.3295Z" fill="#192741"/>
</g>
</svg>
