<svg width="36" height="36" viewBox="0 0 36 36" fill="none" xmlns="http://www.w3.org/2000/svg">
<path fill-rule="evenodd" clip-rule="evenodd" d="M16.4216 1.875H19.5776C20.9246 1.875 22.0496 1.875 22.9406 1.995C23.8826 2.121 24.7331 2.4 25.4156 3.0825C26.0996 3.7665 26.3786 4.617 26.5046 5.5575C26.6246 6.45 26.6246 7.575 26.6246 8.922V10.9215L27.8846 11.6085C28.7716 12.0924 29.5119 12.8064 30.0277 13.6753C30.5434 14.5442 30.8156 15.536 30.8156 16.5465V23.9535C30.8155 24.9641 30.5431 25.956 30.027 26.825C29.511 27.6939 28.7704 28.4078 27.8831 28.8915L20.6921 32.8125C19.8661 33.2628 18.9404 33.4988 17.9996 33.4988C17.0588 33.4988 16.1331 33.2628 15.3071 32.8125L8.11459 28.8915C7.22756 28.4076 6.48726 27.6936 5.97151 26.8247C5.45575 25.9558 5.18358 24.964 5.18359 23.9535V16.545C5.18412 15.535 5.45654 14.5439 5.97227 13.6755C6.488 12.8072 7.22801 12.0937 8.11459 11.61L9.37459 10.923V8.922C9.37459 7.575 9.37459 6.45 9.49459 5.559C9.62059 4.617 9.89959 3.7665 10.5821 3.084C11.2661 2.4 12.1166 2.121 13.0571 1.995C13.9496 1.875 15.0731 1.875 16.4216 1.875ZM11.6246 9.6945L15.3071 7.6875C16.1331 7.23719 17.0588 7.00123 17.9996 7.00123C18.9404 7.00123 19.8661 7.23719 20.6921 7.6875L24.3746 9.6945V9C24.3746 7.554 24.3716 6.582 24.2741 5.8575C24.1811 5.166 24.0206 4.869 23.8241 4.674C23.6276 4.479 23.3336 4.3185 22.6406 4.224C21.9161 4.128 20.9456 4.125 19.4996 4.125H16.4996C15.0536 4.125 14.0816 4.128 13.3571 4.2255C12.6656 4.3185 12.3686 4.479 12.1721 4.6755C11.9771 4.8705 11.8166 5.166 11.7236 5.8575C11.6261 6.582 11.6246 7.554 11.6246 9V9.6945ZM19.6151 9.663C19.1195 9.39281 18.5641 9.25124 17.9996 9.25124C17.4351 9.25124 16.8797 9.39281 16.3841 9.663L9.19159 13.584C8.65953 13.8744 8.2155 14.3028 7.90616 14.8241C7.59682 15.3454 7.43358 15.9403 7.43359 16.5465V23.9535C7.43359 25.188 8.10859 26.325 9.19159 26.916L16.3841 30.837C16.8797 31.1072 17.4351 31.2488 17.9996 31.2488C18.5641 31.2488 19.1195 31.1072 19.6151 30.837L26.8061 26.916C27.3384 26.6258 27.7828 26.1975 28.0924 25.6762C28.402 25.1549 28.5655 24.5598 28.5656 23.9535V16.545C28.5655 15.9387 28.402 15.3436 28.0924 14.8223C27.7828 14.301 27.3384 13.8727 26.8061 13.5825L19.6151 9.663Z" fill="#192741"/>
<path opacity="0.3" fill-rule="evenodd" clip-rule="evenodd" d="M17.9972 14.625C17.2442 14.625 16.7747 15.1125 16.5167 15.45C16.277 15.7609 16.0387 16.1885 15.7923 16.6307C15.7843 16.6451 15.7762 16.6595 15.7682 16.674L15.7337 16.737L15.5852 17.001L15.5012 17.151L15.3527 17.1855L15.0662 17.2515L14.9957 17.2665C14.5037 17.3775 14.0162 17.4885 13.6412 17.6355C13.2257 17.799 12.6647 18.117 12.4487 18.8115C12.2357 19.497 12.5042 20.0745 12.7382 20.4465C12.9557 20.7915 13.2842 21.177 13.6232 21.5715L13.6682 21.6255L13.8632 21.8535L13.9862 21.999L13.9682 22.2015L13.9382 22.506L13.9322 22.5765C13.8797 23.103 13.8302 23.6145 13.8497 24.0225C13.8677 24.45 13.9712 25.098 14.5517 25.539C15.1517 25.9935 15.8117 25.8945 16.2317 25.7745C16.6074 25.6667 17.0481 25.4643 17.4948 25.259L17.5352 25.2405L17.6012 25.2105L17.8697 25.0875L17.9972 25.0275L18.1247 25.0875L18.3917 25.2105L18.4577 25.2405L18.4851 25.2531C18.9363 25.4604 19.3834 25.6657 19.7627 25.7745C20.1827 25.8945 20.8427 25.9935 21.4427 25.5375C22.0232 25.098 22.1252 24.45 22.1447 24.0225C22.1626 23.6152 22.1133 23.1047 22.0624 22.5776L22.0562 22.506L22.0262 22.2015L22.0067 21.999L22.1312 21.8535L22.3262 21.6255L22.3712 21.5715L22.3895 21.5501C22.7206 21.1631 23.0426 20.7868 23.2547 20.448C23.4902 20.0745 23.7587 19.497 23.5457 18.813C23.3282 18.1155 22.7672 17.799 22.3532 17.6355C21.983 17.4904 21.5018 17.3804 21.0163 17.2694L20.9972 17.265L20.9267 17.25L20.6402 17.1855L20.4932 17.151L20.4077 17.001L20.2607 16.737L20.2262 16.674L20.2173 16.6581C19.9654 16.2062 19.7208 15.7673 19.4762 15.45C19.2182 15.1125 18.7502 14.625 17.9972 14.625ZM17.9987 17.3025C17.9127 17.4515 17.8127 17.628 17.6987 17.832L17.5517 18.096L17.5187 18.156C17.4017 18.372 17.2067 18.729 16.8812 18.9765C16.5482 19.2285 16.1492 19.3155 15.9152 19.3665L15.8507 19.3815L15.5657 19.4445C15.5357 19.4513 15.5063 19.458 15.4776 19.4645C15.2534 19.5154 15.0666 19.5578 14.9057 19.599C15.0242 19.746 15.1787 19.9275 15.3797 20.163L15.5747 20.391C15.5897 20.406 15.6047 20.4235 15.6197 20.4435C15.7817 20.6295 16.0427 20.931 16.1642 21.3195C16.2831 21.7001 16.2429 22.0925 16.2174 22.3418L16.2092 22.419L16.1792 22.7235L16.1162 23.4135C16.2526 23.355 16.4038 23.2853 16.5793 23.2042C16.6063 23.1918 16.6339 23.179 16.6622 23.166L16.9307 23.043L16.9907 23.0145C17.2052 22.9125 17.5802 22.737 17.9987 22.737C18.4157 22.737 18.7907 22.9125 19.0067 23.0145L19.0667 23.043L19.3352 23.166C19.5452 23.264 19.7267 23.3465 19.8797 23.4135C19.8647 23.2305 19.8452 23.0055 19.8182 22.7235L19.7882 22.419L19.7807 22.3485C19.7551 22.0991 19.7142 21.7001 19.8332 21.3195C19.9525 20.9316 20.2128 20.6328 20.375 20.4465L20.4227 20.391L20.6177 20.163C20.8187 19.9275 20.9732 19.746 21.0917 19.599C20.9087 19.554 20.6957 19.5045 20.4317 19.4445L20.1467 19.38L20.0807 19.365C19.8482 19.3155 19.4477 19.2285 19.1162 18.975C18.7944 18.7318 18.6001 18.3801 18.4812 18.1649L18.4442 18.0975L18.2972 17.832C18.1842 17.628 18.0857 17.4515 17.9987 17.3025Z" fill="#192741"/>
</svg>
