<svg width="36" height="36" viewBox="0 0 36 36" fill="none" xmlns="http://www.w3.org/2000/svg">
<path opacity="0.3" d="M27.5625 31.5C25.9597 31.5348 24.4084 30.9328 23.2487 29.8259C22.0889 28.7191 21.4151 27.1976 21.375 25.5949C21.3996 24.4628 21.7402 23.36 22.3583 22.4112L26.4262 16.3553C26.5515 16.169 26.7206 16.0163 26.9188 15.9108C27.1169 15.8052 27.338 15.75 27.5625 15.75C27.787 15.75 28.0081 15.8052 28.2062 15.9108C28.4044 16.0163 28.5735 16.169 28.6988 16.3553L32.6925 22.2919C33.3527 23.2696 33.7196 24.4156 33.75 25.5949C33.7099 27.1976 33.0361 28.7191 31.8763 29.8259C30.7166 30.9328 29.1653 31.5348 27.5625 31.5ZM27.5625 18.6975L24.2595 23.6104C23.8663 24.1994 23.6464 24.887 23.625 25.5949C23.7001 26.5878 24.1475 27.5156 24.8777 28.1926C25.6078 28.8696 26.5668 29.2458 27.5625 29.2458C28.5582 29.2458 29.5172 28.8696 30.2473 28.1926C30.9775 27.5156 31.4249 26.5878 31.5 25.5949C31.4736 24.8407 31.2273 24.1106 30.7913 23.4945L27.5625 18.6975Z" fill="#192741"/>
<path d="M5.625 15.75C6.24632 15.75 6.75 15.2463 6.75 14.625C6.75 14.0037 6.24632 13.5 5.625 13.5C5.00368 13.5 4.5 14.0037 4.5 14.625C4.5 15.2463 5.00368 15.75 5.625 15.75Z" fill="#192741"/>
<path d="M12.375 22.5C12.9963 22.5 13.5 21.9963 13.5 21.375C13.5 20.7537 12.9963 20.25 12.375 20.25C11.7537 20.25 11.25 20.7537 11.25 21.375C11.25 21.9963 11.7537 22.5 12.375 22.5Z" fill="#192741"/>
<path d="M16.875 29.25C17.4963 29.25 18 28.7463 18 28.125C18 27.5037 17.4963 27 16.875 27C16.2537 27 15.75 27.5037 15.75 28.125C15.75 28.7463 16.2537 29.25 16.875 29.25Z" fill="#192741"/>
<path d="M19.125 18C19.7463 18 20.25 17.4963 20.25 16.875C20.25 16.2537 19.7463 15.75 19.125 15.75C18.5037 15.75 18 16.2537 18 16.875C18 17.4963 18.5037 18 19.125 18Z" fill="#192741"/>
<path d="M14.625 13.5C15.2463 13.5 15.75 12.9963 15.75 12.375C15.75 11.7537 15.2463 11.25 14.625 11.25C14.0037 11.25 13.5 11.7537 13.5 12.375C13.5 12.9963 14.0037 13.5 14.625 13.5Z" fill="#192741"/>
<path d="M30.375 13.5C30.9963 13.5 31.5 12.9963 31.5 12.375C31.5 11.7537 30.9963 11.25 30.375 11.25C29.7537 11.25 29.25 11.7537 29.25 12.375C29.25 12.9963 29.7537 13.5 30.375 13.5Z" fill="#192741"/>
<path d="M10.125 31.5C10.7463 31.5 11.25 30.9963 11.25 30.375C11.25 29.7537 10.7463 29.25 10.125 29.25C9.50368 29.25 9 29.7537 9 30.375C9 30.9963 9.50368 31.5 10.125 31.5Z" fill="#192741"/>
<path d="M3.375 24.75C3.99632 24.75 4.5 24.2463 4.5 23.625C4.5 23.0037 3.99632 22.5 3.375 22.5C2.75368 22.5 2.25 23.0037 2.25 23.625C2.25 24.2463 2.75368 24.75 3.375 24.75Z" fill="#192741"/>
<path d="M2.25 6.75H33.75V9H2.25V6.75Z" fill="#192741"/>
</svg>
