<svg width="36" height="36" viewBox="0 0 36 36" fill="none" xmlns="http://www.w3.org/2000/svg">
<path fill-rule="evenodd" clip-rule="evenodd" d="M16.416 1.875H19.584C22.341 1.875 24.525 1.875 26.2335 2.1045C27.9915 2.3415 29.415 2.8395 30.5385 3.9615C30.7372 4.17476 30.8454 4.45683 30.8403 4.74828C30.8351 5.03974 30.7171 5.31781 30.5109 5.52393C30.3048 5.73005 30.0267 5.84812 29.7353 5.85326C29.4438 5.8584 29.1618 5.75022 28.9485 5.5515C28.3125 4.9185 27.4425 4.5375 25.9335 4.335C24.393 4.128 22.3605 4.125 19.5 4.125H16.5C13.6395 4.125 11.6085 4.128 10.065 4.335C8.5575 4.5375 7.6875 4.9185 7.053 5.553C6.4185 6.1875 6.0375 7.0575 5.835 8.565C5.628 10.1085 5.625 12.1395 5.625 15V21C5.625 23.8605 5.628 25.893 5.835 27.435C6.0375 28.9425 6.4185 29.8125 7.053 30.447C7.6875 31.0815 8.5575 31.4625 10.0665 31.665C11.6085 31.872 13.6395 31.875 16.5 31.875H19.5C22.3605 31.875 24.393 31.872 25.935 31.665C27.4425 31.4625 28.3125 31.0815 28.947 30.447C29.991 29.403 30.3075 27.7815 30.3615 23.9835C30.3659 23.6851 30.4886 23.4007 30.7027 23.1928C30.8087 23.0899 30.9339 23.0089 31.0712 22.9543C31.2085 22.8998 31.3553 22.8728 31.503 22.875C31.6507 22.8772 31.7966 22.9084 31.9323 22.9669C32.0679 23.0255 32.1907 23.1102 32.2937 23.2162C32.3966 23.3222 32.4776 23.4474 32.5322 23.5847C32.5867 23.722 32.6137 23.8688 32.6115 24.0165C32.559 27.657 32.3235 30.2535 30.5385 32.0385C29.415 33.1605 27.9915 33.6585 26.2335 33.8955C24.5235 34.125 22.341 34.125 19.584 34.125H16.416C13.659 34.125 11.475 34.125 9.7665 33.8955C8.0085 33.6585 6.585 33.1605 5.4615 32.0385C4.3395 30.915 3.8415 29.4915 3.6045 27.7335C3.375 26.0235 3.375 23.841 3.375 21.084V14.916C3.375 12.159 3.375 9.975 3.6045 8.2665C3.8415 6.5085 4.3395 5.085 5.4615 3.9615C6.585 2.8395 8.0085 2.3415 9.7665 2.1045C11.4765 1.875 13.659 1.875 16.416 1.875Z" fill="#192741"/>
<g opacity="0.3">
<path d="M30.7492 11.7639C30.9705 11.8556 31.1716 11.99 31.341 12.1594C31.5104 12.3288 31.6449 12.5299 31.7366 12.7513C31.8283 12.9726 31.8755 13.2098 31.8755 13.4494C31.8755 13.689 31.8283 13.9263 31.7366 14.1476C31.6449 14.3689 31.5104 14.5701 31.341 14.7394L31.068 15.0124C30.4584 14.8291 29.9041 14.4966 29.4555 14.0449C28.9485 13.5379 28.68 12.9979 28.539 12.5929L28.488 12.4324L28.761 12.1594C28.9304 11.99 29.1315 11.8556 29.3528 11.7639C29.5742 11.6722 29.8114 11.625 30.051 11.625C30.2906 11.625 30.5278 11.6722 30.7492 11.7639Z" fill="#192741"/>
<path d="M27.864 15.6364C28.2996 16.0758 28.8005 16.4452 29.349 16.7314L24.255 21.8254C23.8035 22.2769 23.6415 22.4359 23.4705 22.5694C23.2515 22.7384 23.018 22.8829 22.77 23.0029C22.5735 23.0959 22.359 23.1694 21.753 23.3719L19.953 23.9719L19.5285 23.5474L20.1285 21.7474C20.331 21.1414 20.4045 20.9269 20.4975 20.7304C20.6165 20.4814 20.761 20.2479 20.931 20.0299C21.0645 19.8589 21.2235 19.6969 21.675 19.2454L26.769 14.1514C27.0553 14.6999 27.4246 15.2009 27.864 15.6364Z" fill="#192741"/>
<path d="M11.2045 12.7049C10.9935 12.9159 10.875 13.2021 10.875 13.5004C10.875 13.7988 10.9935 14.0849 11.2045 14.2959C11.4155 14.5069 11.7016 14.6254 12 14.6254H21.75C22.0484 14.6254 22.3345 14.5069 22.5455 14.2959C22.7565 14.0849 22.875 13.7988 22.875 13.5004C22.875 13.2021 22.7565 12.9159 22.5455 12.7049C22.3345 12.494 22.0484 12.3754 21.75 12.3754H12C11.7016 12.3754 11.4155 12.494 11.2045 12.7049Z" fill="#192741"/>
<path d="M11.2045 18.7049C10.9935 18.9159 10.875 19.2021 10.875 19.5004C10.875 19.7988 10.9935 20.0849 11.2045 20.2959C11.4155 20.5069 11.7016 20.6254 12 20.6254H15.75C16.0484 20.6254 16.3345 20.5069 16.5455 20.2959C16.7565 20.0849 16.875 19.7988 16.875 19.5004C16.875 19.2021 16.7565 18.9159 16.5455 18.7049C16.3345 18.494 16.0484 18.3754 15.75 18.3754H12C11.7016 18.3754 11.4155 18.494 11.2045 18.7049Z" fill="#192741"/>
<path d="M11.2045 24.7049C10.9935 24.9159 10.875 25.2021 10.875 25.5004C10.875 25.7988 10.9935 26.085 11.2045 26.2959C11.4155 26.5069 11.7016 26.6254 12 26.6254H14.25C14.5484 26.6254 14.8345 26.5069 15.0455 26.2959C15.2565 26.085 15.375 25.7988 15.375 25.5004C15.375 25.2021 15.2565 24.9159 15.0455 24.7049C14.8345 24.494 14.5484 24.3754 14.25 24.3754H12C11.7016 24.3754 11.4155 24.494 11.2045 24.7049Z" fill="#192741"/>
</g>
</svg>
