<svg width="36" height="36" viewBox="0 0 36 36" fill="none" xmlns="http://www.w3.org/2000/svg">
<path d="M17.25 33C11.2395 33 8.235 33 6.3675 30.8025C4.5 28.608 4.5 25.071 4.5 18C4.5 10.929 4.5 7.3935 6.3675 5.196C8.235 2.9985 11.2395 3 17.25 3C23.2605 3 26.265 3 28.1325 5.196C29.6355 6.966 29.9295 9.6015 29.9865 14.25M12 12H22.5M12 19.5H16.5" stroke="#192741" stroke-width="2.25" stroke-linecap="round" stroke-linejoin="round"/>
<path opacity="0.3" d="M29.4159 27.1575C30.2807 26.5289 30.9243 25.6427 31.2544 24.6259C31.5846 23.6091 31.5844 22.5138 31.2538 21.4971C30.9232 20.4804 30.2793 19.5945 29.4143 18.9663C28.5492 18.3381 27.5075 17.9998 26.4384 18H26.0619C24.993 18.0001 23.9515 18.3386 23.0867 18.9669C22.2219 19.5953 21.5782 20.4812 21.2479 21.4978C20.9175 22.5145 20.9174 23.6096 21.2476 24.6262C21.5778 25.6429 22.2213 26.529 23.0859 27.1575M23.0859 27.1575C23.9502 27.7876 24.9924 28.1264 26.0619 28.125H26.4369C27.5065 28.1264 28.5487 27.7876 29.4129 27.1575L30.2874 29.91C30.6204 30.96 30.7884 31.485 30.7419 31.812C30.6474 32.493 30.0924 32.997 29.4369 33C29.1219 33 28.6509 32.754 27.7074 32.259C27.3024 32.046 27.1014 31.941 26.8944 31.878C26.4737 31.7521 26.0252 31.7521 25.6044 31.878C25.3974 31.941 25.1949 32.046 24.7914 32.259C23.8479 32.754 23.3769 33.0015 23.0619 33C22.4064 32.997 21.8514 32.493 21.7569 31.812C21.7119 31.485 21.8769 30.96 22.2114 29.91L23.0859 27.1575Z" stroke="#192741" stroke-width="2.25"/>
</svg>
