<svg width="36" height="36" viewBox="0 0 36 36" fill="none" xmlns="http://www.w3.org/2000/svg">
<path d="M9.75 3.75C13.0858 3.75 15.75 6.41421 15.75 9.75C15.75 10.8619 15.3744 12.1654 14.7607 13.5352C14.1516 14.895 13.3325 16.2655 12.5029 17.4961C11.6747 18.7246 10.8449 19.8005 10.2217 20.5693C10.0464 20.7856 9.8874 20.977 9.75 21.1406C9.6126 20.977 9.45361 20.7856 9.27832 20.5693C8.65513 19.8005 7.82527 18.7246 6.99707 17.4961C6.16745 16.2655 5.34844 14.895 4.73926 13.5352C4.12564 12.1654 3.75 10.8619 3.75 9.75C3.75 6.41421 6.41421 3.75 9.75 3.75ZM26.25 3.75C29.5858 3.75 32.25 6.41421 32.25 9.75C32.25 10.8619 31.8744 12.1654 31.2607 13.5352C30.6516 14.895 29.8325 16.2655 29.0029 17.4961C28.1747 18.7246 27.3449 19.8005 26.7217 20.5693C26.5464 20.7856 26.3874 20.977 26.25 21.1406C26.1126 20.977 25.9536 20.7856 25.7783 20.5693C25.1551 19.8005 24.3253 18.7246 23.4971 17.4961C22.6675 16.2655 21.8484 14.895 21.2393 13.5352C20.6256 12.1654 20.25 10.8619 20.25 9.75C20.25 6.41421 22.9142 3.75 26.25 3.75ZM9.75 6.58496C8.91059 6.58496 8.10527 6.91817 7.51172 7.51172C6.91817 8.10527 6.58496 8.91059 6.58496 9.75C6.58496 11.4992 8.00079 12.915 9.75 12.915C10.5894 12.915 11.3947 12.5818 11.9883 11.9883C12.5818 11.3947 12.915 10.5894 12.915 9.75C12.915 8.00079 11.4992 6.58496 9.75 6.58496ZM26.25 6.58496C25.8344 6.58496 25.423 6.66715 25.0391 6.82617C24.6551 6.98523 24.3056 7.21782 24.0117 7.51172C23.7178 7.80561 23.4852 8.15506 23.3262 8.53906C23.1672 8.92302 23.085 9.33441 23.085 9.75C23.085 10.5894 23.4182 11.3947 24.0117 11.9883C24.6053 12.5818 25.4106 12.915 26.25 12.915C27.0894 12.915 27.8947 12.5818 28.4883 11.9883C29.0818 11.3947 29.415 10.5894 29.415 9.75C29.415 9.33441 29.3328 8.92302 29.1738 8.53906C29.0148 8.15506 28.7822 7.80561 28.4883 7.51172C28.1944 7.21782 27.8449 6.98523 27.4609 6.82617C27.077 6.66715 26.6656 6.58496 26.25 6.58496Z" stroke="#192741" stroke-width="1.5"/>
<path opacity="0.3" fill-rule="evenodd" clip-rule="evenodd" d="M22.0193 27C22.6493 25.2 24.3443 24 26.2493 24C28.1693 24 29.8793 25.2 30.5243 27C30.7209 27.5593 30.805 28.152 30.7718 28.7439C30.7386 29.3359 30.5888 29.9154 30.3309 30.4493C30.0731 30.9831 29.7122 31.4608 29.2692 31.8548C28.8262 32.2487 28.3096 32.5513 27.7493 32.745C25.4393 33.57 22.8593 32.34 22.0343 30H13.9793C13.4993 31.275 12.5243 32.295 11.2493 32.745C10.1213 33.141 8.88245 33.0746 7.80324 32.5603C6.72403 32.046 5.89217 31.1256 5.48932 30C5.29301 29.4416 5.20868 28.8499 5.24116 28.2589C5.27365 27.6679 5.4223 27.089 5.67863 26.5555C5.93495 26.0219 6.29393 25.5441 6.73502 25.1494C7.17612 24.7547 7.69069 24.4507 8.24932 24.255C9.37325 23.8612 10.6075 23.929 11.6815 24.4435C12.7556 24.958 13.5818 25.8774 13.9793 27H22.0193ZM26.2493 30.75C25.6526 30.75 25.0803 30.5129 24.6583 30.091C24.2364 29.669 23.9993 29.0967 23.9993 28.5C23.9993 27.9033 24.2364 27.331 24.6583 26.909C25.0803 26.4871 25.6526 26.25 26.2493 26.25C26.8461 26.25 27.4183 26.4871 27.8403 26.909C28.2623 27.331 28.4993 27.9033 28.4993 28.5C28.4993 29.0967 28.2623 29.669 27.8403 30.091C27.4183 30.5129 26.8461 30.75 26.2493 30.75Z" fill="#192741"/>
</svg>
