<svg width="36" height="36" viewBox="0 0 36 36" fill="none" xmlns="http://www.w3.org/2000/svg">
<path d="M24.9525 21.8359L26.655 22.4914C29.8875 23.7364 31.5 24.3574 31.5 25.5004C31.5 26.6434 29.886 27.2659 26.655 28.5094L21.471 30.5059C19.7505 31.1704 18.891 31.5004 18 31.5004C17.109 31.5004 16.248 31.1689 14.5275 30.5059L9.345 28.5094C6.114 27.2644 4.5 26.6434 4.5 25.5004C4.5 24.3574 6.114 23.7349 9.345 22.4914L11.0475 21.8359" stroke="#192741" stroke-width="2.25" stroke-linecap="round" stroke-linejoin="round"/>
<path d="M24.75 14.2574L26.655 14.9924C29.8875 16.2344 31.5 16.8554 31.5 17.9999C31.5 19.1444 29.886 19.7654 26.655 21.0089L21.471 23.0069C19.7505 23.6684 18.891 23.9999 18 23.9999C17.109 23.9999 16.248 23.6699 14.5275 23.0069L9.345 21.0089C6.114 19.7654 4.5 19.1429 4.5 17.9999C4.5 16.8569 6.114 16.2359 9.345 14.9909L11.25 14.2559M28.5 15.7499L13.14 22.3319M7.5 20.2499L15.75 16.4999" stroke="#B4BAC2" stroke-width="2.25" stroke-linecap="round" stroke-linejoin="round"/>
<path d="M26.655 7.491L21.4725 5.4945C19.7505 4.83 18.891 4.5 18 4.5C17.109 4.5 16.2495 4.83 14.529 5.4945L9.3435 7.491C6.114 8.736 4.5 9.357 4.5 10.5C4.5 11.643 6.114 12.2655 9.345 13.509L14.5275 15.5055C16.248 16.1685 17.1075 16.5 18 16.5C18.8895 16.5 19.7505 16.17 21.471 15.5055L26.655 13.5105C29.886 12.264 31.5 11.6415 31.5 10.5C31.5 9.3585 29.886 8.7345 26.655 7.491Z" stroke="#192741" stroke-width="2.25" stroke-linecap="round" stroke-linejoin="round"/>
</svg>
