<svg width="36" height="36" viewBox="0 0 36 36" fill="none" xmlns="http://www.w3.org/2000/svg">
<path opacity="0.34" d="M4.1895 31.8105C4.629 32.25 5.3355 32.25 6.75 32.25H21.75C23.1645 32.25 23.871 32.25 24.3105 31.8105M4.1895 31.8105C3.75 31.371 3.75 30.6645 3.75 29.25M4.1895 31.8105L13.1895 22.8105M4.1895 31.8105L3.75 29.25M24.3105 31.8105C24.75 31.371 24.75 30.6645 24.75 29.25V14.25C24.75 12.8355 24.75 12.129 24.3105 11.6895M24.3105 31.8105L31.8105 24.3105C32.25 23.871 32.25 23.1645 32.25 21.75V6.75C32.25 5.3355 32.25 4.629 31.8105 4.1895M3.75 29.25V14.25C3.75 12.8355 3.75 12.129 4.1895 11.6895M4.1895 11.6895C4.629 11.25 5.3355 11.25 6.75 11.25H21.75C23.1645 11.25 23.871 11.25 24.3105 11.6895M4.1895 11.6895L11.6895 4.1895C12.129 3.75 12.8355 3.75 14.25 3.75H29.25C30.6645 3.75 31.371 3.75 31.8105 4.1895M13.1895 22.8105C13.629 23.25 14.3355 23.25 15.75 23.25H21M13.1895 22.8105C12.75 22.371 12.75 21.6645 12.75 20.25V15.75M24.3105 11.6895L31.8105 4.1895" stroke="#192741" stroke-width="2.25" stroke-linecap="round" stroke-linejoin="round"/>
<path d="M24.3105 31.8105C23.871 32.25 23.1645 32.25 21.75 32.25H6.75H3.75V29.25V14.25C3.75 12.8355 3.75 12.129 4.1895 11.6895M24.3105 31.8105C24.75 31.371 24.75 30.6645 24.75 29.25V14.25C24.75 12.8355 24.75 12.129 24.3105 11.6895M24.3105 31.8105L31.8105 24.3105C32.25 23.871 32.25 23.1645 32.25 21.75V6.75C32.25 5.3355 32.25 4.629 31.8105 4.1895M4.1895 11.6895C4.629 11.25 5.3355 11.25 6.75 11.25H21.75C23.1645 11.25 23.871 11.25 24.3105 11.6895M4.1895 11.6895L11.6895 4.1895C12.129 3.75 12.8355 3.75 14.25 3.75H29.25C30.6645 3.75 31.371 3.75 31.8105 4.1895M24.3105 11.6895L31.8105 4.1895" stroke="#192741" stroke-width="2.25" stroke-linecap="round" stroke-linejoin="round"/>
</svg>
