<svg width="36" height="36" viewBox="0 0 36 36" fill="none" xmlns="http://www.w3.org/2000/svg">
<path d="M15.8242 30.8623L12.6367 27.6748C12.3367 27.3748 12.1927 27.0188 12.2047 26.6068C12.2167 26.1948 12.3732 25.8383 12.6742 25.5373C12.9752 25.2363 13.3317 25.0863 13.7437 25.0873C14.1557 25.0883 14.5117 25.2383 14.8117 25.5373L17.9992 28.7623L21.1867 25.5748C21.4617 25.2998 21.8117 25.1623 22.2367 25.1623C22.6617 25.1623 23.0117 25.2998 23.2867 25.5748C23.5617 25.8498 23.6992 26.1998 23.6992 26.6248C23.6992 27.0498 23.5617 27.3998 23.2867 27.6748L20.0992 30.8623C19.7992 31.1623 19.4617 31.3873 19.0867 31.5373C18.7117 31.6873 18.3367 31.7623 17.9617 31.7623C17.5867 31.7623 17.2117 31.6873 16.8367 31.5373C16.4617 31.3873 16.1242 31.1623 15.8242 30.8623ZM8.28672 23.3623L5.09922 20.1748C4.79922 19.8748 4.57422 19.5373 4.42422 19.1623C4.27422 18.7873 4.19922 18.4123 4.19922 18.0373C4.19922 17.6623 4.27422 17.2873 4.42422 16.9123C4.57422 16.5373 4.79922 16.1998 5.09922 15.8998L8.28672 12.7123C8.58672 12.4123 8.94322 12.2623 9.35622 12.2623C9.76922 12.2623 10.1252 12.4123 10.4242 12.7123C10.7232 13.0123 10.8732 13.3688 10.8742 13.7818C10.8752 14.1948 10.7252 14.5508 10.4242 14.8498L7.19922 18.0748L10.3867 21.2623C10.6617 21.5373 10.7992 21.8873 10.7992 22.3123C10.7992 22.7373 10.6617 23.0873 10.3867 23.3623C10.1117 23.6373 9.76172 23.7748 9.33672 23.7748C8.91172 23.7748 8.56172 23.6373 8.28672 23.3623ZM12.6367 8.3248L15.8242 5.1373C16.1242 4.8373 16.4617 4.6123 16.8367 4.4623C17.2117 4.3123 17.5867 4.2373 17.9617 4.2373C18.3367 4.2373 18.7117 4.3123 19.0867 4.4623C19.4617 4.6123 19.7992 4.8373 20.0992 5.1373L23.2867 8.3248C23.5867 8.6248 23.7367 8.9748 23.7367 9.3748C23.7367 9.7748 23.5867 10.1248 23.2867 10.4248C22.9867 10.7248 22.6307 10.8748 22.2187 10.8748C21.8067 10.8748 21.4502 10.7248 21.1492 10.4248L17.9242 7.2373L14.7367 10.4248C14.4617 10.6998 14.1117 10.8373 13.6867 10.8373C13.2617 10.8373 12.9117 10.6998 12.6367 10.4248C12.3617 10.1498 12.2242 9.7998 12.2242 9.3748C12.2242 8.9498 12.3617 8.5998 12.6367 8.3248ZM25.5367 21.1873L28.7242 17.9998L25.5367 14.8123C25.2617 14.5373 25.1242 14.1873 25.1242 13.7623C25.1242 13.3373 25.2617 12.9873 25.5367 12.7123C25.8117 12.4373 26.1617 12.2998 26.5867 12.2998C27.0117 12.2998 27.3617 12.4373 27.6367 12.7123L30.8242 15.8998C31.1242 16.1998 31.3492 16.5373 31.4992 16.9123C31.6492 17.2873 31.7242 17.6623 31.7242 18.0373C31.7242 18.4123 31.6492 18.7873 31.4992 19.1623C31.3492 19.5373 31.1242 19.8748 30.8242 20.1748L27.6367 23.3623C27.3367 23.6623 26.9867 23.8063 26.5867 23.7943C26.1867 23.7823 25.8367 23.6258 25.5367 23.3248C25.2367 23.0238 25.0867 22.6678 25.0867 22.2568C25.0867 21.8458 25.2367 21.4893 25.5367 21.1873Z" fill="#192741"/>
<path opacity="0.3" d="M14.7734 21.2246C15.6484 22.0996 16.7109 22.5371 17.9609 22.5371C19.2109 22.5371 20.2734 22.0996 21.1484 21.2246C22.0234 20.3496 22.4609 19.2871 22.4609 18.0371C22.4609 16.7871 22.0234 15.7246 21.1484 14.8496C20.2734 13.9746 19.2109 13.5371 17.9609 13.5371C16.7109 13.5371 15.6484 13.9746 14.7734 14.8496C13.8984 15.7246 13.4609 16.7871 13.4609 18.0371C13.4609 19.2871 13.8984 20.3496 14.7734 21.2246Z" fill="#192741"/>
</svg>
