<svg width="36" height="36" viewBox="0 0 36 36" fill="none" xmlns="http://www.w3.org/2000/svg">
  <path d="M16.5 9C16.5 8.17157 15.8258 7.49034 15.0039 7.59362C13.1606 7.82524 11.3891 8.4827 9.83316 9.52236C7.85977 10.8409 6.3217 12.7151 5.41345 14.9078C4.50519 17.1005 4.26755 19.5133 4.73058 21.8411C5.1936 24.1689 6.33649 26.3071 8.01472 27.9853C9.69295 29.6635 11.8311 30.8064 14.1589 31.2694C16.4867 31.7324 18.8995 31.4948 21.0922 30.5866C23.2849 29.6783 25.1591 28.1402 26.4776 26.1668C27.5173 24.6109 28.1748 22.8394 28.4064 20.9961C28.5097 20.1742 27.8284 19.5 27 19.5H18.75C17.5074 19.5 16.5 18.4926 16.5 17.25V9Z" stroke="#192741" stroke-width="2.25" />
  <path opacity="0.3" d="M21 6C21 5.17157 21.6749 4.48902 22.4949 4.60696C23.3596 4.73134 24.2074 4.96344 25.0182 5.29927C26.2921 5.82694 27.4496 6.60036 28.4246 7.57538C29.3996 8.5504 30.1731 9.70791 30.7007 10.9818C31.0366 11.7926 31.2687 12.6404 31.393 13.5051C31.511 14.3251 30.8284 15 30 15L22.5 15C21.6716 15 21 14.3284 21 13.5V6Z" stroke="#192741" stroke-width="2.25" />
</svg>