<svg width="36" height="36" viewBox="0 0 36 36" fill="none" xmlns="http://www.w3.org/2000/svg">
<path d="M27 30V31.125V30ZM9 6V4.875V6ZM3.4729 14.4531L3.10616 15.5167L3.4729 14.4531ZM3.47288 21.5459L3.10618 20.4823L3.47288 21.5459ZM32.5271 14.4531L32.1604 13.3896L32.5271 14.4531ZM27 6V7.125C29.6924 7.125 31.875 9.30761 31.875 12H33H34.125C34.125 8.06497 30.935 4.875 27 4.875V6ZM33 12H31.875V13.8338H33H34.125V12H33ZM32.5271 14.4531L32.1604 13.3896C30.2497 14.0484 28.875 15.8627 28.875 18H30H31.125C31.125 16.8514 31.8631 15.8721 32.8938 15.5167L32.5271 14.4531ZM30 18H28.875C28.875 20.1376 30.2501 21.9508 32.1604 22.6095L32.5271 21.5459L32.8938 20.4823C31.8629 20.1269 31.125 19.1482 31.125 18H30ZM33 22.1652H31.875V24H33H34.125V22.1652H33ZM33 24H31.875C31.875 26.6924 29.6924 28.875 27 28.875V30V31.125C30.935 31.125 34.125 27.935 34.125 24H33ZM27 30V28.875H9V30V31.125H27V30ZM9 30V28.875C6.30761 28.875 4.125 26.6924 4.125 24H3H1.875C1.875 27.935 5.06497 31.125 9 31.125V30ZM3 24H4.125V22.1652H3H1.875V24H3ZM3.47288 21.5459L3.83957 22.6095C5.74993 21.9508 7.125 20.1376 7.125 18H6H4.875C4.875 19.1482 4.13708 20.1269 3.10618 20.4823L3.47288 21.5459ZM6 18H7.125C7.125 15.8627 5.75032 14.0484 3.83965 13.3896L3.4729 14.4531L3.10616 15.5167C4.13685 15.8721 4.875 16.8514 4.875 18H6ZM3 13.8338H4.125V12H3H1.875V13.8338H3ZM3 12H4.125C4.125 9.30761 6.30761 7.125 9 7.125V6V4.875C5.06497 4.875 1.875 8.06497 1.875 12H3ZM9 6V7.125H27V6V4.875H9V6ZM3.4729 14.4531L3.83965 13.3896C3.93978 13.4241 4.125 13.5561 4.125 13.8338H3H1.875C1.875 14.6822 2.46647 15.2961 3.10616 15.5167L3.4729 14.4531ZM3 22.1652H4.125C4.125 22.4429 3.93979 22.5749 3.83957 22.6095L3.47288 21.5459L3.10618 20.4823C2.46641 20.7029 1.875 21.3169 1.875 22.1652H3ZM32.5271 21.5459L32.1604 22.6095C32.0602 22.5749 31.875 22.4429 31.875 22.1652H33H34.125C34.125 21.3169 33.5336 20.7029 32.8938 20.4823L32.5271 21.5459ZM33 13.8338H31.875C31.875 13.5561 32.0602 13.4241 32.1604 13.3896L32.5271 14.4531L32.8938 15.5167C33.5335 15.2961 34.125 14.6822 34.125 13.8338H33Z" fill="#192741"/>
<path opacity="0.3" d="M17.4015 12.7925C17.7016 12.3951 18.2984 12.3951 18.5985 12.7925L20.0842 14.7596C20.1739 14.8785 20.297 14.9679 20.4377 15.0165L22.7677 15.8216C23.2383 15.9842 23.4228 16.5518 23.1376 16.96L21.7258 18.9808C21.6405 19.1029 21.5935 19.2476 21.5908 19.3965L21.5451 21.8612C21.5359 22.359 21.053 22.7098 20.5767 22.5648L18.2185 21.8466C18.0761 21.8032 17.9239 21.8032 17.7815 21.8466L15.4233 22.5648C14.947 22.7098 14.4641 22.359 14.4549 21.8612L14.4092 19.3965C14.4065 19.2476 14.3595 19.1029 14.2742 18.9808L12.8624 16.96C12.5772 16.5518 12.7617 15.9842 13.2323 15.8216L15.5623 15.0165C15.703 14.9679 15.8261 14.8785 15.9158 14.7596L17.4015 12.7925Z" stroke="#192741" stroke-width="2.25"/>
</svg>
