<svg width="36" height="36" viewBox="0 0 36 36" fill="none" xmlns="http://www.w3.org/2000/svg">
<path d="M13.4574 10.6486C13.4254 10.3992 13.4094 10.2745 13.3244 10.1998C13.2394 10.125 13.1137 10.125 12.8623 10.125H5.00637C4.75494 10.125 4.62924 10.125 4.54425 10.1998C4.45927 10.2745 4.44327 10.3992 4.41126 10.6486L1.96242 29.7243C1.91818 30.0678 1.87113 30.4333 1.87525 30.7434C1.88005 31.1038 1.95223 31.581 2.32029 31.9943C2.68638 32.4053 3.15 32.5335 3.50451 32.5827C3.81225 32.6255 4.18231 32.6253 4.5334 32.6251H15C15.3232 32.6251 15.631 32.4861 15.8446 32.2433C16.0582 32.0006 16.1569 31.6776 16.1158 31.3569L13.4574 10.6486Z" fill="#192741"/>
<path opacity="0.4" d="M8.9339 3.375C7.87331 3.375 6.80817 3.46812 6.03012 4.14873C5.24937 4.83171 5.02389 5.87277 4.89102 6.9077L4.8537 7.19841C4.81324 7.51356 4.79302 7.67115 4.88262 7.77297C4.97221 7.8748 5.13108 7.8748 5.44882 7.8748H12.419C12.7367 7.8748 12.8956 7.8748 12.9852 7.77297C13.0748 7.67115 13.0546 7.51356 13.0141 7.19841L12.9768 6.9077C12.8439 5.87277 12.6184 4.83171 11.8377 4.14873C11.0596 3.46812 9.9945 3.375 8.9339 3.375Z" fill="#192741"/>
<path opacity="0.4" d="M33.476 9.48123C33.8712 9.66638 34.1238 10.0635 34.1238 10.5V30.0516C34.1238 30.0516 34.124 30.6925 34.0863 30.9729C34.0421 31.3018 33.9282 31.7221 33.5745 32.0758C33.2208 32.4295 32.8007 32.5433 32.4716 32.5875C32.1908 32.6253 31.8581 32.6251 31.5504 32.625H19.0293C18.6651 32.625 18.483 32.625 18.3938 32.5275C18.3045 32.4301 18.3233 32.2194 18.3606 31.798C18.3819 31.5577 18.3776 31.3139 18.3462 31.0704L16.278 14.9595C16.2557 14.7849 16.2444 14.6976 16.278 14.6213C16.3116 14.545 16.3835 14.4943 16.5273 14.3928L23.3504 9.5807C23.6937 9.33849 24.1434 9.30785 24.5165 9.50123C24.8895 9.69462 25.1238 10.0798 25.1238 10.5L25.1271 14.3099C25.1276 14.8632 25.1279 15.14 25.3004 15.2207C25.473 15.3015 25.6857 15.1245 26.111 14.7705L32.2785 9.63576C32.6139 9.35631 33.0806 9.29607 33.476 9.48123Z" fill="#192741"/>
<path fill-rule="evenodd" clip-rule="evenodd" d="M21.375 22.5C21.375 21.8787 21.8787 21.375 22.5 21.375H24C24.6213 21.375 25.125 21.8787 25.125 22.5C25.125 23.1213 24.6213 23.625 24 23.625H22.5C21.8787 23.625 21.375 23.1213 21.375 22.5Z" fill="#192741"/>
<path fill-rule="evenodd" clip-rule="evenodd" d="M27.375 22.5C27.375 21.8787 27.8787 21.375 28.5 21.375H30C30.6213 21.375 31.125 21.8787 31.125 22.5C31.125 23.1213 30.6213 23.625 30 23.625H28.5C27.8787 23.625 27.375 23.1213 27.375 22.5Z" fill="#192741"/>
</svg>
