<svg width="36" height="36" viewBox="0 0 36 36" fill="none" xmlns="http://www.w3.org/2000/svg">
<path opacity="0.4" fill-rule="evenodd" clip-rule="evenodd" d="M15 22.5C15 21.6716 15.6716 21 16.5 21H19.5C20.3285 21 21 21.6716 21 22.5C21 23.3284 20.3285 24 19.5 24H16.5C15.6716 24 15 23.3284 15 22.5Z" fill="#192741"/>
<path opacity="0.4" d="M22.2459 25.875H13.754L14.327 27.3964C14.6391 28.2252 14.6978 29.1459 14.5426 29.9849C14.4414 30.5324 14.3908 30.8061 13.9738 31.153C13.5568 31.5 13.147 31.5 12.3272 31.5H10.5C9.67158 31.5 9 32.1715 9 33C9 33.8285 9.67158 34.5 10.5 34.5H25.5C26.3284 34.5 27 33.8285 27 33C27 32.1715 26.3284 31.5 25.5 31.5H23.6727C22.853 31.5 22.4432 31.5 22.0261 31.153C21.6091 30.8061 21.5586 30.5324 21.4573 29.9849C21.3021 29.1459 21.3607 28.2252 21.6729 27.3964L22.2459 25.875Z" fill="#192741"/>
<path fill-rule="evenodd" clip-rule="evenodd" d="M14.9149 1.5H21.085C23.4723 1.49998 25.3824 1.49996 26.9088 1.66086C28.48 1.82648 29.8165 2.17598 30.982 2.99199C31.7703 3.54399 32.456 4.22967 33.0079 5.018C33.8241 6.18341 34.1736 7.51992 34.3392 9.09114C34.5 10.6176 34.5 12.5277 34.5 14.9149V15.085C34.5 17.4723 34.5 19.3824 34.3392 20.9088C34.1736 22.4801 33.8241 23.8165 33.0079 24.982C32.456 25.7703 31.7703 26.456 30.982 27.0079C29.8165 27.8241 28.48 28.1736 26.9088 28.3392C25.3824 28.5 23.4723 28.5 21.085 28.5H14.9149C12.5277 28.5 10.6176 28.5 9.09114 28.3392C7.51992 28.1736 6.18341 27.8241 5.018 27.0079C4.22967 26.456 3.54399 25.7703 2.99199 24.982C2.17598 23.8165 1.82648 22.4801 1.66086 20.9088C1.49996 19.3824 1.49998 17.4723 1.5 15.085V14.9149C1.49998 12.5277 1.49996 10.6176 1.66086 9.09114C1.82648 7.51992 2.17598 6.18341 2.99199 5.018C3.54399 4.22967 4.22967 3.54399 5.018 2.99199C6.18341 2.17598 7.51992 1.82648 9.09114 1.66086C10.6176 1.49996 12.5277 1.49998 14.9149 1.5ZM9.40562 4.64433C8.08158 4.78389 7.3167 5.04476 6.73872 5.44946C6.23706 5.80073 5.80073 6.23706 5.44946 6.73872C5.04476 7.3167 4.78389 8.08158 4.64433 9.40562C4.50195 10.7564 4.5 12.5081 4.5 15C4.5 17.4918 4.50195 19.2437 4.64433 20.5944C4.78389 21.9184 5.04476 22.6833 5.44946 23.2612C5.80073 23.763 6.23706 24.1994 6.73872 24.5505C7.3167 24.9552 8.08158 25.216 9.40562 25.3557C10.7564 25.498 12.5081 25.5 15 25.5H21C23.4918 25.5 25.2437 25.498 26.5944 25.3557C27.9185 25.216 28.6833 24.9552 29.2612 24.5505C29.763 24.1994 30.1994 23.763 30.5505 23.2612C30.9552 22.6833 31.216 21.9184 31.3557 20.5944C31.498 19.2437 31.5 17.4918 31.5 15C31.5 12.5081 31.498 10.7564 31.3557 9.40562C31.216 8.08158 30.9552 7.3167 30.5505 6.73872C30.1994 6.23706 29.763 5.80073 29.2612 5.44946C28.6833 5.04476 27.9185 4.78389 26.5944 4.64433C25.2437 4.50195 23.4918 4.5 21 4.5H15C12.5081 4.5 10.7564 4.50195 9.40562 4.64433Z" fill="#192741"/>
</svg>
