<svg width="36" height="36" viewBox="0 0 36 36" fill="none" xmlns="http://www.w3.org/2000/svg">
<path opacity="0.4" d="M32.9088 9.65414C32.45 9.04798 31.8014 8.81945 31.1792 8.72462C30.6236 8.63993 29.9282 8.64003 29.1725 8.64015H7.62305L11.0873 24.4801H22.8954C24.6923 24.4801 26.1903 24.2097 27.44 23.653C28.7022 23.0905 29.6511 22.2625 30.3804 21.2407C31.7882 19.2683 32.3868 16.5332 32.9951 13.6328L33.0092 13.5653C33.1761 12.7693 33.3228 12.0704 33.3636 11.5014C33.4068 10.8973 33.3504 10.2376 32.9088 9.65414Z" fill="#192741"/>
<path fill-rule="evenodd" clip-rule="evenodd" d="M2.24854 3.2398C2.24854 2.44451 2.92012 1.7998 3.74854 1.7998H5.15621C7.22111 1.7998 9.02103 3.14893 9.52185 5.07205L9.52877 5.09861L13.1536 21.6143H12.7014C11.7849 21.6143 10.9509 21.8787 10.2385 22.3014L6.60551 5.74854C6.4307 5.11925 5.83661 4.6798 5.15621 4.6798H3.74854C2.92012 4.6798 2.24854 4.0351 2.24854 3.2398ZM26.0123 26.2821H15.9878C15.9092 26.2768 15.83 26.2742 15.75 26.2742C15.6701 26.2742 15.5909 26.2768 15.5123 26.2821H10.6338C10.7574 25.9038 10.9606 25.5453 11.225 25.2467C11.6758 24.738 12.2102 24.4967 12.7007 24.4967C13.0204 24.4967 13.6683 24.4874 13.6683 24.4874C13.7028 24.3083 13.7022 24.12 13.6607 23.9306L13.1529 21.6167H12.7007C11.7842 21.6167 10.9503 21.8813 10.2379 22.304C9.74218 22.5982 9.30532 22.9691 8.94041 23.3811C8.05275 24.383 7.49854 25.7217 7.49854 27.1049C7.49854 28.1851 8.3893 29.1621 9.61568 29.1621H12.3947C12.3817 29.2777 12.375 29.3952 12.375 29.5142C12.375 31.3035 13.886 32.7542 15.75 32.7542C17.6139 32.7542 19.125 31.3035 19.125 29.5142C19.125 29.3952 19.1183 29.2777 19.1054 29.1621H22.8947C22.8818 29.2777 22.875 29.3952 22.875 29.5142C22.875 31.3035 24.3861 32.7542 26.25 32.7542C28.1139 32.7542 29.625 31.3035 29.625 29.5142C29.625 27.7248 28.1139 26.2742 26.25 26.2742C26.1701 26.2742 26.0909 26.2768 26.0123 26.2821ZM15.75 28.4342C15.1287 28.4342 14.625 28.9177 14.625 29.5142C14.625 30.1106 15.1287 30.5942 15.75 30.5942C16.3713 30.5942 16.875 30.1106 16.875 29.5142C16.875 28.9177 16.3713 28.4342 15.75 28.4342ZM25.125 29.5142C25.125 28.9177 25.6287 28.4342 26.25 28.4342C26.8713 28.4342 27.375 28.9177 27.375 29.5142C27.375 30.1106 26.8713 30.5942 26.25 30.5942C25.6287 30.5942 25.125 30.1106 25.125 29.5142Z" fill="#192741"/>
</svg>
