<svg width="36" height="36" viewBox="0 0 36 36" fill="none" xmlns="http://www.w3.org/2000/svg">
<path fill-rule="evenodd" clip-rule="evenodd" d="M20.5568 1.95152C21.0266 2.05896 21.5124 2.27462 21.978 2.51229L28.5528 5.86932C29.3062 6.25403 29.9713 6.59351 30.4971 6.93512C31.0676 7.30583 31.5788 7.74269 31.9602 8.37302C32.3406 9.00144 32.4925 9.65811 32.5614 10.3373C32.6251 10.9666 32.625 11.7224 32.625 12.5847V31.8752C32.625 32.7036 31.9534 33.3752 31.125 33.3752C30.2966 33.3752 29.625 32.7036 29.625 31.8752V12.6536C29.625 11.7023 29.6232 11.0997 29.5767 10.6395C29.5333 10.2123 29.4614 10.0382 29.3937 9.92634C29.3271 9.81635 29.2108 9.67708 28.8625 9.45073C28.4838 9.20467 27.9606 8.93544 27.1262 8.50936L20.625 5.18994V5.21828V10.8752H17.625V5.21828C17.625 4.70174 17.6511 4.17818 17.7586 3.71724C17.863 3.27054 18.1038 2.62451 18.7427 2.21108C19.3943 1.78937 20.0921 1.84521 20.5568 1.95152ZM9.375 19.5002V16.5002H6.375C6.03228 16.5002 5.65434 16.5161 5.29522 16.595C4.91913 16.6776 4.47476 16.8483 4.09896 17.2241C3.72317 17.6 3.55242 18.0443 3.4698 18.4205C3.3909 18.7796 3.375 19.1574 3.375 19.5002V31.5002C3.375 32.3286 4.04658 33.0002 4.875 33.0002C5.70342 33.0002 6.375 32.3286 6.375 31.5002V19.5002H9.375Z" fill="#192741"/>
<path opacity="0.4" d="M26.625 30.225V16.5C26.625 15.545 26.5767 14.7015 26.4192 13.9848C26.259 13.2555 25.9708 12.5876 25.4417 12.0584C24.9124 11.5292 24.2445 11.241 23.5152 11.0808C22.7985 10.9233 21.955 10.875 21 10.875H15C14.0449 10.875 13.2015 10.9233 12.4848 11.0808C11.7555 11.241 11.0876 11.5292 10.5584 12.0584C10.0292 12.5876 9.74101 13.2555 9.58078 13.9848C9.42334 14.7015 9.375 15.545 9.375 16.5V30.225V32.25H26.625V30.225Z" fill="#192741"/>
<path d="M3 31.125C2.17158 31.125 1.5 31.7966 1.5 32.625C1.5 33.4534 2.17158 34.125 3 34.125H33C33.8284 34.125 34.5 33.4534 34.5 32.625C34.5 31.7966 33.8284 31.125 33 31.125H3Z" fill="#192741"/>
<path fill-rule="evenodd" clip-rule="evenodd" d="M15.375 16.5C15.375 15.8787 15.8787 15.375 16.5 15.375H19.5C20.1213 15.375 20.625 15.8787 20.625 16.5C20.625 17.1213 20.1213 17.625 19.5 17.625H16.5C15.8787 17.625 15.375 17.1213 15.375 16.5ZM15.375 21C15.375 20.3787 15.8787 19.875 16.5 19.875H19.5C20.1213 19.875 20.625 20.3787 20.625 21C20.625 21.6213 20.1213 22.125 19.5 22.125H16.5C15.8787 22.125 15.375 21.6213 15.375 21ZM15.375 25.5C15.375 24.8787 15.8787 24.375 16.5 24.375H19.5C20.1213 24.375 20.625 24.8787 20.625 25.5C20.625 26.1213 20.1213 26.625 19.5 26.625H16.5C15.8787 26.625 15.375 26.1213 15.375 25.5Z" fill="#192741"/>
</svg>
