<svg width="791" height="793" viewBox="0 0 791 793" fill="none" xmlns="http://www.w3.org/2000/svg">
<path d="M501.865 0H357.62L356.976 20.0652C355.479 64.0376 346.276 105.662 329.796 143.658C311.606 185.923 285.71 223.277 252.965 254.869C220.221 286.461 181.27 311.436 137.398 329.153C101.229 343.67 61.4223 352.207 19.6894 354.769L0 356.049V500.348H289.135V793H433.38L434.021 772.935C435.521 728.964 444.722 687.338 461.201 649.342C479.394 607.078 505.29 569.724 538.032 537.918C570.777 506.326 609.728 481.351 653.601 463.634C689.77 449.118 729.578 440.58 771.31 438.018L791 436.739V292.44H501.865V0Z" fill="#1B2B48"/>
</svg>
