<svg width="135" height="67" viewBox="0 0 135 67" fill="none" xmlns="http://www.w3.org/2000/svg">
<path d="M42.2236 42.9463H50.6167V45.6886H46.624V64.9573H42.2236V42.9463Z" fill="#0079C2"/>
<path d="M55.5928 56.6942L56.347 45.6886H56.5995L57.3537 56.6942H55.5928ZM50.7197 64.9573H55.0281L55.4359 59.1118H57.5107L57.9202 64.9573H62.2268L59.9319 42.9463H53.0146L50.7197 64.9573Z" fill="#0079C2"/>
<path d="M68.5282 57.2535V61.4031C68.5282 61.9624 68.9612 62.1247 69.2138 62.1247C69.6287 62.1247 69.9174 61.782 69.9174 61.4031V56.2792C69.9174 55.5936 69.7911 54.8359 68.1493 54.8359H66.3632V52.4183H68.2215C69.4663 52.4183 69.9174 52.1296 69.9174 50.7764V46.4103C69.9174 46.0315 69.6287 45.6886 69.2138 45.6886C68.9612 45.6886 68.5282 45.833 68.5282 46.4103V50.0006H64.126V46.8794C64.126 45.3459 64.3064 42.9463 67.3915 42.9463H71.036C74.1211 42.9463 74.3196 45.3459 74.3196 46.8794V50.3976C74.3196 52.7971 72.6417 53.4466 71.3247 53.3925V53.609C74.2835 53.5368 74.3196 55.8101 74.3196 56.5859V61.0242C74.3196 62.5758 74.1211 64.9573 71.036 64.9573H67.3915C64.3064 64.9573 64.126 62.5758 64.126 61.0242V57.2535H68.5282Z" fill="#0079C2"/>
<path d="M77.207 42.9463H87.4007V64.9573H82.9985V45.6886H81.6092V64.9573H77.207V42.9463Z" fill="#0079C2"/>
<path d="M94.6893 55.0524V45.6886H95.2667C95.7357 45.6886 96.0785 46.0856 96.0785 46.7892V53.9518C96.0785 54.6554 95.7357 55.0524 95.2667 55.0524H94.6893ZM90.2871 64.9573H94.6893V57.47H97.2152C100.282 57.47 100.481 55.0884 100.481 53.5368V46.8794C100.481 45.3459 100.282 42.9463 97.2152 42.9463H90.2871V64.9573Z" fill="#0079C2"/>
<path d="M109.159 61.4031C109.159 61.782 108.87 62.1247 108.455 62.1247C108.202 62.1247 107.769 61.9624 107.769 61.4031V46.4103C107.769 45.833 108.202 45.6886 108.455 45.6886C108.87 45.6886 109.159 46.0315 109.159 46.4103V61.4031ZM103.367 61.0242C103.367 62.5758 103.566 64.9573 106.633 64.9573H110.295C113.362 64.9573 113.561 62.5758 113.561 61.0242V46.8794C113.561 45.3459 113.362 42.9463 110.295 42.9463H106.633C103.566 42.9463 103.367 45.3459 103.367 46.8794V61.0242Z" fill="#0079C2"/>
<path d="M127.886 42.9463H133.623V64.9573H129.221V51.1553H129.058L126.785 64.9573H123.267L121.012 51.1553H120.849V64.9573H116.447V42.9463H122.167L125.035 58.4262L127.886 42.9463Z" fill="#0079C2"/>
<path d="M36.5183 12.8525C35.1706 6.95285 31.7932 2.15373 31.3277 1.37793C30.5916 2.47848 27.8979 6.7183 26.5286 11.4092C25.0329 16.6593 24.8128 21.3141 25.3288 25.8787C25.8412 30.4613 27.7771 35.1702 27.7771 35.1702C28.8054 37.6239 30.3462 40.2761 31.3493 41.5751C32.8197 39.6627 36.199 33.9615 37.2526 26.5282C37.839 22.3786 37.8642 18.7522 36.5183 12.8525ZM31.3277 40.0957C30.6656 38.8508 29.6372 36.4873 29.5397 32.8068C29.5145 29.2706 30.9344 26.2215 31.3493 25.59C31.7192 26.2215 32.9424 28.8737 33.0886 32.5001C33.1878 36.0363 32.0115 38.8327 31.3277 40.0957ZM36.1268 22.8657C36.0763 25.121 35.8075 27.5025 35.4647 28.9278C35.5874 26.4741 35.2933 23.0281 34.7304 20.3218C34.1675 17.6336 32.5744 13.1231 31.3024 11.0483C30.1279 13.0329 28.681 16.93 27.9232 20.3038C27.1618 23.6776 27.1402 27.7731 27.1402 29C26.9381 27.9716 26.4329 24.273 26.5755 20.5744C26.6946 17.5254 27.409 14.368 27.8005 12.9247C29.2944 8.10753 30.9849 5.02238 31.3024 4.53524C31.62 5.02238 33.7489 8.82919 34.8531 12.8164C35.9518 16.8037 36.1737 20.6285 36.1268 22.8657Z" fill="#0079C2"/>
<path d="M33.6141 42.9466H23.3681V49.8205C23.3771 49.8205 23.3844 49.8025 23.3934 49.8025C25.8074 47.3849 29.7224 47.3849 32.1382 49.8025C34.5522 52.2021 34.5522 56.1171 32.1382 58.5347C32.1274 58.5528 32.1166 58.5528 32.1058 58.5708C32.0931 58.5708 32.0805 58.5889 32.0697 58.6069C29.6611 60.9884 26.5146 62.1792 23.3681 62.1792C20.2072 62.1792 17.0463 60.9884 14.6359 58.5708C10.3852 54.331 9.88187 47.7457 13.1222 42.9466C13.5588 42.2971 14.0622 41.6837 14.6359 41.1063C17.0463 38.6887 20.2072 37.498 23.3681 37.498V20.9717C11.2224 20.9717 1.37695 30.8045 1.37695 42.9466C1.37695 55.0887 11.2224 64.9396 23.3681 64.9396C29.7008 64.9396 35.4056 62.2513 39.4181 57.9754V42.9466H33.6141Z" fill="#0079C2"/>
</svg>
