<svg width="97" height="76" viewBox="0 0 97 76" fill="none" xmlns="http://www.w3.org/2000/svg">
<path d="M29.4225 0.54578C28.6534 2.58005 16.1005 34.8059 8.8317 53.4368C4.04372 65.6921 0.124023 75.7642 0.124023 75.8138C0.124023 75.8634 4.44065 75.8882 9.72479 75.8634L19.3256 75.789L24.9322 61.4003L30.5637 47.0115L37.5348 46.9371C41.38 46.9123 44.5307 46.8378 44.5307 46.7882C44.5307 46.7634 42.9678 42.7197 41.0575 37.8325L37.5844 28.9511L43.1662 14.6368C46.2424 6.77263 48.7481 0.248082 48.7481 0.173657C48.7481 0.0744245 44.4562 0 39.1969 0H29.6458L29.4225 0.54578Z" fill="#cc3731"/>
<path d="M57.7538 8.36036C55.9428 12.9747 54.4046 16.944 54.3054 17.1921C54.1566 17.589 55.0745 17.6138 72.1921 17.5642L90.2277 17.4898L93.6512 8.73248L97.0499 0H61.0036L57.7538 8.36036Z" fill="#5b5b5b"/>
<path d="M49.9635 29.5712C50.3604 30.6131 56.4881 46.2671 56.6121 46.5648C56.7113 46.8129 59.1673 46.8873 67.7262 46.8873H78.7162L79.1379 45.8205C79.4852 44.9522 84.7694 31.4318 85.4888 29.5712L85.7121 29.0254H49.7402L49.9635 29.5712Z" fill="#5b5b5b"/>
<path d="M38.2547 58.3485C37.9818 59.0431 31.8046 74.8459 31.6061 75.3421L31.3828 75.9127H67.4787L70.7534 67.4035C72.5644 62.7395 74.1273 58.7206 74.2017 58.4725C74.3506 58.0756 73.3831 58.0508 56.3647 58.0508C42.1992 58.0508 38.3539 58.1252 38.2547 58.3485Z" fill="#5b5b5b"/>
</svg>
