<svg width="137" height="31" viewBox="0 0 137 31" fill="none" xmlns="http://www.w3.org/2000/svg">
<g clip-path="url(#clip0_3033_5945)">
<mask id="mask0_3033_5945" style="mask-type:luminance" maskUnits="userSpaceOnUse" x="0" y="0" width="137" height="31">
<path d="M137 0H0V30.0439H137V0Z" fill="white"/>
</mask>
<g mask="url(#mask0_3033_5945)">
<path fill-rule="evenodd" clip-rule="evenodd" d="M24.7125 9.12865C24.8784 9.94809 25.0723 10.5783 25.2995 11.0215C25.5237 11.4582 25.906 11.677 26.4439 11.677L25.0175 15.1464C24.4558 16.5031 23.8604 18.5642 23.2157 21.3149C22.5817 24.0773 22.3802 26.0402 22.6134 27.2165C22.8434 28.3774 23.3842 29.1364 24.2274 29.5006C25.0667 29.8558 25.872 30.0364 26.6511 30.0364C27.8385 30.0364 29.2065 29.9042 30.7533 29.6255C32.2956 29.3541 33.4582 29.0695 34.2404 28.7746C34.6075 28.6389 34.8362 28.4209 34.9469 28.1342C35.0482 27.8505 35.0113 27.2589 34.8338 26.3639C34.7385 25.89 34.527 25.653 34.1816 25.653C33.7061 25.653 33.1598 25.7579 32.5497 25.9708C31.9374 26.1779 31.3171 26.3471 30.6901 26.4708C30.0603 26.6049 29.0689 26.6663 27.7118 26.6663C27.3672 26.6663 27.1388 26.6263 27.0233 26.5456C26.9111 26.4708 26.8328 26.3297 26.7918 26.1272C26.6833 25.5838 26.7918 24.6367 27.1132 23.2785C27.4284 21.9168 27.7541 20.796 28.0772 19.9057L30.8379 19.8369C32.0092 19.8085 32.7898 19.777 33.1849 19.7296C33.5805 19.6847 33.8326 19.589 33.9389 19.4421C34.0444 19.2891 34.0827 19.0172 34.0407 18.6195C34.0095 18.2511 34.0055 17.9783 34.0193 17.7974C34.0235 17.7517 34.0336 17.6871 34.0496 17.6124C34.0628 17.5242 34.0692 17.4525 34.0562 17.3879C33.9523 16.8694 33.2577 16.6074 31.9765 16.6074C30.9859 16.6074 29.8899 16.6747 28.6848 16.8175C29.0232 15.7072 29.5003 14.3791 30.1193 12.8355C30.4212 12.0578 30.6687 11.5382 30.8547 11.2691C31.04 10.996 31.3016 10.8318 31.6402 10.7599C31.9789 10.6905 32.6304 10.6577 33.6058 10.6577C33.8718 10.6577 34.7308 10.7143 36.1934 10.8318C36.2471 10.8318 36.3479 10.8401 36.4969 10.8508C36.6414 10.8619 36.7535 10.8678 36.8203 10.8678C37.2472 10.8678 37.4312 10.7317 37.3752 10.4555C37.3378 10.2716 37.1551 9.90887 36.8269 9.37257C36.2419 8.4106 35.7499 7.80367 35.3405 7.54079C34.9318 7.27885 34.3423 7.14844 33.5738 7.14844C31.8666 7.14844 29.925 7.27885 27.7484 7.54079C25.5659 7.80383 24.5562 8.32945 24.7125 9.12865Z" fill="#ED1C24"/>
<path fill-rule="evenodd" clip-rule="evenodd" d="M105.97 27.9493C106.333 27.3971 106.636 26.9657 106.877 26.658C107.128 26.3413 107.606 25.7432 108.297 24.8569C108.994 23.9746 109.681 23.1029 110.359 22.2527C111.031 21.4036 111.678 20.6135 112.286 19.8745C112.904 19.1401 113.587 18.3417 114.342 17.4825L113.428 21.4331C113.097 22.9145 112.883 23.8987 112.789 24.3839C112.7 24.8676 112.637 25.3612 112.603 25.8575C112.569 26.3606 112.589 26.8051 112.666 27.1954C112.764 27.6982 113.051 28.165 113.508 28.5885C113.969 29.0207 114.469 29.3594 115.017 29.6165C115.566 29.8729 115.984 30.0007 116.277 30.0007C116.67 30.0007 116.924 29.6738 117.025 29.0144C117.124 28.3568 117.242 26.9922 117.365 24.9197C117.5 22.8545 117.711 20.8342 118.011 18.8679C118.307 16.8972 118.801 14.8531 119.498 12.7359C120.959 11.4907 121.63 10.5687 121.512 9.96435C121.435 9.57854 121.176 9.11111 120.736 8.5587C120.289 8.00742 119.86 7.73225 119.444 7.73225C119.046 7.73225 118.244 8.31095 117.025 9.47332C115.806 10.6378 114.464 12.0235 112.993 13.6389C111.53 15.2572 110.187 16.7766 108.967 18.205C107.743 19.6269 107.004 20.5251 106.736 20.8837C107.155 18.9366 107.531 17.336 107.864 16.087C108.205 14.8415 108.557 13.6374 108.918 12.4636C109.283 11.2933 109.506 10.5287 109.602 10.1705C109.69 9.80907 109.713 9.51636 109.669 9.29397C109.633 9.11095 109.416 8.83913 109.028 8.48043C108.642 8.12028 108.221 7.79505 107.772 7.50284C107.326 7.21157 107.014 7.0625 106.834 7.0625C106.517 7.0625 106.23 7.36509 105.97 7.96437C105.708 8.56523 105.432 9.45084 105.157 10.6213C104.875 11.7871 104.725 12.3985 104.711 12.448C103.201 18.1394 102.265 21.9713 101.899 23.94C101.535 25.9064 101.386 27.0744 101.458 27.4556C101.518 27.7327 101.899 28.1284 102.618 28.6226C103.327 29.1162 103.912 29.3638 104.37 29.3638C104.669 29.3638 104.917 29.268 105.12 29.0725C105.318 28.877 105.601 28.5041 105.97 27.9493Z" fill="#ED1C24"/>
<path fill-rule="evenodd" clip-rule="evenodd" d="M136.34 9.61601C135.947 9.27086 135.533 8.95376 135.089 8.66664C134.645 8.37903 134.368 8.23539 134.254 8.23539C133.901 8.23539 133.482 8.77791 133.009 9.84844C132.537 10.9254 132.102 12.0884 131.713 13.3411C131.32 14.5943 131.046 15.5086 130.902 16.0723L129.811 16.3926C129.457 16.5116 128.941 16.6243 128.266 16.7498C127.597 16.8763 127.11 16.9392 126.815 16.9392C126.394 16.9392 126.133 16.6779 126.033 16.1718C125.969 15.8452 126.062 15.2341 126.297 14.3392C126.542 13.4397 126.799 12.6512 127.066 11.9654C127.28 11.4759 127.46 11.0475 127.626 10.7041C127.779 10.3519 127.894 10.083 127.954 9.88734C128.019 9.69222 128.035 9.50936 128.004 9.35439C127.974 9.2015 127.778 8.93399 127.408 8.55456C127.045 8.1788 126.656 7.83109 126.243 7.52372C125.834 7.21779 125.54 7.0625 125.367 7.0625C125.073 7.0625 124.622 7.73225 124.011 9.06439C123.397 10.3964 122.872 11.8344 122.44 13.3889C121.998 14.9368 121.855 16.061 121.99 16.7435C122.135 17.478 122.568 18.2548 123.282 19.0913C124.003 19.9267 124.701 20.3437 125.379 20.3437C125.742 20.3437 126.504 20.1911 127.667 19.8908C128.826 19.594 129.71 19.3403 130.328 19.1339C130.221 19.485 130.015 20.3254 129.717 21.6415C129.415 22.9583 129.161 24.1957 128.96 25.3457C128.752 26.4979 128.683 27.2524 128.752 27.6023C128.854 28.1113 129.327 28.5557 130.164 28.9408C130.589 29.1367 131 29.3622 131.385 29.6146C131.78 29.8618 132.028 29.9895 132.138 29.9895C132.466 29.9895 132.701 29.7675 132.826 29.3308C132.95 28.8826 133.043 28.1705 133.103 27.1943C133.162 26.2161 133.194 25.6879 133.205 25.5934C133.482 23.3933 133.738 21.6575 133.964 20.3795C134.19 19.1044 134.443 17.992 134.726 17.0289C135.007 16.0723 135.441 14.7639 136.021 13.1141C136.221 12.5294 136.446 11.9718 136.676 11.4459C136.91 10.9252 137.016 10.6087 136.998 10.5005C136.947 10.2639 136.728 9.96659 136.34 9.61601Z" fill="#ED1C24"/>
<path fill-rule="evenodd" clip-rule="evenodd" d="M23.2346 5.40056C23.2569 5.34938 23.2809 5.27526 23.3009 5.2389C23.7875 3.86514 24.5555 4.80383 24.9744 4.73226C25.6345 4.5293 26.0124 3.94501 26.1515 3.11903C26.2376 2.6245 26.2883 1.60961 26.0215 1.18761C25.861 0.932849 25.2947 0.506548 24.2983 0.316992C22.1043 -0.104526 18.2321 -0.0989466 14.8827 0.293716C12.3946 0.591362 9.13152 1.29108 4.80079 2.8732C3.32075 3.41397 1.00684 3.70381 0.321518 5.46433C-0.233639 6.88608 -0.0229173 7.65211 0.595068 8.01225C1.95719 8.80348 5.29972 7.6282 6.80988 7.15376C6.85161 7.18707 6.89575 7.22039 6.95907 7.26902C6.40487 10.3709 5.1805 14.1007 4.8061 17.5347C4.03797 19.7768 2.55857 25.341 3.79325 27.5419C6.34076 29.0772 7.89539 24.7248 7.70303 24.578C8.34808 22.6608 10.3675 14.2616 10.6062 11.9893C10.6633 11.4172 10.7119 10.9584 10.8013 10.3649C10.9736 9.21081 10.995 8.06247 11.1917 6.97823C11.2457 6.67595 11.4209 6.4263 11.6711 6.22462C12.78 5.32483 15.3818 5.31129 15.8246 5.31129C16.1693 5.2287 17.1279 5.08347 17.8919 4.84114C18.2295 4.73529 18.2323 5.21802 18.141 5.77776C18.0494 6.33383 17.8662 6.96754 17.8247 7.16379C17.7282 7.62979 17.6345 8.02884 17.5233 8.52017C17.3844 9.13571 17.0972 10.3917 16.4387 13.1942C14.9471 19.9579 13.7938 25.974 15.0636 29.2392C15.3687 29.6809 16.403 30.1531 16.7021 30.0213C17.4677 29.8811 18.0182 29.5513 18.4156 29.1035C19.1109 28.3202 19.328 27.172 19.3859 26.0377C19.4907 23.9605 19.7874 20.7792 20.2674 17.64C20.5859 15.5566 21.5921 10.9205 22.417 7.90432C22.7309 6.75902 23.0296 5.86289 23.2346 5.40056Z" fill="#ED1C24"/>
<path fill-rule="evenodd" clip-rule="evenodd" d="M43.8207 30.0372C44.1001 30.0372 44.2865 29.8291 44.3765 29.4146C44.4606 29.0002 44.6549 27.7856 44.951 25.776C45.2481 23.7732 45.6517 21.6152 46.1631 19.2985C46.6744 16.9865 47.42 14.246 48.4067 11.069C48.7802 10.9673 49.4892 10.8941 50.5231 10.8374C51.5579 10.7838 52.321 10.6848 52.812 10.5448C53.3006 10.3961 53.4959 10.0892 53.3996 9.61856C53.3352 9.2852 53.1375 8.91039 52.8086 8.51487C52.4783 8.11216 52.03 7.77019 51.4565 7.49008C50.8883 7.20439 50.2475 7.0625 49.5395 7.0625C49.3557 7.0625 49.0741 7.08371 48.6969 7.12898C48.2797 7.17347 47.6415 7.21635 46.7891 7.2653C45.9275 7.30914 45.287 7.3533 44.8628 7.39076C42.426 7.57186 40.7192 7.77385 39.7327 7.99849C38.7485 8.21849 38.3052 8.59474 38.4107 9.12944C38.7298 10.7296 39.3993 11.5269 40.4302 11.5269C40.5906 11.5269 41.7396 11.4387 43.8752 11.2635C43.6245 12.207 43.2662 13.6109 42.7987 15.4836C42.3381 17.3635 41.9232 19.1149 41.5594 20.7448C41.1847 22.3728 40.8789 23.8854 40.6325 25.2771C40.3786 26.6757 40.2942 27.5587 40.3695 27.9365C40.4413 28.2942 40.7021 28.6266 41.1547 28.9562C41.6109 29.2759 42.1104 29.5358 42.6606 29.7368C43.2121 29.9383 43.6025 30.0372 43.8207 30.0372Z" fill="#ED1C24"/>
<path fill-rule="evenodd" clip-rule="evenodd" d="M80.3649 18.0569C80.1024 19.5791 79.6688 20.995 79.0714 22.3252C78.4663 23.6554 77.8041 24.7223 77.0828 25.5307C76.3585 26.3446 75.7011 26.7518 75.1134 26.7518C74.8629 26.7518 74.5984 26.57 74.3132 26.2029C74.0331 25.8361 73.8283 25.3379 73.7004 24.714C73.4085 23.2343 73.3916 21.6815 73.6513 20.0824C73.9092 18.4769 74.338 17.0101 74.9314 15.6671C75.532 14.334 76.1907 13.256 76.9087 12.4343C77.6274 11.6133 78.2577 11.2044 78.8054 11.2044C79.4968 11.2044 80.0143 12.0778 80.3645 13.8294C80.6223 15.1317 80.6228 16.5407 80.3649 18.0569ZM83.5099 11.1557C83.1224 10.2845 82.7257 9.61426 82.3342 9.14316C81.9415 8.67811 81.636 8.44264 81.4364 8.44264C81.322 8.44264 81.08 8.53335 80.7185 8.72562C80.3567 8.91056 80.0941 9.05897 79.9441 9.16341C79.5049 8.65532 78.9908 8.17832 78.4017 7.72938C77.8184 7.28347 77.3396 7.0625 76.9837 7.0625C76.4361 7.0625 75.6491 7.53313 74.6374 8.47883C73.6258 9.42534 72.6512 10.7022 71.7083 12.3C70.7693 13.9068 70.0758 15.7446 69.6259 17.8202C69.1733 19.8987 69.168 22.0261 69.6017 24.1957C69.8567 25.4928 70.3439 26.5818 71.046 27.4623C71.7503 28.345 72.535 28.9904 73.3918 29.4068C74.2488 29.8291 75.0382 30.0373 75.7585 30.0373C77.4554 30.0373 79.0861 29.2856 80.6493 27.7852C82.2082 26.2803 83.3601 24.2959 84.1023 21.8368C84.846 19.3833 84.9601 16.8317 84.4347 14.1935C84.2057 13.0454 83.8995 12.0304 83.5099 11.1557ZM96.9526 13.8081C96.4594 14.4608 95.7884 15.0671 94.9365 15.6327C94.0883 16.2047 93.1981 16.6523 92.2643 16.9732C92.7728 14.1786 92.9704 12.4716 92.8497 11.8599C92.7806 11.5163 92.5466 11.1774 92.1535 10.8426C92.951 10.6009 93.8413 10.4826 94.8255 10.4826C95.6036 10.4826 96.2275 10.6263 96.699 10.9305C97.1644 11.2297 97.4399 11.6036 97.5279 12.0524C97.6342 12.5768 97.4398 13.1618 96.9526 13.8081ZM95.2821 23.4178C94.7417 24.1689 93.9776 24.7853 92.9957 25.2659C92.0111 25.7563 90.9802 25.9938 89.906 25.9938C90.3617 24.4662 90.7149 23.2874 90.9713 22.4731C91.2197 21.6521 91.4398 20.8453 91.6155 20.026C92.2914 19.8302 92.9131 19.7302 93.4833 19.7302C94.889 19.7302 95.6886 20.2279 95.8846 21.2036C96.0259 21.9249 95.8282 22.6655 95.2821 23.4178ZM100.39 15.5612C101.14 14.3954 101.394 13.178 101.14 11.9202C100.859 10.486 100.033 9.32108 98.6615 8.41969C97.2999 7.51703 95.6207 7.06267 93.6403 7.06267C92.7771 7.06267 91.5967 7.19434 90.1113 7.45645C88.6851 7.70052 87.6277 7.94826 86.9319 8.19458C86.2425 8.4428 85.9497 8.83116 86.0587 9.36459C86.1701 9.92624 86.4471 10.486 86.8968 11.0519C87.3425 11.6118 87.9339 11.9548 88.675 12.0853C88.3699 14.7014 88.0048 16.9251 87.5624 18.7617C87.121 20.6018 86.702 22.0352 86.2999 23.0693C85.8996 24.0959 85.5665 24.9903 85.3012 25.7388C85.0333 26.4834 84.9525 27.1284 85.0622 27.6749C85.0922 27.8275 85.3172 28.1011 85.7388 28.4899C86.1607 28.8725 86.613 29.2291 87.0927 29.5517C87.5737 29.8715 87.9204 30.0374 88.1373 30.0374C88.4574 30.0374 88.6975 29.8952 88.8648 29.6131C89.0354 29.3265 89.2187 28.8159 89.4146 28.0646C90.5655 29.3848 91.6818 30.0374 92.7712 30.0374C93.806 30.0374 94.9304 29.56 96.1381 28.5889C97.3429 27.6186 98.3145 26.4584 99.0464 25.1158C99.7774 23.7638 100.042 22.5697 99.835 21.5389C99.7266 20.9923 99.4659 20.419 99.0559 19.8302C98.6472 19.235 98.0623 18.7163 97.3 18.2585C98.6056 17.6182 99.6352 16.725 100.39 15.5612ZM64.1866 14.5786C63.547 15.4045 62.708 16.1816 61.6775 16.9156C60.6352 17.6422 59.6647 18.1487 58.7514 18.4201C58.872 17.4784 59.1162 16.1344 59.4898 14.3803C59.7098 13.3367 59.8804 12.6436 60.0043 12.2941C60.1157 11.9406 60.3057 11.6935 60.5565 11.5497C60.8128 11.4022 61.2466 11.3089 61.8689 11.2645C62.0304 11.2442 62.278 11.2299 62.6099 11.2299C64.0205 11.2299 64.8055 11.6477 64.9728 12.4862C65.089 13.0591 64.8263 13.7596 64.1866 14.5786ZM67.7641 9.79615C67.0822 9.01307 66.164 8.35863 64.9865 7.83875C63.8201 7.31918 62.4832 7.06267 60.9726 7.06267C60.108 7.06267 59.1985 7.15546 58.2372 7.34134C57.2732 7.52069 56.4721 7.79665 55.8275 8.15297C55.182 8.51358 54.904 8.92346 54.9958 9.39553C55.2889 10.8519 55.8246 11.7625 56.6154 12.1156C55.8836 15.1677 55.2959 17.5284 54.8662 19.1939C54.4379 20.8639 53.99 22.5428 53.5313 24.2462C53.07 25.9396 52.8007 27.0012 52.7194 27.4116C52.6456 27.8271 52.6289 28.1696 52.6796 28.4313C52.7603 28.8326 52.9309 29.0944 53.2004 29.2216C53.4616 29.3497 53.9057 29.4783 54.5208 29.6126C54.832 29.6834 55.1664 29.7707 55.5091 29.8791C55.8502 29.9828 56.087 30.037 56.2171 30.037C56.5969 30.037 56.8836 29.8288 57.068 29.42C57.246 29.0109 57.3995 28.3807 57.5248 27.5386C57.6471 26.6942 57.8087 25.5616 58.017 24.1464C58.2242 22.7355 58.4997 21.3617 58.8271 20.0255C59.828 21.4929 60.6526 22.2258 61.3002 22.2258C62.0635 22.2258 63.1225 21.5973 64.4649 20.3387C65.8131 19.0801 66.9569 17.6512 67.8994 16.0497C68.8411 14.4487 69.2152 13.1522 69.013 12.1477C68.8628 11.3718 68.4429 10.5871 67.7641 9.79615Z" fill="#ED1C24"/>
</g>
</g>
<defs>
<clipPath id="clip0_3033_5945">
<rect width="137" height="30.0439" fill="white"/>
</clipPath>
</defs>
</svg>
