<svg width="119" height="32" viewBox="0 0 119 32" fill="none" xmlns="http://www.w3.org/2000/svg">
<g clip-path="url(#clip0_3033_5886)">
<path d="M27.5754 19.2175L31.6406 0H47.9015C49.0103 0.123188 51.5972 0.369566 53.0754 1.84783C54.5536 3.32608 54.9232 6.03623 54.9232 7.02174L51.5972 24.3914C51.3508 25.1304 50.858 26.9783 49.3797 28.4565C48.0412 29.7952 46.4233 30.6739 43.8364 31.0435H24.7939L25.7277 26.9783C25.7277 26.7319 26.1017 25.8696 27.2105 24.7608C28.5492 23.4223 30.1717 22.913 30.9062 22.913H41.6188C41.9884 22.7899 43.0177 22.6229 43.8364 21.8044C44.3037 21.3369 44.4522 20.6957 44.5754 20.3261L46.4233 10.3478C46.4233 9.6087 46.3493 9.09131 46.0537 8.5C45.758 7.90869 45.0681 7.76087 44.5754 7.76087H37.9233L36.4449 15.5217C36.4449 15.8913 36.2233 17.2217 35.3363 18.1087C34.4493 18.9957 33.1189 19.2175 32.7494 19.2175H27.5754Z" fill="#1AB248"/>
<path d="M95.9498 11.8261L98.1627 0H92.9888C92.6192 0 91.7322 0.147826 91.1408 0.73913C90.5496 1.33044 90.1554 2.21738 90.0322 2.58696L84.1191 31.0435H90.4018C90.7712 30.9203 91.6582 30.5261 92.2496 29.9347C92.8408 29.3435 92.9888 28.703 92.9888 28.4565L94.4716 21.8044L98.5368 17.7391C100.261 21.3115 103.854 28.3087 104.445 29.1957C105.037 30.0827 106.17 30.797 106.663 31.0435H114.054L104.445 13.3044L117.754 0H107.969L95.9498 11.8261Z" fill="#1AB248"/>
<path d="M81.9471 16.6305L82.9037 11.8262H62.3602C61.4327 11.8262 60.7297 11.8262 59.6211 12.5653C58.9335 13.0237 58.6234 13.674 58.2538 14.7827L57.5146 19.2176H77.7165C78.5611 19.2176 79.5284 19.1053 80.4689 18.4784C81.4092 17.8515 81.9471 17.0001 81.9471 16.6305Z" fill="#1AB248"/>
<path d="M84.493 4.80434L85.4496 0H64.9059C63.9786 0 63.2756 0 62.167 0.73913C61.4794 1.19752 61.1693 1.84783 60.7997 2.95653L60.0605 7.3913H80.2623C81.107 7.3913 82.0743 7.27902 83.0146 6.65217C83.9549 6.02532 84.493 5.17391 84.493 4.80434Z" fill="#1AB248"/>
<path d="M79.6887 28.4561L80.7973 23.2822H60.2538C59.3264 23.2822 58.4713 23.6518 57.3626 24.391C56.6751 24.8492 56.0365 25.4996 55.6669 26.6084L54.9277 31.0431H75.458C76.3027 31.0431 77.2701 30.9308 78.2103 30.3039C79.1506 29.6772 79.6887 28.8257 79.6887 28.4561Z" fill="#1AB248"/>
<path d="M11.3233 0H26.8397L26.4754 2.95653C26.1045 4.80434 26.1005 5.54349 24.9919 6.65217C23.8831 7.76087 23.1439 7.76087 22.0354 7.76087H14.6439C14.0279 7.76087 12.948 7.53913 12.061 8.13044C11.174 8.72173 10.7059 9.6087 10.5827 9.97825L8.73493 19.2175C8.61174 19.7102 8.43927 20.9174 8.73493 21.8044C9.03056 22.6912 10.3364 22.913 10.5827 22.913H18.3436C18.8363 22.913 20.3354 23.0608 20.9266 23.6522C21.518 24.2434 22.0354 25.1304 21.6658 26.2392L20.561 31.0435H5.77445C3.55707 31.0435 1.85645 29.5653 0.969653 28.0869C-0.360468 25.8696 -0.0144518 22.913 0.231926 21.4348L3.19284 7.3913C3.19284 6.89855 3.63631 4.95218 5.41022 2.58696C7.18413 0.221738 10.0914 0 11.3233 0Z" fill="#1AB248"/>
</g>
<defs>
<clipPath id="clip0_3033_5886">
<rect width="119" height="31.0435" fill="white"/>
</clipPath>
</defs>
</svg>
