<svg width="36" height="36" viewBox="0 0 36 36" fill="none" xmlns="http://www.w3.org/2000/svg">
<path fill-rule="evenodd" clip-rule="evenodd" d="M16.4175 1.875H19.5825C21.633 1.875 23.2875 1.875 24.588 2.0505C25.938 2.2305 27.075 2.6205 27.978 3.522C28.425 3.9705 28.746 4.476 28.9785 5.037C30.3765 5.211 31.551 5.595 32.478 6.522C33.381 7.425 33.768 8.562 33.951 9.912C34.125 11.2125 34.125 12.867 34.125 14.9175V21.0825C34.125 23.133 34.125 24.7875 33.951 26.088C33.768 27.438 33.381 28.575 32.478 29.478C31.551 30.405 30.378 30.789 28.9785 30.9645C28.746 31.524 28.425 32.0295 27.978 32.478C27.075 33.381 25.938 33.768 24.588 33.951C23.2875 34.125 21.633 34.125 19.5825 34.125H16.4175C14.367 34.125 12.7125 34.125 11.412 33.951C10.062 33.768 8.925 33.381 8.022 32.478C7.59236 32.0441 7.25239 31.5298 7.0215 30.9645C5.6235 30.789 4.449 30.405 3.522 29.478C2.619 28.575 2.232 27.438 2.0505 26.088C1.875 24.7875 1.875 23.133 1.875 21.0825V14.9175C1.875 12.867 1.875 11.2125 2.0505 9.912C2.2305 8.562 2.6205 7.425 3.522 6.522C4.449 5.595 5.622 5.211 7.0215 5.037C7.25222 4.47117 7.5922 3.95636 8.022 3.522C8.925 2.619 10.062 2.232 11.412 2.0505C12.7125 1.875 14.367 1.875 16.4175 1.875ZM6.492 7.41C5.8365 7.569 5.427 7.8 5.1135 8.115C4.698 8.529 4.428 9.111 4.2795 10.212C4.128 11.346 4.125 12.8475 4.125 15V21C4.125 23.1525 4.128 24.6555 4.2795 25.788C4.428 26.889 4.6995 27.471 5.1135 27.8865C5.427 28.2 5.8365 28.431 6.4935 28.59C6.375 27.372 6.375 25.881 6.375 24.0825V11.9175C6.375 10.1205 6.375 8.628 6.492 7.41ZM29.508 28.59C30.1635 28.431 30.573 28.2 30.8865 27.8865C31.302 27.471 31.572 26.889 31.7205 25.7865C31.872 24.6555 31.875 23.154 31.875 21.0015V15.0015C31.875 12.8475 31.872 11.346 31.7205 10.212C31.572 9.111 31.3005 8.529 30.8865 8.1135C30.573 7.8 30.1635 7.569 29.5065 7.41C29.625 8.628 29.625 10.1205 29.625 11.9175V24.0825C29.625 25.8795 29.625 27.372 29.508 28.59ZM11.712 4.2795C10.611 4.428 10.029 4.6995 9.6135 5.1135C9.198 5.529 8.928 6.111 8.7795 7.2135C8.628 8.343 8.625 9.846 8.625 12V24C8.625 26.1525 8.628 27.654 8.7795 28.788C8.928 29.889 9.1995 30.471 9.6135 30.8865C10.029 31.302 10.611 31.572 11.7135 31.7205C12.8445 31.872 14.3475 31.875 16.5 31.875H19.5C21.6525 31.875 23.1555 31.872 24.288 31.7205C25.389 31.572 25.971 31.3005 26.3865 30.8865C26.802 30.471 27.072 29.889 27.2205 28.7865C27.372 27.654 27.375 26.1525 27.375 24V12C27.375 9.8475 27.372 8.3445 27.2205 7.212C27.072 6.111 26.8005 5.529 26.3865 5.1135C25.971 4.698 25.389 4.428 24.2865 4.2795C23.1555 4.128 21.6525 4.125 19.5 4.125H16.5C14.3475 4.125 12.8445 4.128 11.712 4.2795Z" fill="#192741"/>
<g opacity="0.3">
<path d="M12.7045 12.7045C12.4935 12.9155 12.375 13.2016 12.375 13.5C12.375 13.7984 12.4935 14.0845 12.7045 14.2955C12.9155 14.5065 13.2016 14.625 13.5 14.625H22.5C22.7984 14.625 23.0845 14.5065 23.2955 14.2955C23.5065 14.0845 23.625 13.7984 23.625 13.5C23.625 13.2016 23.5065 12.9155 23.2955 12.7045C23.0845 12.4935 22.7984 12.375 22.5 12.375H13.5C13.2016 12.375 12.9155 12.4935 12.7045 12.7045Z" fill="#192741"/>
<path d="M12.7045 18.7045C12.4935 18.9155 12.375 19.2016 12.375 19.5C12.375 19.7984 12.4935 20.0845 12.7045 20.2955C12.9155 20.5065 13.2016 20.625 13.5 20.625H22.5C22.7984 20.625 23.0845 20.5065 23.2955 20.2955C23.5065 20.0845 23.625 19.7984 23.625 19.5C23.625 19.2016 23.5065 18.9155 23.2955 18.7045C23.0845 18.4935 22.7984 18.375 22.5 18.375H13.5C13.2016 18.375 12.9155 18.4935 12.7045 18.7045Z" fill="#192741"/>
<path d="M12.7045 24.7045C12.4935 24.9155 12.375 25.2016 12.375 25.5C12.375 25.7984 12.4935 26.0845 12.7045 26.2955C12.9155 26.5065 13.2016 26.625 13.5 26.625H18C18.2984 26.625 18.5845 26.5065 18.7955 26.2955C19.0065 26.0845 19.125 25.7984 19.125 25.5C19.125 25.2016 19.0065 24.9155 18.7955 24.7045C18.5845 24.4935 18.2984 24.375 18 24.375H13.5C13.2016 24.375 12.9155 24.4935 12.7045 24.7045Z" fill="#192741"/>
</g>
</svg>
