<svg width="36" height="36" viewBox="0 0 36 36" fill="none" xmlns="http://www.w3.org/2000/svg">
<path d="M22.5029 32.9998L21.8789 33.9358C22.0483 34.0487 22.2452 34.1136 22.4486 34.1234C22.652 34.1332 22.8542 34.0877 23.0337 33.9916C23.2133 33.8955 23.3633 33.7525 23.468 33.5779C23.5726 33.4032 23.6279 33.2034 23.6279 32.9998H22.5029ZM18.0029 29.9998L18.6269 29.0638C18.4421 28.9406 18.225 28.8749 18.0029 28.8749C17.7808 28.8749 17.5637 28.9406 17.3789 29.0638L18.0029 29.9998ZM13.5029 32.9998H12.3779C12.3779 33.2034 12.4332 33.4032 12.5378 33.5779C12.6425 33.7525 12.7926 33.8955 12.9721 33.9916C13.1516 34.0877 13.3538 34.1332 13.5572 34.1234C13.7606 34.1136 13.9575 34.0487 14.1269 33.9358L13.5029 32.9998ZM23.1269 32.0638L18.6269 29.0638L17.3789 30.9358L21.8789 33.9358L23.1269 32.0638ZM17.3789 29.0638L12.8789 32.0638L14.1269 33.9358L18.6269 30.9358L17.3789 29.0638ZM19.4309 4.91379L19.4939 4.98879L21.2084 3.53079L21.1439 3.45579L19.4309 4.91379ZM22.9664 6.42729L23.0639 6.41829L22.8839 4.17579L22.7864 4.18479L22.9664 6.42729ZM25.0844 8.43729L25.0754 8.53629L27.3179 8.71629L27.3269 8.61879L25.0844 8.43729ZM26.5139 12.0073L26.5889 12.0718L28.0469 10.3588L27.9719 10.2943L26.5139 12.0073ZM26.5889 14.9278L26.5139 14.9908L27.9719 16.7053L28.0469 16.6408L26.5889 14.9278ZM25.0754 18.4633L25.0844 18.5608L27.3269 18.3808L27.3179 18.2833L25.0754 18.4633ZM23.0654 20.5813L22.9664 20.5723L22.7864 22.8148L22.8839 22.8238L23.0654 20.5813ZM19.4954 22.0108L19.4309 22.0858L21.1439 23.5438L21.2084 23.4688L19.4954 22.0108ZM16.5749 22.0858L16.5104 22.0108L14.7974 23.4688L14.8619 23.5438L16.5749 22.0858ZM13.0394 20.5723L12.9419 20.5798L13.1219 22.8238L13.2194 22.8163L13.0394 20.5723ZM10.9214 18.5623L10.9304 18.4633L8.68791 18.2833L8.67891 18.3808L10.9214 18.5623ZM9.49191 14.9923L9.41691 14.9278L7.95891 16.6408L8.03391 16.7053L9.49191 14.9923ZM9.41691 12.0718L9.49191 12.0073L8.03391 10.2943L7.95891 10.3588L9.41691 12.0718ZM10.9304 8.53629L10.9214 8.43879L8.67891 8.61879L8.68791 8.71629L10.9304 8.53629ZM12.9404 6.41829L13.0394 6.42729L13.2194 4.18479L13.1219 4.17579L12.9404 6.41829ZM16.5104 4.98879L16.5749 4.91379L14.8619 3.45579L14.7974 3.53079L16.5104 4.98879ZM13.0394 6.42729C13.6909 6.47953 14.3455 6.37622 14.9492 6.12586C15.553 5.87549 16.0886 5.48525 16.5119 4.98729L14.7974 3.53079C14.605 3.75698 14.3616 3.93422 14.0872 4.04793C13.8129 4.16163 13.5154 4.20854 13.2194 4.18479L13.0394 6.42729ZM10.9214 8.43879C10.8999 8.16812 10.9374 7.8945 11.0314 7.63976C11.1254 7.38501 11.2735 7.15371 11.4657 6.96186C11.6578 6.77001 11.8893 6.62217 12.1442 6.52858C12.3991 6.43498 12.6713 6.39787 12.9419 6.41979L13.1219 4.17729C12.5263 4.12929 11.9273 4.21128 11.3665 4.41759C10.8056 4.6239 10.2963 4.9496 9.87377 5.37215C9.45122 5.7947 9.12552 6.30401 8.91921 6.86485C8.7129 7.42568 8.63091 8.02465 8.67891 8.62029L10.9214 8.43879ZM9.49191 12.0073C9.98939 11.584 10.3792 11.0485 10.6293 10.4451C10.8794 9.84164 10.9826 9.18742 10.9304 8.53629L8.68791 8.71629C8.73591 9.31629 8.49291 9.90429 8.03391 10.2943L9.49191 12.0073ZM9.41691 14.9278C9.21005 14.7518 9.0439 14.5329 8.92996 14.2863C8.81601 14.0398 8.757 13.7714 8.757 13.4998C8.757 13.2282 8.81601 12.9598 8.92996 12.7132C9.0439 12.4667 9.21005 12.2478 9.41691 12.0718L7.95891 10.3588C7.50402 10.746 7.13867 11.2275 6.88812 11.7698C6.63757 12.3121 6.50781 12.9024 6.50781 13.4998C6.50781 14.0972 6.63757 14.6875 6.88812 15.2298C7.13867 15.7721 7.50402 16.2535 7.95891 16.6408L9.41691 14.9278ZM10.9304 18.4633C10.9827 17.8118 10.8793 17.1572 10.629 16.5535C10.3786 15.9497 9.98837 15.4141 9.49041 14.9908L8.03391 16.7053C8.49291 17.0953 8.73591 17.6833 8.68791 18.2833L10.9304 18.4633ZM12.9404 20.5813C12.6696 20.603 12.3973 20.5657 12.1424 20.4718C11.8875 20.378 11.656 20.2298 11.464 20.0376C11.2719 19.8455 11.124 19.6139 11.0303 19.3589C10.9366 19.1039 10.8995 18.8316 10.9214 18.5608L8.67891 18.3808C8.63091 18.9764 8.7129 19.5754 8.91921 20.1362C9.12552 20.6971 9.45122 21.2064 9.87377 21.6289C10.2963 22.0515 10.8056 22.3772 11.3665 22.5835C11.9273 22.7898 12.5263 22.8718 13.1219 22.8238L12.9404 20.5813ZM19.4309 22.0858C19.2549 22.2927 19.036 22.4588 18.7895 22.5727C18.5429 22.6867 18.2745 22.7457 18.0029 22.7457C17.7313 22.7457 17.4629 22.6867 17.2164 22.5727C16.9698 22.4588 16.7509 22.2927 16.5749 22.0858L14.8619 23.5438C15.2492 23.9987 15.7306 24.364 16.2729 24.6146C16.8152 24.8651 17.4055 24.9949 18.0029 24.9949C18.6003 24.9949 19.1906 24.8651 19.7329 24.6146C20.2752 24.364 20.7567 23.9987 21.1439 23.5438L19.4309 22.0858ZM25.0844 18.5608C25.1062 18.8316 25.0688 19.1039 24.9749 19.3588C24.8811 19.6137 24.7329 19.8452 24.5408 20.0372C24.3486 20.2293 24.117 20.3772 23.862 20.4709C23.607 20.5646 23.3347 20.6017 23.0639 20.5798L22.8839 22.8238C23.4796 22.8718 24.0785 22.7898 24.6394 22.5835C25.2002 22.3772 25.7095 22.0515 26.1321 21.6289C26.5546 21.2064 26.8803 20.6971 27.0866 20.1362C27.2929 19.5754 27.3749 18.9764 27.3269 18.3808L25.0844 18.5608ZM26.5139 14.9908C26.0162 15.4143 25.6263 15.95 25.3762 16.5537C25.1261 17.1574 25.023 17.8119 25.0754 18.4633L27.3179 18.2833C27.2699 17.6833 27.5129 17.0953 27.9719 16.7053L26.5139 14.9908ZM26.5889 12.0718C26.7958 12.2478 26.9619 12.4667 27.0759 12.7132C27.1898 12.9598 27.2488 13.2282 27.2488 13.4998C27.2488 13.7714 27.1898 14.0398 27.0759 14.2863C26.9619 14.5329 26.7958 14.7518 26.5889 14.9278L28.0469 16.6408C28.5018 16.2535 28.8672 15.7721 29.1177 15.2298C29.3683 14.6875 29.498 14.0972 29.498 13.4998C29.498 12.9024 29.3683 12.3121 29.1177 11.7698C28.8672 11.2275 28.5018 10.746 28.0469 10.3588L26.5889 12.0718ZM25.0754 8.53629C25.0232 9.18779 25.1265 9.84238 25.3769 10.4461C25.6272 11.0499 26.0174 11.5855 26.5154 12.0088L27.9719 10.2943C27.7457 10.1019 27.5685 9.85844 27.4548 9.58409C27.3411 9.30975 27.2942 9.01232 27.3179 8.71629L25.0754 8.53629ZM23.0654 6.41829C23.3362 6.39654 23.6085 6.43389 23.8634 6.52776C24.1183 6.62163 24.3498 6.76977 24.5419 6.96194C24.7339 7.15411 24.8819 7.3857 24.9755 7.64071C25.0692 7.89571 25.1064 8.16652 25.0844 8.43729L27.3269 8.61879C27.3749 8.02315 27.2929 7.42418 27.0866 6.86335C26.8803 6.30251 26.5546 5.7932 26.1321 5.37065C25.7095 4.9481 25.2002 4.6224 24.6394 4.41609C24.0785 4.20978 23.4796 4.12779 22.8839 4.17579L23.0654 6.41829ZM19.4939 4.98879C19.9172 5.48627 20.4542 5.87609 21.0576 6.12618C21.6611 6.37627 22.3153 6.47947 22.9664 6.42729L22.7864 4.18479C22.4904 4.20854 22.193 4.16163 21.9186 4.04793C21.6443 3.93422 21.4009 3.75698 21.2084 3.53079L19.4939 4.98879ZM21.1454 3.45579C20.7582 3.00038 20.2766 2.63458 19.734 2.38372C19.1914 2.13286 18.6007 2.00293 18.0029 2.00293C17.4051 2.00293 16.8145 2.13286 16.2719 2.38372C15.7293 2.63458 15.2477 3.00038 14.8604 3.45579L16.5749 4.91379C16.7509 4.70693 16.9698 4.54078 17.2164 4.42684C17.4629 4.31289 17.7313 4.25388 18.0029 4.25388C18.2745 4.25388 18.5429 4.31289 18.7895 4.42684C19.036 4.54078 19.2549 4.70693 19.4309 4.91379L21.1454 3.45579ZM16.5104 22.0108C16.1432 21.5793 15.691 21.2281 15.1821 20.9791C14.6732 20.73 14.1184 20.5885 13.5524 20.5633L13.4534 22.8118C13.9694 22.8343 14.4584 23.0698 14.7974 23.4688L16.5104 22.0108ZM13.5524 20.5633C13.3814 20.5565 13.2101 20.5595 13.0394 20.5723L13.2194 22.8148C13.2974 22.8088 13.3754 22.8078 13.4534 22.8118L13.5524 20.5633ZM14.6279 32.9998V21.6868H12.3779V32.9998H14.6279ZM22.9679 20.5723C22.7967 20.5595 22.6249 20.5565 22.4534 20.5633L22.5524 22.8118C22.6304 22.8078 22.7084 22.8088 22.7864 22.8148L22.9679 20.5723ZM22.4534 20.5633C21.8871 20.5883 21.3321 20.7297 20.8229 20.9788C20.3137 21.2278 19.8628 21.5791 19.4954 22.0108L21.2084 23.4688C21.3753 23.2729 21.5808 23.1135 21.812 23.0004C22.0433 22.8874 22.2953 22.8232 22.5524 22.8118L22.4534 20.5633ZM21.3779 21.6883V32.9998H23.6279V21.6868L21.3779 21.6883Z" fill="#192741"/>
<path opacity="0.3" d="M21 12L16.5 16.5L15 15" stroke="#192741" stroke-width="2.25" stroke-linecap="round" stroke-linejoin="round"/>
</svg>
