<svg width="36" height="36" viewBox="0 0 36 36" fill="none" xmlns="http://www.w3.org/2000/svg">
<path fill-rule="evenodd" clip-rule="evenodd" d="M16.416 1.875H19.584C22.341 1.875 24.525 1.875 26.2335 2.1045C27.9915 2.3415 29.415 2.8395 30.5385 3.9615C30.7372 4.17476 30.8454 4.45683 30.8403 4.74828C30.8351 5.03974 30.7171 5.31781 30.5109 5.52393C30.3048 5.73005 30.0267 5.84812 29.7353 5.85326C29.4438 5.8584 29.1618 5.75022 28.9485 5.5515C28.3125 4.9185 27.4425 4.5375 25.9335 4.335C24.393 4.128 22.3605 4.125 19.5 4.125H16.5C13.6395 4.125 11.6085 4.128 10.065 4.335C8.5575 4.5375 7.6875 4.9185 7.053 5.553C6.4185 6.1875 6.0375 7.0575 5.835 8.565C5.628 10.1085 5.625 12.1395 5.625 15V21C5.625 23.8605 5.628 25.893 5.835 27.435C6.0375 28.9425 6.4185 29.8125 7.053 30.447C7.6875 31.0815 8.5575 31.4625 10.0665 31.665C11.6085 31.872 13.6395 31.875 16.5 31.875H19.5C22.3605 31.875 24.393 31.872 25.935 31.665C27.4425 31.4625 28.3125 31.0815 28.947 30.447C29.991 29.403 30.3075 27.7815 30.3615 23.9835C30.3659 23.6851 30.4886 23.4007 30.7027 23.1928C30.8087 23.0899 30.9339 23.0089 31.0712 22.9543C31.2085 22.8998 31.3553 22.8728 31.503 22.875C31.6507 22.8772 31.7966 22.9084 31.9323 22.9669C32.0679 23.0255 32.1907 23.1102 32.2937 23.2162C32.3966 23.3222 32.4776 23.4474 32.5322 23.5847C32.5867 23.722 32.6137 23.8688 32.6115 24.0165C32.559 27.657 32.3235 30.2535 30.5385 32.0385C29.415 33.1605 27.9915 33.6585 26.2335 33.8955C24.5235 34.125 22.341 34.125 19.584 34.125H16.416C13.659 34.125 11.475 34.125 9.7665 33.8955C8.0085 33.6585 6.585 33.1605 5.4615 32.0385C4.3395 30.915 3.8415 29.4915 3.6045 27.7335C3.375 26.0235 3.375 23.841 3.375 21.084V14.916C3.375 12.159 3.375 9.975 3.6045 8.2665C3.8415 6.5085 4.3395 5.085 5.4615 3.9615C6.585 2.8395 8.0085 2.3415 9.7665 2.1045C11.4765 1.875 13.659 1.875 16.416 1.875ZM27.171 10.569C27.546 10.1765 27.9956 9.86285 28.4935 9.64654C28.9914 9.43023 29.5275 9.31561 30.0703 9.3094C30.6131 9.3032 31.1517 9.40553 31.6544 9.6104C32.1571 9.81527 32.6138 10.1185 32.9976 10.5024C33.3815 10.8862 33.6847 11.3429 33.8896 11.8456C34.0945 12.3483 34.1968 12.8869 34.1906 13.4297C34.1844 13.9725 34.0698 14.5086 33.8535 15.0065C33.6372 15.5044 33.3235 15.954 32.931 16.329L25.8 23.4645C25.5034 23.7771 25.1878 24.0712 24.855 24.345C24.509 24.615 24.137 24.845 23.739 25.035C23.403 25.1955 23.049 25.3125 22.53 25.485L19.404 26.5275C19.0655 26.6408 18.7021 26.6574 18.3547 26.5756C18.0073 26.4938 17.6895 26.3168 17.4371 26.0644C17.1847 25.812 17.0077 25.4942 16.9259 25.1468C16.8441 24.7994 16.8607 24.436 16.974 24.0975L17.9955 21.0375L18.0165 20.973C18.1905 20.4525 18.3075 20.1 18.468 19.764C18.6565 19.3679 18.8879 18.9937 19.158 18.648C19.3875 18.354 19.65 18.0915 20.0385 17.703L20.085 17.6565L27.171 10.569ZM31.341 12.159C31.1716 11.9896 30.9705 11.8551 30.7492 11.7634C30.5278 11.6717 30.2906 11.6245 30.051 11.6245C29.8114 11.6245 29.5742 11.6717 29.3528 11.7634C29.1315 11.8551 28.9304 11.9896 28.761 12.159L28.488 12.432L28.539 12.5925C28.68 12.9975 28.9485 13.5375 29.4555 14.0445C29.9041 14.4962 30.4584 14.8287 31.068 15.012L31.341 14.739C31.5104 14.5696 31.6449 14.3685 31.7366 14.1472C31.8283 13.9258 31.8755 13.6886 31.8755 13.449C31.8755 13.2094 31.8283 12.9722 31.7366 12.7508C31.6449 12.5295 31.5104 12.3284 31.341 12.159ZM29.349 16.731C28.8005 16.4447 28.2996 16.0754 27.864 15.636C27.4246 15.2004 27.0553 14.6995 26.769 14.151L21.675 19.245C21.2235 19.6965 21.0645 19.8585 20.931 20.0295C20.761 20.2475 20.6165 20.481 20.4975 20.73C20.4045 20.9265 20.331 21.141 20.1285 21.747L19.5285 23.547L19.953 23.9715L21.753 23.3715C22.359 23.169 22.5735 23.0955 22.77 23.0025C23.018 22.8825 23.2515 22.738 23.4705 22.569C23.6415 22.4355 23.8035 22.2765 24.255 21.825L29.349 16.731Z" fill="#192741"/>
<g opacity="0.3">
<path d="M11.2045 12.7045C10.9935 12.9155 10.875 13.2016 10.875 13.5C10.875 13.7984 10.9935 14.0845 11.2045 14.2955C11.4155 14.5065 11.7016 14.625 12 14.625H21.75C22.0484 14.625 22.3345 14.5065 22.5455 14.2955C22.7565 14.0845 22.875 13.7984 22.875 13.5C22.875 13.2016 22.7565 12.9155 22.5455 12.7045C22.3345 12.4935 22.0484 12.375 21.75 12.375H12C11.7016 12.375 11.4155 12.4935 11.2045 12.7045Z" fill="#192741"/>
<path d="M11.2045 18.7045C10.9935 18.9155 10.875 19.2016 10.875 19.5C10.875 19.7984 10.9935 20.0845 11.2045 20.2955C11.4155 20.5065 11.7016 20.625 12 20.625H15.75C16.0484 20.625 16.3345 20.5065 16.5455 20.2955C16.7565 20.0845 16.875 19.7984 16.875 19.5C16.875 19.2016 16.7565 18.9155 16.5455 18.7045C16.3345 18.4935 16.0484 18.375 15.75 18.375H12C11.7016 18.375 11.4155 18.4935 11.2045 18.7045Z" fill="#192741"/>
<path d="M11.2045 24.7045C10.9935 24.9155 10.875 25.2016 10.875 25.5C10.875 25.7984 10.9935 26.0845 11.2045 26.2955C11.4155 26.5065 11.7016 26.625 12 26.625H14.25C14.5484 26.625 14.8345 26.5065 15.0455 26.2955C15.2565 26.0845 15.375 25.7984 15.375 25.5C15.375 25.2016 15.2565 24.9155 15.0455 24.7045C14.8345 24.4935 14.5484 24.375 14.25 24.375H12C11.7016 24.375 11.4155 24.4935 11.2045 24.7045Z" fill="#192741"/>
</g>
</svg>
