<svg width="36" height="36" viewBox="0 0 36 36" fill="none" xmlns="http://www.w3.org/2000/svg">
<path d="M6.75 21.75C7.24246 21.75 7.73009 21.653 8.18506 21.4645C8.64003 21.2761 9.05343 20.9999 9.40165 20.6516C9.74987 20.3034 10.0261 19.89 10.2145 19.4351C10.403 18.9801 10.5 18.4925 10.5 18C10.5 18.9946 10.8951 19.9484 11.5983 20.6516C12.3016 21.3549 13.2554 21.75 14.25 21.75C15.2446 21.75 16.1984 21.3549 16.9017 20.6516C17.6049 19.9484 18 18.9946 18 18C18 18.9946 18.3951 19.9484 19.0984 20.6516C19.8016 21.3549 20.7554 21.75 21.75 21.75C22.7446 21.75 23.6984 21.3549 24.4016 20.6516C25.1049 19.9484 25.5 18.9946 25.5 18C25.5 18.9946 25.8951 19.9484 26.5984 20.6516C27.3016 21.3549 28.2554 21.75 29.25 21.75C30.2446 21.75 31.1984 21.3549 31.9016 20.6516C32.6049 19.9484 33 18.9946 33 18C33 26.2845 26.2845 33 18 33C9.7155 33 3 26.2845 3 18C3 18.9946 3.39509 19.9484 4.09835 20.6516C4.80161 21.3549 5.75544 21.75 6.75 21.75Z" stroke="#192741" stroke-width="3" stroke-linecap="round" stroke-linejoin="round"/>
<path opacity="0.3" d="M20.1213 11.8713C20.6839 11.3087 21 10.5456 21 9.75C21 8.0925 18 3 18 3C18 3 15 8.0925 15 9.75C15 10.5456 15.3161 11.3087 15.8787 11.8713C16.4413 12.4339 17.2044 12.75 18 12.75C18.7956 12.75 19.5587 12.4339 20.1213 11.8713Z" stroke="#192741" stroke-width="3" stroke-linecap="round" stroke-linejoin="round"/>
</svg>
