<svg width="36" height="36" viewBox="0 0 36 36" fill="none" xmlns="http://www.w3.org/2000/svg">
<path fill-rule="evenodd" clip-rule="evenodd" d="M24.9157 9.9075L24.8482 9.855C24.7184 8.8695 24.2467 7.84275 23.5102 6.97725C22.3139 5.571 20.3639 4.5 17.7539 4.5C15.1814 4.5 13.3687 5.673 12.2992 7.12725C11.8 7.79981 11.4435 8.56725 11.2514 9.3825C11.2165 9.53517 11.1885 9.68932 11.1674 9.8445L11.0864 9.90675C10.2434 10.56 9.62467 11.352 9.77167 12.2603C9.91267 13.1377 10.7062 13.6718 11.4442 13.998C11.6322 14.081 11.8339 14.159 12.0494 14.232C11.941 15.0775 12.0139 15.9363 12.2634 16.7514C12.5129 17.5664 12.9332 18.319 13.4962 18.9589C14.0593 19.5988 14.7523 20.1114 15.529 20.4625C16.3057 20.8137 17.1483 20.9953 18.0007 20.9953C18.8531 20.9953 19.6957 20.8137 20.4724 20.4625C21.249 20.1114 21.942 19.5988 22.5051 18.9589C23.0682 18.319 23.4885 17.5664 23.7379 16.7514C23.9874 15.9363 24.0604 15.0775 23.9519 14.232C24.1674 14.1595 24.3692 14.0815 24.5572 13.998C25.2952 13.6718 26.0879 13.1377 26.2297 12.2603C26.3767 11.352 25.7579 10.56 24.9149 9.90675M12.7094 11.0032C12.6119 10.7227 12.5864 10.272 12.7132 9.71475C12.8377 9.171 13.0957 8.57475 13.5007 8.02275V10.125C13.5007 10.3239 13.5797 10.5147 13.7203 10.6553C13.861 10.796 14.0518 10.875 14.2507 10.875C14.4496 10.875 14.6403 10.796 14.781 10.6553C14.9217 10.5147 15.0007 10.3239 15.0007 10.125V6.6825C15.6179 6.3315 16.3642 6.08625 17.2507 6.01875V8.625C17.2507 8.82391 17.3297 9.01468 17.4703 9.15533C17.611 9.29598 17.8018 9.375 18.0007 9.375C18.1996 9.375 18.3903 9.29598 18.531 9.15533C18.6717 9.01468 18.7507 8.82391 18.7507 8.625V6.06525C19.5427 6.165 20.3072 6.41985 21.0007 6.81525V10.125C21.0007 10.3239 21.0797 10.5147 21.2203 10.6553C21.361 10.796 21.5518 10.875 21.7507 10.875C21.9496 10.875 22.1403 10.796 22.281 10.6553C22.4217 10.5147 22.5007 10.3239 22.5007 10.125V8.1135C23.3294 9.1755 23.5237 10.3215 23.2904 11.0092C23.2326 11.1795 23.2379 11.3648 23.3053 11.5314C23.3727 11.6981 23.4977 11.835 23.6575 11.9172C23.8173 11.9995 24.0014 12.0216 24.1762 11.9795C24.3509 11.9374 24.5048 11.834 24.6097 11.688C24.7574 11.8942 24.7522 12.0037 24.7492 12.021C24.7394 12.081 24.6247 12.3285 23.9504 12.627C23.6579 12.756 23.3099 12.8722 22.9192 12.975L22.9012 12.9795C22.4774 13.089 22.0057 13.182 21.5009 13.2585C20.5648 13.3934 19.6213 13.471 18.6757 13.491C18.0256 13.5075 17.3752 13.5005 16.7257 13.47C15.9786 13.4361 15.2337 13.365 14.4937 13.257C14.0246 13.189 13.5595 13.0964 13.1002 12.9795L13.0822 12.975C12.7296 12.8869 12.3847 12.7706 12.0509 12.627C11.3767 12.3285 11.2619 12.081 11.2522 12.021C11.2492 12.0037 11.2439 11.8942 11.3917 11.688C11.4967 11.8346 11.6512 11.9385 11.8266 11.9805C12.002 12.0225 12.1867 11.9999 12.3468 11.9168C12.507 11.8337 12.6317 11.6957 12.6983 11.528C12.7649 11.3604 12.7689 11.1743 12.7094 11.004M13.5172 14.6108C13.7667 14.6593 14.0237 14.7035 14.2882 14.7435C15.0892 14.8635 15.9517 14.94 16.8292 14.976C17.6113 15.0082 18.3945 15.0082 19.1767 14.976C20.0497 14.94 20.9092 14.8635 21.7064 14.7435C21.9734 14.7045 22.2327 14.6603 22.4842 14.6108C22.5375 15.2319 22.4612 15.8573 22.2601 16.4474C22.059 17.0374 21.7375 17.5793 21.316 18.0386C20.8944 18.4979 20.3821 18.8645 19.8114 19.1154C19.2407 19.3662 18.6241 19.4958 18.0007 19.4958C17.3773 19.4958 16.7607 19.3662 16.19 19.1154C15.6193 18.8645 15.1069 18.4979 14.6854 18.0386C14.2638 17.5793 13.9423 17.0374 13.7412 16.4474C13.5401 15.8573 13.4638 15.2319 13.5172 14.6108Z" fill="#192741"/>
<path opacity="0.3" fill-rule="evenodd" clip-rule="evenodd" d="M21.75 21.3672C22.2435 21.4534 22.746 21.5539 23.25 21.6687C27.3322 22.6009 31.5 24.4647 31.5 26.9997V31.4997H4.5V26.9997C4.5 24.4647 8.66775 22.6009 12.75 21.6687C13.2474 21.5555 13.7475 21.4549 14.25 21.3672V24.7497H21.75V21.3672ZM11.25 23.6172C11.7405 23.4672 12.2438 23.3314 12.75 23.2092V26.2497H23.25V23.2099C24.0099 23.3913 24.7607 23.6086 25.5 23.8609V29.9997H27V24.4474C27.218 24.5444 27.4275 24.6442 27.6285 24.7467C28.4813 25.1802 29.1135 25.6272 29.514 26.0547C29.9077 26.4747 30 26.7844 30 26.9997V29.9997H6V26.9997C6 26.7844 6.09225 26.4747 6.486 26.0547C6.8865 25.6272 7.51875 25.1802 8.3715 24.7467C8.79825 24.5292 9.261 24.3252 9.75 24.1354V29.9997H11.25V23.6172Z" fill="#192741"/>
</svg>
