<svg width="36" height="36" viewBox="0 0 36 36" fill="none" xmlns="http://www.w3.org/2000/svg">
<path d="M30.495 26.4855C30.66 25.9365 30.75 25.353 30.75 24.75V11.25C30.75 9.6587 30.1179 8.13258 28.9926 7.00736C27.8674 5.88214 26.3413 5.25 24.75 5.25H11.25C9.6587 5.25 8.13258 5.88214 7.00736 7.00736C5.88214 8.13258 5.25 9.6587 5.25 11.25V24.855C5.27753 26.428 5.92181 27.9273 7.04406 29.0299C8.1663 30.1325 9.67673 30.7502 11.25 30.75H24.75L24.9255 30.747M30.495 26.4855L30.363 26.3295L26.664 21.8655C26.3833 21.5269 26.0316 21.2541 25.6339 21.0665C25.2361 20.8789 24.8019 20.7811 24.3621 20.7799C23.9222 20.7788 23.4876 20.8744 23.0888 21.0599C22.69 21.2454 22.3369 21.5163 22.0545 21.8535L20.0865 24.2025L19.7655 24.594M30.495 26.4855C30.1311 27.6905 29.3975 28.749 28.398 29.514C27.3985 30.2791 26.1837 30.7104 24.9255 30.747M19.7655 24.594L24.786 30.588L24.9255 30.747M19.7655 24.594L14.925 18.8145C14.6434 18.4784 14.2916 18.2082 13.8943 18.0228C13.497 17.8373 13.0639 17.7412 12.6255 17.7412C12.1871 17.7412 11.754 17.8373 11.3567 18.0228C10.9594 18.2082 10.6076 18.4784 10.326 18.8145L5.517 24.555L5.2515 24.8565" stroke="#192741" stroke-width="2.25" stroke-linecap="round" stroke-linejoin="round"/>
<path opacity="0.3" d="M22.6367 15.6133C23.8794 15.6133 24.8867 14.6059 24.8867 13.3633C24.8867 12.1206 23.8794 11.1133 22.6367 11.1133C21.3941 11.1133 20.3867 12.1206 20.3867 13.3633C20.3867 14.6059 21.3941 15.6133 22.6367 15.6133Z" fill="#192741"/>
</svg>
