<svg width="36" height="36" viewBox="0 0 36 36" fill="none" xmlns="http://www.w3.org/2000/svg">
<path fill-rule="evenodd" clip-rule="evenodd" d="M17.9982 4.12454C15.5118 4.12454 13.1272 5.11227 11.3691 6.87042C9.61091 8.62857 8.62319 11.0131 8.62319 13.4995C8.62319 15.9859 9.61091 18.3705 11.3691 20.1287C13.1272 21.8868 15.5118 22.8745 17.9982 22.8745C20.4846 22.8745 22.8692 21.8868 24.6273 20.1287C26.3855 18.3705 27.3732 15.9859 27.3732 13.4995C27.3732 11.0131 26.3855 8.62857 24.6273 6.87042C22.8692 5.11227 20.4846 4.12454 17.9982 4.12454ZM6.37319 13.4995C6.3744 11.801 6.74782 10.1233 7.46718 8.58455C8.18654 7.04582 9.23436 5.68342 10.5369 4.59322C11.8395 3.50302 13.3651 2.71151 15.0065 2.27437C16.6478 1.83724 18.3651 1.7651 20.0373 2.06305C21.7095 2.36099 23.2962 3.02177 24.6856 3.9989C26.075 4.97602 27.2333 6.24574 28.0792 7.71873C28.9251 9.19171 29.4379 10.8322 29.5815 12.5247C29.7252 14.2172 29.4962 15.9206 28.9107 17.515L32.3427 21.067C32.7282 21.4675 33.0492 21.8005 33.2892 22.078C33.5262 22.351 33.7692 22.663 33.9117 23.026C34.4127 24.2935 34.0107 25.7935 32.8032 26.5315C32.4582 26.7445 32.0622 26.8315 31.7232 26.8885C31.3752 26.9485 30.9342 26.9935 30.4137 27.049L30.3777 27.052C29.6892 27.1255 29.5587 27.148 29.4702 27.1825C29.3312 27.2369 29.2059 27.3211 29.103 27.4292C29.0001 27.5372 28.9222 27.6666 28.8747 27.808C28.8357 27.913 28.8132 28.0675 28.7427 28.774L28.7397 28.807C28.6857 29.3485 28.6407 29.803 28.5852 30.16C28.5312 30.505 28.4502 30.901 28.2507 31.2475C27.5457 32.4805 26.0622 32.9425 24.7752 32.398C24.4137 32.245 24.1062 31.9885 23.8452 31.7455C23.5752 31.4965 23.2557 31.1635 22.8702 30.763L22.8402 30.733L17.9982 25.6345L13.1502 30.742L13.1277 30.7645C12.7422 31.165 12.4212 31.498 12.1527 31.747C11.8902 31.99 11.5827 32.2465 11.2227 32.3995C9.93269 32.944 8.45069 32.482 7.74569 31.249C7.54769 30.9025 7.46519 30.508 7.41119 30.16C7.35569 29.8045 7.31069 29.35 7.25819 28.81L7.25369 28.7755C7.18469 28.069 7.16069 27.916 7.12319 27.8095C7.07573 27.6681 6.9978 27.5387 6.89491 27.4307C6.79202 27.3226 6.66666 27.2384 6.52769 27.184C6.43769 27.1495 6.30719 27.127 5.61869 27.0535L5.58419 27.0505C5.06369 26.995 4.62269 26.9485 4.27469 26.89C3.93569 26.8345 3.53969 26.746 3.19319 26.533C1.98719 25.795 1.58519 24.295 2.08469 23.0275C2.22869 22.6645 2.47019 22.3525 2.70719 22.0795C2.94719 21.802 3.26819 21.469 3.65519 21.0685L7.08569 17.5165C6.61172 16.2304 6.37046 14.8702 6.37319 13.4995ZM8.14019 19.663L5.29619 22.6075C4.88219 23.0365 4.60319 23.3245 4.40819 23.551C4.32086 23.6426 4.24343 23.7432 4.17719 23.851C4.04219 24.196 4.17719 24.487 4.35569 24.6055C4.36919 24.61 4.44569 24.6355 4.64669 24.67C4.91669 24.715 5.29169 24.7555 5.85569 24.8155L5.96819 24.8275C6.47819 24.88 6.92969 24.928 7.33319 25.0825C8.23169 25.4275 8.91869 26.1475 9.24119 27.0505C9.38519 27.454 9.43019 27.91 9.48119 28.441L9.49319 28.5535C9.55019 29.137 9.58919 29.527 9.63419 29.8135C9.67319 30.0565 9.70319 30.1345 9.70469 30.139C9.82469 30.3415 10.0707 30.4405 10.3422 30.3265C10.3422 30.3265 10.4172 30.286 10.6212 30.0955C10.8387 29.8945 11.1162 29.608 11.5287 29.1805L11.5317 29.1775L15.6117 24.8785C14.0796 24.5564 12.6282 23.9284 11.3444 23.0323C10.0606 22.1361 8.97081 20.9902 8.14019 19.663ZM20.3847 24.88C21.9172 24.5579 23.3689 23.9298 24.653 23.0333C25.9371 22.1369 27.0271 20.9906 27.8577 19.663L30.7017 22.6075C31.1157 23.0365 31.3932 23.3245 31.5882 23.551C31.7727 23.761 31.8147 23.8435 31.8192 23.851C31.9542 24.196 31.8192 24.487 31.6422 24.6055C31.6272 24.61 31.5522 24.6355 31.3512 24.67C31.0797 24.715 30.7062 24.7555 30.1407 24.8155L30.0282 24.8275C29.5197 24.88 29.0667 24.928 28.6632 25.0825C27.7662 25.4275 27.0777 26.1475 26.7552 27.0505C26.6112 27.454 26.5662 27.91 26.5152 28.441L26.5032 28.5535C26.4462 29.137 26.4072 29.527 26.3622 29.8135C26.3247 30.0565 26.2932 30.1345 26.2932 30.139C26.1732 30.3415 25.9257 30.442 25.6527 30.3265H25.6557C25.6557 30.3265 25.5807 30.286 25.3752 30.0955C25.065 29.7982 24.7624 29.4931 24.4677 29.1805L24.4647 29.1775L20.3847 24.88Z" fill="#192741"/>
<path opacity="0.3" fill-rule="evenodd" clip-rule="evenodd" d="M18.0004 6.75C17.2489 6.75 16.7794 7.2375 16.5214 7.575C16.2768 7.89228 16.0322 8.3312 15.7803 8.78312L15.7714 8.799L15.7369 8.8605L15.5899 9.126L15.5059 9.276L15.3559 9.3105L15.0694 9.3765L15.0004 9.3915L14.9819 9.39568C14.4962 9.50526 14.0147 9.61387 13.6444 9.7605C13.2304 9.924 12.6694 10.242 12.4519 10.9365C12.2404 11.6205 12.5074 12.1995 12.7414 12.5715C12.9584 12.9156 13.2872 13.3 13.6238 13.6935L13.6714 13.749L13.8664 13.9785L13.9909 14.124L13.9729 14.3265L13.9429 14.631L13.9354 14.7C13.8829 15.228 13.8349 15.738 13.8529 16.1475C13.8724 16.575 13.9744 17.223 14.5549 17.6625C15.1549 18.1185 15.8149 18.018 16.2349 17.898C16.6144 17.7906 17.0617 17.5852 17.5131 17.3778L17.5399 17.3655L17.6059 17.3355L17.8729 17.2125L18.0004 17.1525L18.1279 17.211L18.3964 17.3355L18.4609 17.3655C18.4783 17.3734 18.4957 17.3814 18.513 17.3893C18.9571 17.5928 19.3935 17.7926 19.7659 17.898C20.1859 18.0195 20.8459 18.1185 21.4459 17.6625C22.0279 17.223 22.1299 16.575 22.1479 16.146C22.1674 15.738 22.1179 15.228 22.0654 14.7L22.0594 14.631L22.0294 14.3265L22.0114 14.124L22.1344 13.9785L22.3294 13.749L22.3744 13.6965C22.7134 13.302 23.0419 12.918 23.2594 12.573C23.4934 12.1995 23.7619 11.6205 23.5489 10.938C23.3314 10.2405 22.7719 9.924 22.3564 9.7605C21.9925 9.61639 21.5227 9.50901 21.0456 9.39997C21.031 9.39665 21.0165 9.39333 21.0019 9.39L20.9299 9.375L20.6449 9.3105L20.4964 9.276L20.4124 9.126L20.2639 8.8605L20.2309 8.799C19.9759 8.3415 19.7269 7.896 19.4809 7.575C19.2229 7.2375 18.7534 6.75 18.0004 6.75ZM18.0034 9.426C17.9164 9.576 17.8164 9.753 17.7034 9.957L17.5564 10.221L17.5234 10.281C17.4048 10.4973 17.2085 10.8551 16.8844 11.1015C16.5545 11.3523 16.1562 11.4397 15.9232 11.4908L15.8554 11.505L15.5689 11.5695C15.5498 11.5739 15.5309 11.5781 15.5122 11.5824C15.2742 11.6365 15.0786 11.6809 14.9089 11.724C15.0274 11.8695 15.1819 12.0525 15.3829 12.288L15.5779 12.516L15.6229 12.567L15.6301 12.5753C15.7926 12.7633 16.0492 13.0602 16.1674 13.4445C16.2864 13.8251 16.2462 14.2175 16.2206 14.4668L16.2124 14.544L16.1824 14.8485C16.1596 15.0783 16.1391 15.3083 16.1209 15.5385C16.2769 15.4695 16.4539 15.3885 16.6654 15.291L16.9339 15.168L16.9939 15.138C17.2105 15.0373 17.5871 14.862 18.0019 14.862C18.4204 14.862 18.7939 15.0375 19.0099 15.1395L19.0699 15.168L19.3399 15.291L19.3723 15.306C19.5682 15.397 19.7351 15.4745 19.8844 15.5385L19.8214 14.8485L19.7914 14.544L19.7839 14.4735C19.7584 14.2229 19.7182 13.8277 19.8364 13.4445C19.9547 13.0602 20.2113 12.7633 20.3738 12.5753L20.3809 12.567L20.4259 12.516L20.6209 12.288C20.8219 12.0525 20.9764 11.8695 21.0964 11.724C20.9134 11.679 20.6989 11.6295 20.4364 11.5695L20.1499 11.505L20.0854 11.49C19.8514 11.4405 19.4524 11.3535 19.1194 11.1C18.7939 10.854 18.5989 10.497 18.4819 10.2825L18.4474 10.221L18.3004 9.957C18.1884 9.753 18.0904 9.576 18.0034 9.426Z" fill="#192741"/>
</svg>
