<svg width="36" height="36" viewBox="0 0 36 36" fill="none" xmlns="http://www.w3.org/2000/svg">
<path d="M24 31.8645L27.1815 28.6815M27.1815 28.6815L30.3645 25.5M27.1815 28.6815L24 25.5M27.1815 28.6815L30.3645 31.8645M27 21C27.7956 21 28.5587 20.6839 29.1213 20.1213C29.6839 19.5587 30 18.7956 30 18C30 17.2044 29.6839 16.4413 29.1213 15.8787C28.5587 15.3161 27.7956 15 27 15C26.2044 15 25.4413 15.3161 24.8787 15.8787C24.3161 16.4413 24 17.2044 24 18C24 18.7956 24.3161 19.5587 24.8787 20.1213C25.4413 20.6839 26.2044 21 27 21ZM27 10.5C27.7956 10.5 28.5587 10.1839 29.1213 9.62132C29.6839 9.05871 30 8.29565 30 7.5C30 6.70435 29.6839 5.94129 29.1213 5.37868C28.5587 4.81607 27.7956 4.5 27 4.5C26.2044 4.5 25.4413 4.81607 24.8787 5.37868C24.3161 5.94129 24 6.70435 24 7.5C24 8.29565 24.3161 9.05871 24.8787 9.62132C25.4413 10.1839 26.2044 10.5 27 10.5Z" stroke="#192741" stroke-width="2.25" stroke-linecap="round" stroke-linejoin="round"/>
<path opacity="0.3" d="M4.5 7.5H19.5M4.5 18H19.5M4.5 28.5H19.5" stroke="#192741" stroke-width="2.25" stroke-linecap="round" stroke-linejoin="round"/>
</svg>
