<svg width="36" height="36" viewBox="0 0 36 36" fill="none" xmlns="http://www.w3.org/2000/svg">
<path d="M7 5.90039V21.9004C7 25.7664 10.134 28.9004 14 28.9004H22C25.866 28.9004 29 25.7664 29 21.9004V5.90039" stroke="#192741" stroke-width="2.25"/>
<path opacity="0.3" d="M8 13.9004C8 14.8669 8.7835 15.6504 9.75 15.6504C10.7165 15.6504 11.5 16.4339 11.5 17.4004V19.1504C11.5 20.1169 12.2835 20.9004 13.25 20.9004C14.2165 20.9004 15 21.6839 15 22.6504V24.4004C15 25.3669 15.7835 26.1504 16.75 26.1504M16.75 27.9004H18.5C19.4665 27.9004 20.25 27.1169 20.25 26.1504C20.25 25.1839 21.0335 24.4004 22 24.4004C22.9665 24.4004 23.75 23.6169 23.75 22.6504V20.0254C23.75 19.5421 24.1417 19.1504 24.625 19.1504C25.1082 19.1504 25.5 18.7586 25.5 18.2754V17.4004C25.5 16.4339 26.2835 15.6504 27.25 15.6504H29" stroke="#192741" stroke-width="2.25"/>
</svg>
