<svg width="36" height="36" viewBox="0 0 36 36" fill="none" xmlns="http://www.w3.org/2000/svg">
<path fill-rule="evenodd" clip-rule="evenodd" d="M19.9521 3.72078L22.1525 5.59208C22.632 5.9998 23.2276 6.24651 23.855 6.29731L26.734 6.52997C28.2008 6.64852 29.3651 7.8129 29.4837 9.27962L29.7164 12.1587C29.7672 12.7861 30.0139 13.3816 30.4216 13.8612L32.2929 16.0615C33.2461 17.1825 33.2461 18.8292 32.2929 19.9501L30.4216 22.1505C30.0139 22.6301 29.7672 23.2256 29.7164 23.853L29.4836 26.7321C29.3651 28.1988 28.2007 29.3632 26.734 29.4817L23.855 29.7145C23.2276 29.7652 22.632 30.0119 22.1525 30.4196L19.9521 32.2909C18.8311 33.2442 17.1844 33.2442 16.0635 32.2909L13.8631 30.4196C13.3836 30.0119 12.788 29.7652 12.1607 29.7144L9.28157 29.4817C7.81485 29.3632 6.65048 28.1987 6.53193 26.7321L6.29919 23.853C6.24839 23.2256 6.00169 22.6301 5.59396 22.1505L3.72273 19.9501C2.76951 18.8292 2.76951 17.1825 3.72273 16.0615L5.59403 13.8612C6.00176 13.3816 6.24846 12.7861 6.29926 12.1587L6.53193 9.27962C6.65048 7.8129 7.81485 6.64852 9.28157 6.52997L12.1607 6.29724C12.788 6.24644 13.3836 5.99973 13.8631 5.59201L16.0635 3.72078C17.1844 2.76755 18.8311 2.76755 19.9521 3.72078ZM18.0086 6.00615L15.8066 7.87737C14.8478 8.69279 13.6569 9.18609 12.4023 9.28749L9.52323 9.52022L9.28944 12.4004C9.18804 13.6549 8.69474 14.8459 7.87933 15.8047L6.0081 18.0051L7.87933 20.207C8.69473 21.1658 9.18802 22.3567 9.28944 23.6113L9.52218 26.4904L12.4023 26.7242C13.6569 26.8256 14.8478 27.3189 15.8066 28.1343L18.0071 30.0056L20.209 28.1343C21.1678 27.3189 22.3587 26.8256 23.6132 26.7242L26.4923 26.4915L26.7262 23.6113C26.8276 22.3567 27.3208 21.1658 28.1362 20.207L30.0075 18.0066L28.1362 15.8047C27.3208 14.8459 26.8276 13.6549 26.7262 12.4004L26.4934 9.52128L23.6132 9.28749C22.3587 9.18607 21.1678 8.69277 20.209 7.87737L18.0086 6.00615Z" fill="#192741"/>
<path opacity="0.3" d="M25.7677 14.7617L23.6466 12.6406L16.498 19.828L13.0586 16.3886L10.9375 18.5097L16.498 24.0703L25.7677 14.7617Z" fill="#192741"/>
</svg>
