<svg width="36" height="36" viewBox="0 0 36 36" fill="none" xmlns="http://www.w3.org/2000/svg">
<path d="M4.5 15C4.5 9.3435 4.5 6.5145 6.258 4.758C8.016 3.0015 10.8435 3 16.5 3H19.5C25.1565 3 27.9855 3 29.742 4.758C31.4985 6.516 31.5 9.3435 31.5 15V21C31.5 26.6565 31.5 29.4855 29.742 31.242C27.984 32.9985 25.1565 33 19.5 33H16.5C10.8435 33 8.0145 33 6.258 31.242C4.5015 29.484 4.5 26.6565 4.5 21V15Z" stroke="#192741" stroke-width="2.25"/>
<path opacity="0.3" d="M12 15H24M12 21H19.5" stroke="#192741" stroke-width="2.25" stroke-linecap="round"/>
</svg>
